<?xml version="1.0" encoding="utf-8"?>
<!-- Generator: Adobe Illustrator 18.0.0, SVG Export Plug-In . SVG Version: 6.00 Build 0)  -->
<!DOCTYPE svg PUBLIC "-//W3C//DTD SVG 1.1//EN" "http://www.w3.org/Graphics/SVG/1.1/DTD/svg11.dtd">
<svg version="1.1" id="Layer_1" xmlns="http://www.w3.org/2000/svg" xmlns:xlink="http://www.w3.org/1999/xlink" x="0px" y="0px"
	 viewBox="0 0 1200 1200" enable-background="new 0 0 1200 1200" xml:space="preserve">
<circle fill="#5995F0" cx="596" cy="596" r="540"/>
<g>
	<g>
		<g>
			<path fill="#FBEB52" d="M216.7,933.2c-2.8,0-5.1-2.3-5.1-5.2l3.1-473.2c0-2.8,2.3-5.1,5.2-5.1s5.1,2.3,5.1,5.2l-3.1,473.2
				C221.9,931,219.6,933.3,216.7,933.2z"/>
			<path fill="#FBEB52" d="M840.1,937.3l-623.3-4c-2.8,0-5.1-2.3-5.1-5.2c0-2.8,2.3-5.1,5.2-5.1l623.3,4c2.8,0,5.1,2.3,5.1,5.2
				C845.2,935,842.9,937.3,840.1,937.3z"/>
		</g>
		<g>
			<circle fill="#FBEB52" cx="298.7" cy="856.3" r="23.6"/>
			<circle fill="#FBEB52" cx="299.2" cy="773.8" r="10.9"/>
			<circle fill="#FBEB52" cx="389.8" cy="710.1" r="61.4"/>
			<circle fill="#FBEB52" cx="682.5" cy="582.8" r="23.6"/>
			<circle fill="#FBEB52" cx="303" cy="597.9" r="16.7"/>
			<circle fill="#FBEB52" cx="573.6" cy="637.7" r="43.6"/>
			<circle fill="#FBEB52" cx="663.3" cy="796.8" r="50.5"/>
			<circle fill="#FBEB52" cx="466.7" cy="620.1" r="7.5"/>
			<circle fill="#FBEB52" cx="517.6" cy="820.1" r="7.5"/>
			<circle fill="#FBEB52" cx="664.1" cy="665.8" r="7.5"/>
			<circle fill="#FBEB52" cx="601.4" cy="530.4" r="7.5"/>
			<circle fill="#FBEB52" cx="720.8" cy="492.9" r="17.6"/>
			<circle fill="#FBEB52" cx="528.2" cy="748" r="14.4"/>
			<circle fill="#FBEB52" cx="425.1" cy="850.8" r="16.7"/>
		</g>
	</g>
	<g id="okEuwn.tif">
		<g>
			<path fill="#FBEB52" d="M935.9,371.3c0-26.5-8.4-47.7-25-65.6c-7-7.6-16.3-8.2-23.2-2c-6.9,6.2-7.8,15.9-0.6,23.2
				c22.7,23.2,22,61.4-0.3,84.1c-7.3,7.2-6.6,17.1-0.2,23.2c6.6,6.1,15.9,5.6,23.2-1.7C927.1,414.8,935.3,393.7,935.9,371.3z"/>
			<path fill="#FBEB52" d="M649.6,330.3c66.8-17.4,133.7-34.7,201.2-52.3c-0.4,60.7-0.8,120.5-1.2,181.1
				c-27.5-7.5-54.7-14.9-81.9-22.1c-1.8-0.4-3.8-0.9-5.5-1.4c-5.3-2.3-7.7-1.1-8.9,5c-3.2,14.9-7.7,29.5-10.4,44.4
				c-2.3,12.1-7.8,20.9-18.9,26.1c-3.8,0-7.7-0.1-11.5-0.1c-17.3-8.8-20.7-16.1-16.4-35.3c1.4-6.7,3.1-13.1,4.8-19.8
				c2.7-11.5,5.4-23,8.1-34.7c-20.6-5.8-40.2-11.4-59.7-17C649.2,379.5,649.4,354.8,649.6,330.3z"/>
			<path fill="#FBEB52" d="M987.9,383.3c-2.3,9.1-3.9,18.4-6.6,27.5c-6.4,22.2-18.1,41.3-34.1,57.8c-7.8,7.8-18.1,8.8-24.5,2.1
				c-7-6.9-6.4-16,1.8-24.7c41.7-44.6,42.1-109.1,1.2-153.8c-9.5-10.3-8.8-17.6,2.6-29.1c4.4,0,8.7,0.1,13.1,0.1
				c15.1,12.6,26.7,28,33.7,46.1c5.7,15.2,8.9,31.6,13.2,47.4C988,365.9,988,374.6,987.9,383.3z"/>
			<path fill="#FBEB52" d="M935.9,371.3c-0.6,22.4-8.8,43.6-26,61.1c-7.3,7.2-16.7,7.7-23.2,1.7c-6.6-6.1-7.2-16,0.2-23.2
				c22.6-22.5,23-60.7,0.3-84.1c-7.2-7.3-6.4-17,0.6-23.2c6.9-6.2,16.2-5.5,23.2,2C927.5,323.5,935.9,344.8,935.9,371.3z"/>
		</g>
	</g>
</g>
<g>
	<path opacity="7.000000e-02" fill="#FFFFFF" d="M1136,596c0-298.2-241.8-540-540-540c-149.4,0-284.6,60.7-382.3,158.7L594,595
		l383.3,383.3C1075.3,880.6,1136,745.4,1136,596z"/>
</g>
<path fill="#545454" d="M603,19C280.5,19,19,280.5,19,603s261.5,584,584,584s584-261.5,584-584S925.5,19,603,19z M601,1141
	c-298.2,0-540-241.8-540-540S302.8,61,601,61s540,241.8,540,540S899.2,1141,601,1141z"/>
<path fill="#F5F5F5" d="M598,14C275.5,14,14,275.5,14,598s261.5,584,584,584s584-261.5,584-584S920.5,14,598,14z M596,1136
	c-298.2,0-540-241.8-540-540S297.8,56,596,56s540,241.8,540,540S894.2,1136,596,1136z"/>
</svg>
