<?xml version="1.0" encoding="utf-8"?>
<!-- Generator: Adobe Illustrator 18.0.0, SVG Export Plug-In . SVG Version: 6.00 Build 0)  -->
<!DOCTYPE svg PUBLIC "-//W3C//DTD SVG 1.1//EN" "http://www.w3.org/Graphics/SVG/1.1/DTD/svg11.dtd">
<svg version="1.1" id="Layer_1" xmlns="http://www.w3.org/2000/svg" xmlns:xlink="http://www.w3.org/1999/xlink" x="0px" y="0px"
	 viewBox="0 0 1200 1200" enable-background="new 0 0 1200 1200" xml:space="preserve">
<g>
	<g>
		<g>
			<path d="M48.4,1085.5c-4.1,0-7.4-3.3-7.4-7.4V397.2c0-4.1,3.3-7.4,7.4-7.4s7.4,3.3,7.4,7.4v680.9
				C55.8,1082.2,52.5,1085.5,48.4,1085.5z"/>
			<path d="M945.4,1085.5h-897c-4.1,0-7.4-3.3-7.4-7.4c0-4.1,3.3-7.4,7.4-7.4h897c4.1,0,7.4,3.3,7.4,7.4
				C952.8,1082.2,949.5,1085.5,945.4,1085.5z"/>
		</g>
		<g>
			<circle cx="165.6" cy="974" r="34"/>
			<circle cx="165.6" cy="855.3" r="15.7"/>
			<circle cx="295.3" cy="762.8" r="88.4"/>
			<circle cx="715.3" cy="576.9" r="34"/>
			<circle cx="169.4" cy="602.2" r="24.1"/>
			<circle cx="559.1" cy="656.9" r="62.8"/>
			<circle cx="689.7" cy="885" r="72.7"/>
			<circle cx="405.2" cy="632.5" r="10.8"/>
			<circle cx="480.3" cy="919.9" r="10.8"/>
			<circle cx="689.7" cy="696.5" r="10.8"/>
			<circle cx="598.1" cy="502.2" r="10.8"/>
			<circle cx="769.7" cy="447.2" r="25.3"/>
			<circle cx="494.8" cy="816" r="20.7"/>
			<circle cx="347.4" cy="964.9" r="24.1"/>
		</g>
	</g>
	<g id="okEuwn.tif">
		<g>
			<path fill="#FFFFFF" d="M1078,270.1c-0.3-38.1-12.5-68.6-36.6-94.2c-10.2-10.8-23.6-11.6-33.4-2.6c-9.9,9-11.1,23-0.6,33.4
				c32.9,33.2,32.3,88.1,0.3,121c-10.5,10.5-9.3,24.7,0,33.4c9.6,8.7,23,7.9,33.4-2.6C1065.8,332.9,1077.4,302.4,1078,270.1z"/>
			<path d="M665.6,213.9c96-25.6,192-51.2,289.1-77.1c0,87.3,0,173.4,0,260.6c-39.6-10.5-78.8-20.9-118.1-31.1
				c-2.6-0.6-5.5-1.2-7.9-2c-7.6-3.2-11.1-1.5-12.8,7.3c-4.4,21.5-10.8,42.5-14.5,64c-3.2,17.5-11.1,30.2-27,37.8
				c-5.5,0-11.1,0-16.6,0c-25-12.5-30-23-23.9-50.6c2-9.6,4.4-18.9,6.7-28.5c3.8-16.6,7.6-33.2,11.3-50c-29.7-8.1-57.9-16-86.1-23.9
				C665.6,284.6,665.6,249.1,665.6,213.9z"/>
			<path d="M1153,287c-3.2,13.1-5.5,26.5-9.3,39.6c-9,32-25.6,59.6-48.6,83.5c-11.1,11.3-25.9,12.8-35.2,3.2
				c-10.2-9.9-9.3-23,2.3-35.5c59.6-64.6,59.6-157.4,0.3-221.3c-13.7-14.8-12.8-25.3,3.5-41.9c6.4,0,12.5,0,18.9,0
				c21.8,18,38.7,40.1,48.9,66c8.4,21.8,13.1,45.4,19.5,68.1C1153,261.9,1153,274.4,1153,287z"/>
			<path fill="#FFFFFF" d="M665.6,319.8c28.2,7.9,56.1,15.7,86.1,23.9c-3.8,16.9-7.6,33.4-11.3,50c-2,9.6-4.4,18.9-6.7,28.5
				c-6.4,27.6-1.5,38.4,23.9,50.6c-30.5,0-61.4,0-91.9,0C665.6,421.9,665.6,371,665.6,319.8z"/>
			<path fill="#FFFFFF" d="M1153,249.1c-6.4-22.7-11.1-46.2-19.5-68.1c-10.2-25.9-27-48.3-48.9-66c22.7,0,45.7,0,68.4,0
				C1153,159.8,1153,204.3,1153,249.1z"/>
			<path d="M1078,270.1c-0.6,32.3-12.2,62.8-36.9,88.1c-10.5,10.5-23.9,11.3-33.4,2.6c-9.6-8.7-10.5-23,0-33.4
				c32.3-32.6,32.6-87.5-0.3-121c-10.5-10.5-9.3-24.4,0.6-33.4c9.9-9,23.3-8.1,33.4,2.6C1065.5,201.4,1077.7,232,1078,270.1z"/>
		</g>
	</g>
</g>
</svg>
