<?xml version="1.0" encoding="utf-8"?>
<!-- Generator: Adobe Illustrator 18.0.0, SVG Export Plug-In . SVG Version: 6.00 Build 0)  -->
<!DOCTYPE svg PUBLIC "-//W3C//DTD SVG 1.1//EN" "http://www.w3.org/Graphics/SVG/1.1/DTD/svg11.dtd">
<svg version="1.1" id="Layer_1" xmlns="http://www.w3.org/2000/svg" xmlns:xlink="http://www.w3.org/1999/xlink" x="0px" y="0px"
	 viewBox="0 0 1200 1200" enable-background="new 0 0 1200 1200" xml:space="preserve">
<circle fill="#a5bf4b" cx="594" cy="594" r="540"/>
<g>
	<g>
		<path fill="#FFFFFF" d="M789.6,214.1c-21.8,0-39.5,17.7-39.5,39.5c0,7.5,2.2,14.6,5.8,20.7l-81.5,96.3c-4.7-1.9-9.9-3-15.5-3
			c-8.9,0-17.1,3-23.8,8l-68.7-49.7c1.1-3.3,1.7-7.2,1.7-10.8c0-21.8-17.7-39.5-39.5-39.5c-21.8,0-39.5,17.7-39.5,39.5
			c0,7.2,1.9,14.1,5.5,19.9l-68,80.9c-5-2.2-10.5-3.3-16.1-3.3c-21.8,0-39.5,17.7-39.5,39.5s17.7,39.5,39.5,39.5
			s39.5-17.7,39.5-39.5c0-7.2-1.9-13.5-5.3-19.4l68.2-81.4c4.7,1.9,9.9,3,15.5,3c9.1,0,17.4-3,24-8.3l68.5,49.5
			c-1.1,3.6-1.7,7.2-1.7,11c0,21.8,17.7,39.5,39.5,39.5c21.8,0,39.5-17.7,39.5-39.5c0-7.5-1.9-14.1-5.5-20.2l81.8-96.7
			c4.7,1.9,9.6,2.7,14.6,2.7c21.8,0,39.5-17.7,39.5-39.5C829.1,231.7,811.4,214.1,789.6,214.1L789.6,214.1z"/>
	</g>
	<g>
		<path fill="#FFFFFF" d="M705.1,528.8h-272v433.6h333.8V588.9L705.1,528.8z M738.2,933.4H462.1V557.5h228.2v45.7h48.1v330.1
			L738.2,933.4L738.2,933.4z"/>
		<path fill="#FFFFFF" d="M501.6,691.9v197h197v-197H501.6L501.6,691.9z M636,701.5h52.9v52.7H636V701.5z M636,763.9h52.9v52.9H636
			V763.9z M636,826.4h52.9v52.9H636V826.4z M573.8,701.5h52.7v52.7h-52.9v-52.7H573.8z M573.8,763.9h52.7v52.9h-52.9v-52.9H573.8z
			 M573.8,826.4h52.7v52.9h-52.9v-52.9H573.8z M511.2,701.5h52.9v52.7h-52.9V701.5z M511.2,763.9h52.9v52.9h-52.9V763.9z
			 M511.2,826.4h52.9v52.9h-52.9V826.4z"/>
		<rect x="621" y="636.6" fill="#FFFFFF" width="77.5" height="46.1"/>
		<rect x="535.2" y="636.6" fill="#FFFFFF" width="77.5" height="46.1"/>
	</g>
</g>
<g>
	<path opacity="7.000000e-02" fill="#FFFFFF" d="M1134,594c0-298.2-241.8-540-540-540c-149.4,0-284.6,60.7-382.3,158.7L592,593
		l383.3,383.3C1073.3,878.6,1134,743.4,1134,594z"/>
</g>
<path fill="#545454" d="M601,17C278.5,17,17,278.5,17,601s261.5,584,584,584s584-261.5,584-584S923.5,17,601,17z M599,1139
	c-298.2,0-540-241.8-540-540S300.8,59,599,59s540,241.8,540,540S897.2,1139,599,1139z"/>
<path fill="#F5F5F5" d="M596,12C273.5,12,12,273.5,12,596s261.5,584,584,584s584-261.5,584-584S918.5,12,596,12z M594,1134
	c-298.2,0-540-241.8-540-540S295.8,54,594,54s540,241.8,540,540S892.2,1134,594,1134z"/>
</svg>
