<?xml version="1.0" encoding="utf-8"?>
<!-- Generator: Adobe Illustrator 18.0.0, SVG Export Plug-In . SVG Version: 6.00 Build 0)  -->
<!DOCTYPE svg PUBLIC "-//W3C//DTD SVG 1.1//EN" "http://www.w3.org/Graphics/SVG/1.1/DTD/svg11.dtd">
<svg version="1.1" id="Layer_1" xmlns="http://www.w3.org/2000/svg" xmlns:xlink="http://www.w3.org/1999/xlink" x="0px" y="0px"
	 viewBox="0 0 1200 1200" enable-background="new 0 0 1200 1200" xml:space="preserve">
<g>
	<path d="M863.3,83.4c-30.3,0-54.9,24.6-54.9,54.9c0,10.4,3.1,20.3,8.1,28.8L703.3,300.9c-6.5-2.7-13.8-4.2-21.5-4.2
		c-12.3,0-23.8,4.2-33,11.1l-95.5-69.1c1.5-4.6,2.3-10,2.3-15c0-30.3-24.6-54.9-54.9-54.9c-30.3,0-54.9,24.6-54.9,54.9
		c0,10,2.7,19.6,7.7,27.6l-94.4,112.4c-6.9-3.1-14.6-4.6-22.3-4.6c-30.3,0-54.9,24.6-54.9,54.9c0,30.3,24.6,54.9,54.9,54.9
		c30.3,0,54.9-24.6,54.9-54.9c0-10-2.7-18.8-7.3-26.9L479.2,274c6.5,2.7,13.8,4.2,21.5,4.2c12.7,0,24.2-4.2,33.4-11.5l95.1,68.7
		c-1.5,5-2.3,10-2.3,15.3c0,30.3,24.6,54.9,54.9,54.9c30.3,0,54.9-24.6,54.9-54.9c0-10.4-2.7-19.6-7.7-28l113.6-134.3
		c6.5,2.7,13.4,3.8,20.3,3.8c30.3,0,54.9-24.6,54.9-54.9C918.1,107.9,893.6,83.4,863.3,83.4L863.3,83.4z"/>
</g>
<g>
	<g>
		<g>
			<g>
				<defs>
					<rect id="SVGID_1_" x="87.9" y="601.8" width="459.7" height="482.6"/>
				</defs>
				<clipPath id="SVGID_2_">
					<use xlink:href="#SVGID_1_"  overflow="visible"/>
				</clipPath>
				<path clip-path="url(#SVGID_2_)" d="M534.5,1083.8H116.3c-15.6,0-28.2-12.8-28.2-28.2v-441c0-17.3,34-17.3,34,0V1050h412.5
					C550.9,1050,550.9,1083.8,534.5,1083.8L534.5,1083.8z"/>
			</g>
		</g>
		<path d="M515.8,1028.8c4.7,0,8.4-3.9,8.4-8.4V718.4c0-4.7-3.9-8.4-8.4-8.4H408.4c-4.7,0-8.4,3.9-8.4,8.4v301.8
			c0,4.7,3.9,8.4,8.4,8.4h107.4V1028.8z"/>
		<path d="M371,1028.8c4.7,0,8.4-3.9,8.4-8.4V650.6c0-4.7-3.9-8.4-8.4-8.4h-87.6c-4.7,0-8.4,3.9-8.4,8.4v369.6
			c0,4.7,3.9,8.4,8.4,8.4H371V1028.8z"/>
		<path d="M245.8,1028.8c4.7,0,8.4-3.9,8.4-8.4V802.1c0-4.7-3.9-8.4-8.4-8.4h-95.4c-4.7,0-8.4,3.9-8.4,8.4v218.1
			c0,4.7,3.9,8.4,8.4,8.4h95.4V1028.8z"/>
	</g>
	<g>
		<path d="M1032.7,529H684.3v555.4h427.6V606L1032.7,529z M1075.1,1047.3H721.4V565.8h292.3v58.6h61.6v422.9H1075.1z"/>
		<path d="M772.1,737.9v252.4h252.4V737.9L772.1,737.9L772.1,737.9z M944.2,750.2h67.8v67.5h-67.8V750.2z M944.2,830.2h67.8V898
			h-67.8V830.2z M944.2,910.3h67.8v67.8h-67.8V910.3z M864.5,750.2H932v67.5h-67.8v-67.5H864.5z M864.5,830.2H932V898h-67.8v-67.8
			H864.5z M864.5,910.3H932v67.8h-67.8v-67.8H864.5z M784.4,750.2h67.8v67.5h-67.8V750.2z M784.4,830.2h67.8V898h-67.8V830.2z
			 M784.4,910.3h67.8v67.8h-67.8V910.3z"/>
		<rect x="925" y="667.1" width="99.3" height="59.1"/>
		<rect x="815.1" y="667.1" width="99.3" height="59.1"/>
	</g>
</g>
</svg>
