<?xml version="1.0" encoding="utf-8"?>
<!-- Generator: Adobe Illustrator 18.0.0, SVG Export Plug-In . SVG Version: 6.00 Build 0)  -->
<!DOCTYPE svg PUBLIC "-//W3C//DTD SVG 1.1//EN" "http://www.w3.org/Graphics/SVG/1.1/DTD/svg11.dtd">
<svg version="1.1" id="Layer_1" xmlns="http://www.w3.org/2000/svg" xmlns:xlink="http://www.w3.org/1999/xlink" x="0px" y="0px"
	 viewBox="0 0 1200 1200" enable-background="new 0 0 1200 1200" xml:space="preserve">
<circle fill="#6B7E8B" cx="591" cy="590" r="540"/>
<g id="NqNpyG_2_">
	<g>
		<path fill="#FFFC8F" d="M762.1,339.1c-0.9,0.2-1.8,0.5-2.7,0.7c-1.1-2.9-2.5-5.7-3.4-8.5c-5-13-12.8-22.9-27.2-26.5
			c-21.1-5.4-42.4-11-63.5-16.2c-5-1.1-10.5-1.3-15.5,0c-22.9,5.7-45.3,13.5-68.5,17.2c-25.9,4.5-36.6,21.1-40.6,43.8
			c-1.5,8.7-5.2,11.5-12.4,13.7c-45.8,15.2-91.6,30.6-137.2,46.5c-4.7,1.5-9.9,5.4-12.6,9.7c-29.4,44.5-58.6,89.1-87.8,133.9
			c-2.5,3.6-4,8-5,12.4c-16.6,80.9-33.2,161.9-49.8,243c-2.9,14.2-5.4,28.3-8,43.1c4.7,0.5,7.4,0.9,10.1,0.9
			c24.2,0,48.3-0.2,72.5,0.2c8.5,0.2,11.9-2.9,10.3-11c-4.3-23.6,5.2-42.6,19.4-60.2c5.7-7,10.1-15,15.2-22.4c1.3-2,3.2-3.6,6.3-7.2
			c-2.7,32.1-4.7,61.8-7.7,91.2c-0.9,8.3,2,9.7,9,9.7c28.7-0.2,57.5,0,86-0.2c2.5,0,5.2-0.9,9.2-1.8c-6-12.6-12.2-23.6-16.9-35.1
			c-1.5-3.8-1.8-9.7-0.2-13.5c9.9-24.4,20.4-48.8,31.2-73c2-4.7,6-9.2,10.5-11.9c24.4-14.6,49.4-28.6,74.4-42.6
			c3.4-2,7-3.6,11.2-5.8c0,2.7,0.2,3.6,0,4.7c-12.6,56-24.7,111.8-37.9,167.8c-2.2,9.7,0.2,11.7,9,11.5c32.1-0.2,64.5,0,96.6-0.2
			c3.2,0,6.5-0.7,12.2-1.5c-8.3-12.8-15.9-23.6-22.4-34.8c-2-3.6-3.2-9-2.2-13c4.3-18.7,9.4-37.1,14.2-55.5c1.5-6,3.2-11.9,5.4-20
			c20.2,40,39.3,77.5,58.2,115.2c3.6,7.2,7.7,10.3,16.2,10.1c24.4-0.7,49-0.2,73.4-0.2c3.6,0,7.2-0.5,14.4-0.9
			c-5.2-6.7-8.5-11.2-11.9-15.5c-10.7-13-25.6-22.4-30.8-40.2c-19.2-65.3-38.4-130.6-57.8-195.8c-1.3-4.7-2.9-8.3,2.9-11.2
			c10.7-5.7,21.4-11.9,32.4-18.2c3.2,7.4,7,14.4,9,21.6c2.9,10.3,8.3,10.1,15.9,5.8c5.2-2.9,10.5-5.2,14.2-7
			c20.2,21.8,39.8,42.4,59,63.5c1.8,1.8,3.2,5.7,2.5,7.7c-5.8,16.2-15,20.4-32.1,15.7c7.2-16.6,7.2-16.6-6.7-28.9
			c-1.5-1.3-3.2-2.9-4.5-4.5c-5.8-6.3-10.3-6.5-13.9,2.2c-3.6,8.7-6.7,17.7-11.7,25.6c-7.9,12.8-6.5,25.9-3.2,39.3
			c1.3,5.8,4,9,10.7,8.7c25.2-0.2,50.3,0.2,75.7-0.5c3.8,0,8.7-3.6,11.2-7c6.5-9.4,12.2-19.5,18.2-29.9c3.2,1.3,5.7,2.2,8,3.6
			c17.7,10.3,36.4,18.4,56.8,19.1c15.5,0.5,30.9-2.2,46.7-4c2-0.2,3.6-3.4,5.4-5.2c-2.2-1.3-4.5-3.2-7-4.3c-1.1-0.5-2.7,0-4.3,0
			c-34.1-1.5-62.7-16.2-89.4-36.4c7.2-12.4,14.6-23.8,20.9-35.7c2.5-4.5,3.6-10.5,3.2-15.7c-1.1-14.6-3.6-28.9-5.4-43.6
			c-5.2-44-10.1-88.1-15.2-131.8c-0.5-4.3-2.7-8.7-5.2-12.4c-14.9-20.7-31.2-40.4-44.5-62C844,337.7,830,328.2,810.3,325
			c-15.9-2.7-31.4-7.4-48.5-11.5C762.1,323.6,762.1,331.3,762.1,339.1z"/>
		<path fill="#FFFC8F" d="M762.1,339.1c0-7.9,0-15.7,0-25.1c17.1,4,32.8,8.7,48.5,11.5c19.7,3.4,33.7,12.6,44.5,29.9
			c13.5,21.6,29.6,41.3,44.5,62c2.5,3.6,4.7,8,5.2,12.4c5.4,44,10.1,88.1,15.2,131.8c1.8,14.6,4.3,28.9,5.4,43.6
			c0.5,5.2-0.9,11-3.2,15.7c-6.3,11.9-13.7,23.4-20.9,35.7c26.7,20.2,55.5,34.8,89.4,36.4c1.3,0,2.9-0.5,4.3,0
			c2.5,1.1,4.7,2.9,7,4.3c-1.8,1.8-3.4,5-5.4,5.2c-15.5,1.8-31.2,4.5-46.7,4c-20.4-0.7-39.3-8.7-56.8-19.1c-2.2-1.3-5-2.2-8-3.6
			c-6.3,10.3-11.7,20.4-18.2,29.9c-2.2,3.4-7.4,6.7-11.2,7c-25.2,0.7-50.3,0.2-75.7,0.5c-6.7,0-9.2-3.2-10.7-8.7
			c-3.4-13.5-4.5-26.5,3.2-39.3c5-7.9,8-16.9,11.7-25.6c3.6-8.7,8-8.5,13.9-2.2c1.3,1.5,2.9,3.2,4.5,4.5
			c13.9,12.6,13.9,12.6,6.7,28.9c17.1,4.7,26.3,0.5,32.1-15.7c0.7-2-0.7-5.8-2.5-7.7c-19.4-21.1-38.8-42-59-63.5
			c-3.6,1.8-9,4.3-14.2,7c-7.7,4.3-13.2,4.5-15.9-5.8c-2-7.2-5.8-14.2-9-21.6c-11.2,6.3-21.6,12.6-32.4,18.2
			c-5.8,2.9-4.3,6.7-2.9,11.2c19.4,65.3,38.6,130.5,57.5,195.8c5.2,17.5,20,27.2,30.8,40.2c3.6,4.3,6.7,8.7,11.9,15.5
			c-7.2,0.5-10.7,0.9-14.4,0.9c-24.4,0-49-0.5-73.4,0.2c-8.3,0.2-12.6-2.9-16.2-10.1c-18.9-37.8-37.9-75.2-58.2-115.2
			c-2.2,8-3.8,13.9-5.4,20c-4.7,18.4-9.9,36.8-14.2,55.5c-0.9,4,0.2,9.4,2.2,13c6.5,11.2,14.2,22,22.4,34.8
			c-5.7,0.7-8.7,1.5-12.2,1.5c-32.1,0-64.5-0.2-96.6,0.2c-8.7,0-11.2-1.8-9-11.5c13-55.7,25.4-111.8,37.9-167.8c0.2-0.9,0-2,0-4.7
			c-4.3,2.2-7.9,4-11.2,5.8c-24.9,14.2-49.8,28.1-74.4,42.6c-4.3,2.7-8.3,7.2-10.5,11.9c-10.7,24-21.4,48.5-31.2,73
			c-1.5,3.8-1.3,9.7,0.2,13.5c4.7,11.5,10.5,22.4,16.9,35.1c-4.3,0.9-6.7,1.5-9.2,1.8c-28.7,0-57.5,0-86,0.2c-7,0-9.9-1.3-9-9.7
			c3.2-29.4,5.2-59,7.7-91.2c-3.2,3.6-5,5.2-6.3,7.2c-5.2,7.4-9.7,15.5-15.2,22.4c-14.4,17.7-23.6,36.6-19.4,60.2
			c1.3,8-1.8,11.2-10.3,11c-24-0.5-48.3-0.2-72.5-0.2c-2.7,0-5.4-0.5-10.1-0.9c2.7-14.9,5.2-29.2,8-43.1
			c16.4-81.1,33.1-162.1,49.6-243c0.9-4.3,2.5-8.7,5-12.4c28.9-44.7,58.2-89.4,87.8-133.9c2.7-4.3,7.9-8,12.6-9.7
			c45.6-15.7,91.4-31.2,137.2-46.5c7.2-2.5,10.7-5.2,12.4-13.7c3.8-22.7,14.6-39.3,40.6-43.8c23.1-4,45.6-11.9,68.5-17.2
			c5-1.1,10.5-1.1,15.5,0c21.4,5,42.4,10.7,63.5,16.2c14.4,3.6,22.2,13.5,27.2,26.5c1.1,2.9,2.2,5.7,3.4,8.5
			C760.3,339.6,761.2,339.3,762.1,339.1z"/>
	</g>
</g>
<g>
	<path opacity="7.000000e-02" fill="#FFFFFF" d="M1131,590c0-298.2-241.8-540-540-540c-149.4,0-284.6,60.7-382.3,158.7L589,589
		l383.3,383.3C1070.3,874.6,1131,739.4,1131,590z"/>
</g>
<path fill="#545454" d="M598,13C275.5,13,14,274.5,14,597s261.5,584,584,584s584-261.5,584-584S920.5,13,598,13z M596,1135
	c-298.2,0-540-241.8-540-540S297.8,55,596,55s540,241.8,540,540S894.2,1135,596,1135z"/>
<path fill="#F5F5F5" d="M593,8C270.5,8,9,269.5,9,592s261.5,584,584,584s584-261.5,584-584S915.5,8,593,8z M591,1130
	c-298.2,0-540-241.8-540-540S292.8,50,591,50s540,241.8,540,540S889.2,1130,591,1130z"/>
</svg>
