<?xml version="1.0" encoding="utf-8"?>
<!-- Generator: Adobe Illustrator 18.0.0, SVG Export Plug-In . SVG Version: 6.00 Build 0)  -->
<!DOCTYPE svg PUBLIC "-//W3C//DTD SVG 1.1//EN" "http://www.w3.org/Graphics/SVG/1.1/DTD/svg11.dtd">
<svg version="1.1" id="Layer_1" xmlns="http://www.w3.org/2000/svg" xmlns:xlink="http://www.w3.org/1999/xlink" x="0px" y="0px"
	 viewBox="0 0 1200 1200" enable-background="new 0 0 1200 1200" xml:space="preserve">
<g>
	<g id="NqNpyG_1_">
		<g>
			<path fill="#FFFFFF" d="M651.3,492.2c-0.9,0.2-1.9,0.5-2.8,0.7c-1.2-3-2.6-5.9-3.5-8.9c-5.2-13.6-13.4-23.9-28.4-27.7
				c-22-5.6-44.3-11.5-66.3-16.9c-5.2-1.2-11-1.4-16.2,0c-23.9,5.9-47.3,14.1-71.5,18c-27,4.7-38.2,22-42.4,45.7
				c-1.6,9.1-5.4,12-12.9,14.3c-47.8,15.9-95.6,31.9-143.2,48.5c-4.9,1.6-10.3,5.6-13.1,10.1c-30.7,46.4-61.2,93-91.6,139.7
				c-2.6,3.8-4.2,8.4-5.2,12.9c-17.3,84.4-34.7,169-52,253.6c-3,14.8-5.6,29.5-8.4,45c4.9,0.5,7.7,0.9,10.5,0.9
				c25.3,0,50.4-0.2,75.7,0.2c8.9,0.2,12.4-3,10.8-11.5c-4.5-24.6,5.4-44.5,20.2-62.8c5.9-7.3,10.5-15.7,15.9-23.4
				c1.4-2.1,3.3-3.8,6.6-7.5c-2.8,33.5-4.9,64.5-8,95.2c-0.9,8.7,2.1,10.1,9.4,10.1c30-0.2,60,0,89.8-0.2c2.6,0,5.4-0.9,9.6-1.9
				c-6.3-13.1-12.7-24.6-17.6-36.6c-1.6-4-1.9-10.1-0.2-14.1c10.3-25.5,21.3-50.9,32.6-76.2c2.1-4.9,6.3-9.6,11-12.4
				c25.5-15.2,51.6-29.8,77.6-44.5c3.5-2.1,7.3-3.8,11.7-6.1c0,2.8,0.2,3.8,0,4.9c-13.1,58.4-25.8,116.7-39.6,175.1
				c-2.3,10.1,0.2,12.2,9.4,12c33.5-0.2,67.3,0,100.8-0.2c3.3,0,6.8-0.7,12.7-1.6c-8.7-13.4-16.6-24.6-23.4-36.3
				c-2.1-3.8-3.3-9.4-2.3-13.6c4.5-19.5,9.8-38.7,14.8-57.9c1.6-6.3,3.3-12.4,5.6-20.9c21.1,41.7,41,80.9,60.7,120.2
				c3.8,7.5,8,10.8,16.9,10.5c25.5-0.7,51.1-0.2,76.6-0.2c3.8,0,7.5-0.5,15-0.9c-5.4-7-8.9-11.7-12.4-16.2
				c-11.2-13.6-26.7-23.4-32.1-42C632.1,901.2,612,833,591.8,765c-1.4-4.9-3-8.7,3-11.7c11.2-5.9,22.3-12.4,33.8-19
				c3.3,7.7,7.3,15,9.4,22.5c3,10.8,8.7,10.5,16.6,6.1c5.4-3,11-5.4,14.8-7.3c21.1,22.7,41.5,44.3,61.6,66.3c1.9,1.9,3.3,5.9,2.6,8
				c-6.1,16.9-15.7,21.3-33.5,16.4c7.5-17.3,7.5-17.3-7-30.2c-1.6-1.4-3.3-3-4.7-4.7c-6.1-6.6-10.8-6.8-14.5,2.3
				c-3.8,9.1-7,18.5-12.2,26.7c-8.2,13.4-6.8,27-3.3,41c1.4,6.1,4.2,9.4,11.2,9.1c26.3-0.2,52.5,0.2,79-0.5c4,0,9.1-3.8,11.7-7.3
				c6.8-9.8,12.7-20.4,19-31.2c3.3,1.4,5.9,2.3,8.4,3.8c18.5,10.8,38,19.2,59.3,19.9c16.2,0.5,32.3-2.3,48.7-4.2
				c2.1-0.2,3.8-3.5,5.6-5.4c-2.3-1.4-4.7-3.3-7.3-4.5c-1.2-0.5-2.8,0-4.5,0c-35.6-1.6-65.4-16.9-93.3-38
				c7.5-12.9,15.2-24.8,21.8-37.3c2.6-4.7,3.8-11,3.3-16.4c-1.2-15.2-3.8-30.2-5.6-45.5c-5.4-45.9-10.5-91.9-15.9-137.6
				c-0.5-4.5-2.8-9.1-5.4-12.9c-15.5-21.6-32.6-42.2-46.4-64.7c-11.2-18-25.8-27.9-46.4-31.2c-16.6-2.8-32.8-7.7-50.6-12
				C651.3,476,651.3,484,651.3,492.2z"/>
			<path d="M651.3,492.2c0-8.2,0-16.4,0-26.2c17.8,4.2,34.2,9.1,50.6,12c20.6,3.5,35.2,13.1,46.4,31.2
				c14.1,22.5,30.9,43.1,46.4,64.7c2.6,3.8,4.9,8.4,5.4,12.9c5.6,45.9,10.5,91.9,15.9,137.6c1.9,15.2,4.5,30.2,5.6,45.5
				c0.5,5.4-0.9,11.5-3.3,16.4c-6.6,12.4-14.3,24.4-21.8,37.3c27.9,21.1,57.9,36.3,93.3,38c1.4,0,3-0.5,4.5,0c2.6,1.2,4.9,3,7.3,4.5
				c-1.9,1.9-3.5,5.2-5.6,5.4c-16.2,1.9-32.6,4.7-48.7,4.2c-21.3-0.7-41-9.1-59.3-19.9c-2.3-1.4-5.2-2.3-8.4-3.8
				c-6.6,10.8-12.2,21.3-19,31.2c-2.3,3.5-7.7,7-11.7,7.3c-26.3,0.7-52.5,0.2-79,0.5c-7,0-9.6-3.3-11.2-9.1
				c-3.5-14.1-4.7-27.7,3.3-41c5.2-8.2,8.4-17.6,12.2-26.7c3.8-9.1,8.4-8.9,14.5-2.3c1.4,1.6,3,3.3,4.7,4.7
				c14.5,13.1,14.5,13.1,7,30.2c17.8,4.9,27.4,0.5,33.5-16.4c0.7-2.1-0.7-6.1-2.6-8c-20.2-22-40.5-43.8-61.6-66.3
				c-3.8,1.9-9.4,4.5-14.8,7.3c-8,4.5-13.8,4.7-16.6-6.1c-2.1-7.5-6.1-14.8-9.4-22.5c-11.7,6.6-22.5,13.1-33.8,19
				c-6.1,3-4.5,7-3,11.7c20.2,68.2,40.3,136.2,60,204.4c5.4,18.3,20.9,28.4,32.1,42c3.8,4.5,7,9.1,12.4,16.2
				c-7.5,0.5-11.2,0.9-15,0.9c-25.5,0-51.1-0.5-76.6,0.2c-8.7,0.2-13.1-3-16.9-10.5c-19.7-39.4-39.6-78.5-60.7-120.2
				c-2.3,8.4-4,14.5-5.6,20.9c-4.9,19.2-10.3,38.4-14.8,57.9c-0.9,4.2,0.2,9.8,2.3,13.6c6.8,11.7,14.8,23,23.4,36.3
				c-5.9,0.7-9.1,1.6-12.7,1.6c-33.5,0-67.3-0.2-100.8,0.2c-9.1,0-11.7-1.9-9.4-12c13.6-58.1,26.5-116.7,39.6-175.1
				c0.2-0.9,0-2.1,0-4.9c-4.5,2.3-8.2,4.2-11.7,6.1c-26,14.8-52,29.3-77.6,44.5c-4.5,2.8-8.7,7.5-11,12.4
				c-11.2,25.1-22.3,50.6-32.6,76.2c-1.6,4-1.4,10.1,0.2,14.1c4.9,12,11,23.4,17.6,36.6c-4.5,0.9-7,1.6-9.6,1.9c-30,0-60,0-89.8,0.2
				c-7.3,0-10.3-1.4-9.4-10.1c3.3-30.7,5.4-61.6,8-95.2c-3.3,3.8-5.2,5.4-6.6,7.5c-5.4,7.7-10.1,16.2-15.9,23.4
				c-15,18.5-24.6,38.2-20.2,62.8c1.4,8.4-1.9,11.7-10.8,11.5c-25.1-0.5-50.4-0.2-75.7-0.2c-2.8,0-5.6-0.5-10.5-0.9
				c2.8-15.5,5.4-30.5,8.4-45c17.1-84.6,34.5-169.2,51.8-253.6c0.9-4.5,2.6-9.1,5.2-12.9c30.2-46.6,60.7-93.3,91.6-139.7
				c2.8-4.5,8.2-8.4,13.1-10.1c47.6-16.4,95.4-32.6,143.2-48.5c7.5-2.6,11.2-5.4,12.9-14.3c4-23.7,15.2-41,42.4-45.7
				c24.1-4.2,47.6-12.4,71.5-18c5.2-1.2,11-1.2,16.2,0c22.3,5.2,44.3,11.2,66.3,16.9c15,3.8,23.2,14.1,28.4,27.7
				c1.2,3,2.3,5.9,3.5,8.9C649.5,492.7,650.4,492.4,651.3,492.2z"/>
		</g>
	</g>
	<g>
		<path d="M1050.9,287.1c0.5-3.3,0.9-6.8,0.9-10.3c0-33.3-27-60.2-60.2-60.2c-7.3,0-14.1,1.4-20.6,3.7
			c-19.5-30.5-53.7-50.6-92.3-50.6c-60.7,0-109.9,49.2-109.9,109.9c0,2.8,0.2,5.6,0.5,8.4c-29.3,7.5-51.1,34-51.1,65.6
			c0,37.5,30.2,67.7,67.7,67.7h253.8c37.5,0,67.7-30.2,67.7-67.7C1107.2,320.4,1082.8,292.7,1050.9,287.1L1050.9,287.1z"/>
	</g>
	<g>
		<g>
			<g>
				<defs>
					<rect id="SVGID_1_" x="924.6" y="808.8" width="180.7" height="221.2"/>
				</defs>
				<clipPath id="SVGID_2_">
					<use xlink:href="#SVGID_1_"  overflow="visible"/>
				</clipPath>
				<path clip-path="url(#SVGID_2_)" d="M1014.6,808.8c-49.7,0-90,14.8-90,32.8v27c0,18,40.3,32.8,90,32.8s90-14.8,90-32.8v-27
					C1104.8,823.6,1064.5,808.8,1014.6,808.8L1014.6,808.8z"/>
			</g>
			<g>
				<defs>
					<rect id="SVGID_3_" x="924.6" y="808.8" width="180.7" height="221.2"/>
				</defs>
				<clipPath id="SVGID_4_">
					<use xlink:href="#SVGID_3_"  overflow="visible"/>
				</clipPath>
				<path clip-path="url(#SVGID_4_)" d="M1014.6,917.1c-47.6,0-86.7-13.4-90-30.5c-0.2,0.7,0,44.5,0,44.5c0,18,40.3,32.8,90,32.8
					s90-14.8,90-32.8c0,0,0-43.6,0-44.5C1101.3,903.8,1062.2,917.1,1014.6,917.1L1014.6,917.1z"/>
			</g>
		</g>
		<path d="M1104.6,950.2c-3.5,17.1-42.4,30.5-90,30.5s-86.7-13.4-90-30.5v44.5c0,18,40.3,32.8,90,32.8s90-14.8,90-32.8V950.2z"/>
	</g>
</g>
</svg>
