<?xml version="1.0" encoding="utf-8"?>
<!-- Generator: Adobe Illustrator 18.0.0, SVG Export Plug-In . SVG Version: 6.00 Build 0)  -->
<!DOCTYPE svg PUBLIC "-//W3C//DTD SVG 1.1//EN" "http://www.w3.org/Graphics/SVG/1.1/DTD/svg11.dtd">
<svg version="1.1" id="Layer_1" xmlns="http://www.w3.org/2000/svg" xmlns:xlink="http://www.w3.org/1999/xlink" x="0px" y="0px"
	 viewBox="0 0 512 402" enable-background="new 0 0 512 402" xml:space="preserve">
<g>
	<g id="NqNpyG_1_">
		<g>
			<path fill="#FFFFFF" d="M39.6,384.5c0-84.5,0-168.9,0-253.4c115.3,0,230.7,0,346,0c0,84.5,0,168.9,0,253.4
				C270.3,384.5,154.9,384.5,39.6,384.5z M277.9,155c-0.4,0.1-0.8,0.2-1.2,0.3c-0.5-1.3-1.1-2.5-1.5-3.8
				c-2.2-5.8-5.7-10.2-12.1-11.8c-9.4-2.4-18.9-4.9-28.3-7.2c-2.2-0.5-4.7-0.6-6.9,0c-10.2,2.5-20.2,6-30.5,7.7
				c-11.5,2-16.3,9.4-18.1,19.5c-0.7,3.9-2.3,5.1-5.5,6.1c-20.4,6.8-40.8,13.6-61.1,20.7c-2.1,0.7-4.4,2.4-5.6,4.3
				c-13.1,19.8-26.1,39.7-39.1,59.6c-1.1,1.6-1.8,3.6-2.2,5.5C58.4,291.9,51,328,43.6,364.1c-1.3,6.3-2.4,12.6-3.6,19.2
				c2.1,0.2,3.3,0.4,4.5,0.4c10.8,0,21.5-0.1,32.3,0.1c3.8,0.1,5.3-1.3,4.6-4.9c-1.9-10.5,2.3-19,8.6-26.8c2.5-3.1,4.5-6.7,6.8-10
				c0.6-0.9,1.4-1.6,2.8-3.2c-1.2,14.3-2.1,27.5-3.4,40.6c-0.4,3.7,0.9,4.3,4,4.3c12.8-0.1,25.6,0,38.3-0.1c1.1,0,2.3-0.4,4.1-0.8
				c-2.7-5.6-5.4-10.5-7.5-15.6c-0.7-1.7-0.8-4.3-0.1-6c4.4-10.9,9.1-21.7,13.9-32.5c0.9-2.1,2.7-4.1,4.7-5.3
				c10.9-6.5,22-12.7,33.1-19c1.5-0.9,3.1-1.6,5-2.6c0,1.2,0.1,1.6,0,2.1c-5.6,24.9-11,49.8-16.9,74.7c-1,4.3,0.1,5.2,4,5.1
				c14.3-0.1,28.7,0,43-0.1c1.4,0,2.9-0.3,5.4-0.7c-3.7-5.7-7.1-10.5-10-15.5c-0.9-1.6-1.4-4-1-5.8c1.9-8.3,4.2-16.5,6.3-24.7
				c0.7-2.7,1.4-5.3,2.4-8.9c9,17.8,17.5,34.5,25.9,51.3c1.6,3.2,3.4,4.6,7.2,4.5c10.9-0.3,21.8-0.1,32.7-0.1c1.6,0,3.2-0.2,6.4-0.4
				c-2.3-3-3.8-5-5.3-6.9c-4.8-5.8-11.4-10-13.7-17.9c-8.4-29.1-17-58.2-25.6-87.2c-0.6-2.1-1.3-3.7,1.3-5c4.8-2.5,9.5-5.3,14.4-8.1
				c1.4,3.3,3.1,6.4,4,9.6c1.3,4.6,3.7,4.5,7.1,2.6c2.3-1.3,4.7-2.3,6.3-3.1c9,9.7,17.7,18.9,26.3,28.3c0.8,0.8,1.4,2.5,1.1,3.4
				c-2.6,7.2-6.7,9.1-14.3,7c3.2-7.4,3.2-7.4-3-12.9c-0.7-0.6-1.4-1.3-2-2c-2.6-2.8-4.6-2.9-6.2,1c-1.6,3.9-3,7.9-5.2,11.4
				c-3.5,5.7-2.9,11.5-1.4,17.5c0.6,2.6,1.8,4,4.8,3.9c11.2-0.1,22.4,0.1,33.7-0.2c1.7,0,3.9-1.6,5-3.1c2.9-4.2,5.4-8.7,8.1-13.3
				c1.4,0.6,2.5,1,3.6,1.6c7.9,4.6,16.2,8.2,25.3,8.5c6.9,0.2,13.8-1,20.8-1.8c0.9-0.1,1.6-1.5,2.4-2.3c-1-0.6-2-1.4-3.1-1.9
				c-0.5-0.2-1.2,0-1.9,0c-15.2-0.7-27.9-7.2-39.8-16.2c3.2-5.5,6.5-10.6,9.3-15.9c1.1-2,1.6-4.7,1.4-7c-0.5-6.5-1.6-12.9-2.4-19.4
				c-2.3-19.6-4.5-39.2-6.8-58.7c-0.2-1.9-1.2-3.9-2.3-5.5c-6.6-9.2-13.9-18-19.8-27.6c-4.8-7.7-11-11.9-19.8-13.3
				c-7.1-1.2-14-3.3-21.6-5.1C277.9,148.1,277.9,151.5,277.9,155z"/>
			<path d="M277.9,155c0-3.5,0-7,0-11.2c7.6,1.8,14.6,3.9,21.6,5.1c8.8,1.5,15,5.6,19.8,13.3c6,9.6,13.2,18.4,19.8,27.6
				c1.1,1.6,2.1,3.6,2.3,5.5c2.4,19.6,4.5,39.2,6.8,58.7c0.8,6.5,1.9,12.9,2.4,19.4c0.2,2.3-0.4,4.9-1.4,7
				c-2.8,5.3-6.1,10.4-9.3,15.9c11.9,9,24.7,15.5,39.8,16.2c0.6,0,1.3-0.2,1.9,0c1.1,0.5,2.1,1.3,3.1,1.9c-0.8,0.8-1.5,2.2-2.4,2.3
				c-6.9,0.8-13.9,2-20.8,1.8c-9.1-0.3-17.5-3.9-25.3-8.5c-1-0.6-2.2-1-3.6-1.6c-2.8,4.6-5.2,9.1-8.1,13.3c-1,1.5-3.3,3-5,3.1
				c-11.2,0.3-22.4,0.1-33.7,0.2c-3,0-4.1-1.4-4.8-3.9c-1.5-6-2-11.8,1.4-17.5c2.2-3.5,3.6-7.5,5.2-11.4c1.6-3.9,3.6-3.8,6.2-1
				c0.6,0.7,1.3,1.4,2,2c6.2,5.6,6.2,5.6,3,12.9c7.6,2.1,11.7,0.2,14.3-7c0.3-0.9-0.3-2.6-1.1-3.4c-8.6-9.4-17.3-18.7-26.3-28.3
				c-1.6,0.8-4,1.9-6.3,3.1c-3.4,1.9-5.9,2-7.1-2.6c-0.9-3.2-2.6-6.3-4-9.6c-5,2.8-9.6,5.6-14.4,8.1c-2.6,1.3-1.9,3-1.3,5
				c8.6,29.1,17.2,58.1,25.6,87.2c2.3,7.8,8.9,12.1,13.7,17.9c1.6,1.9,3,3.9,5.3,6.9c-3.2,0.2-4.8,0.4-6.4,0.4
				c-10.9,0-21.8-0.2-32.7,0.1c-3.7,0.1-5.6-1.3-7.2-4.5c-8.4-16.8-16.9-33.5-25.9-51.3c-1,3.6-1.7,6.2-2.4,8.9
				c-2.1,8.2-4.4,16.4-6.3,24.7c-0.4,1.8,0.1,4.2,1,5.8c2.9,5,6.3,9.8,10,15.5c-2.5,0.3-3.9,0.7-5.4,0.7c-14.3,0-28.7-0.1-43,0.1
				c-3.9,0-5-0.8-4-5.1c5.8-24.8,11.3-49.8,16.9-74.7c0.1-0.4,0-0.9,0-2.1c-1.9,1-3.5,1.8-5,2.6c-11.1,6.3-22.2,12.5-33.1,19
				c-1.9,1.2-3.7,3.2-4.7,5.3c-4.8,10.7-9.5,21.6-13.9,32.5c-0.7,1.7-0.6,4.3,0.1,6c2.1,5.1,4.7,10,7.5,15.6c-1.9,0.4-3,0.7-4.1,0.8
				c-12.8,0-25.6,0-38.3,0.1c-3.1,0-4.4-0.6-4-4.3c1.4-13.1,2.3-26.3,3.4-40.6c-1.4,1.6-2.2,2.3-2.8,3.2c-2.3,3.3-4.3,6.9-6.8,10
				c-6.4,7.9-10.5,16.3-8.6,26.8c0.6,3.6-0.8,5-4.6,4.9c-10.7-0.2-21.5-0.1-32.3-0.1c-1.2,0-2.4-0.2-4.5-0.4
				c1.2-6.6,2.3-13,3.6-19.2C51,328,58.4,291.9,65.8,255.9c0.4-1.9,1.1-3.9,2.2-5.5c12.9-19.9,25.9-39.8,39.1-59.6
				c1.2-1.9,3.5-3.6,5.6-4.3c20.3-7,40.7-13.9,61.1-20.7c3.2-1.1,4.8-2.3,5.5-6.1c1.7-10.1,6.5-17.5,18.1-19.5
				c10.3-1.8,20.3-5.3,30.5-7.7c2.2-0.5,4.7-0.5,6.9,0c9.5,2.2,18.9,4.8,28.3,7.2c6.4,1.6,9.9,6,12.1,11.8c0.5,1.3,1,2.5,1.5,3.8
				C277.1,155.2,277.5,155.1,277.9,155z"/>
		</g>
	</g>
	<g>
		<path d="M448.4,67.5c0.2-1.4,0.4-2.9,0.4-4.4c0-14.2-11.5-25.7-25.7-25.7c-3.1,0-6,0.6-8.8,1.6c-8.3-13-22.9-21.6-39.4-21.6
			c-25.9,0-46.9,21-46.9,46.9c0,1.2,0.1,2.4,0.2,3.6c-12.5,3.2-21.8,14.5-21.8,28c0,16,12.9,28.9,28.9,28.9h108.3
			c16,0,28.9-12.9,28.9-28.9C472.4,81.7,462,69.9,448.4,67.5L448.4,67.5z M448.4,67.5"/>
	</g>
	<g>
		<g>
			<defs>
				<rect id="SVGID_1_" x="394.5" y="290.1" width="77.1" height="94.4"/>
			</defs>
			<clipPath id="SVGID_2_">
				<use xlink:href="#SVGID_1_"  overflow="visible"/>
			</clipPath>
			<path clip-path="url(#SVGID_2_)" d="M432.9,290.1c-21.2,0-38.4,6.3-38.4,14v11.5c0,7.7,17.2,14,38.4,14c21.2,0,38.4-6.3,38.4-14
				v-11.5C471.4,296.4,454.2,290.1,432.9,290.1L432.9,290.1z M432.9,290.1"/>
			<path clip-path="url(#SVGID_2_)" d="M432.9,336.3c-20.3,0-37-5.7-38.4-13c-0.1,0.3,0,19,0,19c0,7.7,17.2,14,38.4,14
				c21.2,0,38.4-6.3,38.4-14c0,0,0-18.6,0-19C469.9,330.6,453.2,336.3,432.9,336.3L432.9,336.3z M432.9,336.3"/>
		</g>
		<path d="M471.3,350.4c-1.5,7.3-18.1,13-38.4,13c-20.3,0-37-5.7-38.4-13v19c0,7.7,17.2,14,38.4,14c21.2,0,38.4-6.3,38.4-14
			L471.3,350.4z M471.3,350.4"/>
	</g>
</g>
</svg>
