<?xml version="1.0" encoding="utf-8"?>
<!-- Generator: Adobe Illustrator 18.0.0, SVG Export Plug-In . SVG Version: 6.00 Build 0)  -->
<!DOCTYPE svg PUBLIC "-//W3C//DTD SVG 1.1//EN" "http://www.w3.org/Graphics/SVG/1.1/DTD/svg11.dtd">
<svg version="1.1" id="Layer_1" xmlns="http://www.w3.org/2000/svg" xmlns:xlink="http://www.w3.org/1999/xlink" x="0px" y="0px"
	 viewBox="0 0 1019.7 563.7" enable-background="new 0 0 1019.7 563.7" xml:space="preserve">
<g>
	<g>
		<path fill="#FFFFFF" d="M512.5,148.7c-0.1,0.2-0.3,0.3-0.3,0.4c-1.4,5.6-2.7,11.1-4.1,16.7c-0.2,0.7,0.1,0.9,0.7,1.1
			c1.8,0.7,3.7,1.5,5.5,2.1c8.2,2.5,16.6,3,25.1,2c5-0.6,9.8-2,14.2-4.7c8-5,10.7-13.2,9.6-21.3c-0.9-6.3-4.4-10.9-9.8-14.2
			c-3.8-2.3-7.9-3.5-12-5c-2.1-0.8-4.1-1.6-6-2.8c-2.2-1.4-1.9-4.2,0.5-5.3c1.1-0.5,2.5-0.8,3.8-0.9c4.7-0.3,9.1,0.9,13.4,2.5
			c1,0.4,2,0.8,3.1,1.2c0.1-0.2,0.2-0.3,0.2-0.4c1.2-5,2.4-9.9,3.6-14.9c0.5-1.9,0.4-2-1.5-2.6c-7.5-2.6-15.3-3.7-23.2-2.9
			c-6.4,0.6-12.4,2.4-17.4,6.5c-6.5,5.3-9.1,12.2-7.9,20.5c0.7,4.6,3.3,8.1,6.7,11c3.8,3.1,8.2,5,12.8,6.6c2.5,0.9,5,1.8,7.4,2.9
			c1.8,0.8,2.4,2.1,2.1,3.7c-0.3,1.6-1.5,2.3-3,2.7c-3.8,0.9-7.6,0.4-11.4-0.4C520.4,152.1,516.3,150.7,512.5,148.7z"/>
		<path fill="#96A0A7" d="M302.9,100.8c7.1,0,14.2,0,21.4,0c0.4,3,0.7,5.8,1.1,9.1c0.5-0.7,0.9-1,1.2-1.4c4.8-6,11-8.9,18.6-9.2
			c4.2-0.1,8.3,0.5,12.1,2.5c3.3,1.8,5.8,4.3,7.4,7.7c0.1,0.2,0.2,0.4,0.3,0.5c0,0.1,0.1,0.1,0.2,0.2c0.3-0.4,0.6-0.7,0.9-1.1
			c5.4-6.5,12.2-9.9,20.6-10c5.7,0,10.9,1.3,15.3,5.2c3.9,3.5,6.2,8,7.2,13c0.8,3.6,1.3,7.3,1.3,10.9c0.2,13.6,0.1,27.2,0.1,40.8
			c0,0.2,0,0.5,0,0.8c-8.2,0-16.3,0-24.7,0c0-0.4,0-0.8,0-1.3c0-12,0-24,0-36.1c0-2.8-0.3-5.6-1.5-8.2c-1.1-2.5-2.8-4.2-5.6-4.5
			c-3.2-0.4-5.8,0.7-7.6,3.5c-1.5,2.3-1.8,4.9-1.8,7.6c0,12.5,0,25.1,0,37.6c0,0.5,0,0.9,0,1.5c-8.2,0-16.4,0-24.7,0
			c0-0.5,0-1,0-1.4c0-12,0.1-24,0-36.1c0-2.4-0.4-4.8-1-7.1c-0.8-3.1-2.8-5.2-6.2-5.6c-3.5-0.3-6.4,1.3-8.1,4.5
			c-1,1.9-1.2,3.9-1.2,6c0,12.7,0,25.5,0,38.2c0,0.5,0,0.9,0,1.5c-8.2,0-16.4,0-24.7,0c0-0.4,0-0.9,0-1.3c0-16.5,0-33-0.1-49.5
			c0-5.5-0.3-10.9-0.4-16.4c0-0.4-0.1-0.8-0.2-1.3C302.9,101.2,302.9,101,302.9,100.8z"/>
		<path fill="#96A0A7" d="M512.5,148.7c3.9,2,7.9,3.4,12.2,4.3c3.8,0.8,7.6,1.3,11.4,0.4c1.5-0.4,2.7-1.1,3-2.7
			c0.3-1.6-0.3-2.9-2.1-3.7c-2.4-1.1-4.9-2-7.4-2.9c-4.6-1.6-9-3.5-12.8-6.6c-3.5-2.9-6.1-6.4-6.7-11c-1.2-8.3,1.4-15.2,7.9-20.5
			c5-4.1,11-5.9,17.4-6.5c8-0.7,15.7,0.3,23.2,2.9c1.9,0.7,1.9,0.7,1.5,2.6c-1.2,5-2.4,9.9-3.6,14.9c0,0.1-0.1,0.2-0.2,0.4
			c-1-0.4-2-0.8-3.1-1.2c-4.3-1.6-8.8-2.7-13.4-2.5c-1.3,0.1-2.6,0.3-3.8,0.9c-2.4,1.1-2.7,3.9-0.5,5.3c1.8,1.2,3.9,2.1,6,2.8
			c4.1,1.5,8.3,2.7,12,5c5.4,3.3,8.9,7.8,9.8,14.2c1.2,8.1-1.6,16.3-9.6,21.3c-4.3,2.7-9.1,4.1-14.2,4.7c-8.5,1-16.9,0.5-25.1-2
			c-1.9-0.6-3.7-1.4-5.5-2.1c-0.5-0.2-0.9-0.5-0.7-1.1c1.4-5.6,2.7-11.1,4.1-16.7C512.2,149,512.3,148.9,512.5,148.7z"/>
		<path fill="#96A0A7" d="M451.5,165.2c0,10.9,0,21.7,0,32.6c-8.5,0-17,0-25.6,0c0-0.4,0-0.8,0-1.2c0-24.5,0.1-48.9,0-73.4
			c0-7.1-0.4-14.3-0.6-21.4c0-0.7,0.1-1,0.9-1c6.7,0,13.5,0,20.2,0c0.7,0,0.9,0.2,1,0.9c0.3,2.6,0.7,5.2,1,7.7
			c0.1,0.1,0.3,0.3,0.4,0.4c0.2-0.4,0.3-0.8,0.6-1.1c4.6-5.5,10.6-8.3,17.7-9.2c13.6-1.7,24,6.4,28.8,17c2.4,5.4,3.5,11,3.6,16.9
			c0.1,7-0.8,13.7-3.8,20.1c-4.8,10.1-12.7,16.2-23.8,17.8c-6.3,0.9-12.4,0-17.8-3.8C453.2,166.9,452.4,166,451.5,165.2z
			 M451.3,135.3c0.1,2.7,0.1,5.3,0.4,7.9c0.6,4.1,2.8,7,6.7,8.5c5.1,1.9,10.9-0.6,13.3-6c3-6.6,2.8-13.3,0.1-19.9
			c-1.9-4.7-6.3-7.1-11.1-6.5c-4.5,0.5-8.2,4-9,8.8C451.3,130.5,451.4,132.9,451.3,135.3z"/>
		<path fill="#12A24C" d="M373.5,249c1.3,0.5,2.4,0.8,3.4,1.2c9.4,3.6,16.1,9.9,18.3,20c2.7,12.8-1.5,23.2-11.7,31.3
			c-5.5,4.4-12,6.5-18.7,8c-10.4,2.2-20.9,2.6-31.4,2.4c-6.1-0.1-12.2-0.4-18.3-0.8c-2.9-0.2-5.8-0.7-8.8-1.1c0-0.5-0.1-1-0.1-1.4
			c0-36.3,0-72.7,0-109c0-0.9,0.2-1.2,1.2-1.3c14-2,28.1-2.6,42.2-2.2c6.6,0.2,13.1,0.6,19.5,2.5c6.2,1.8,11.9,4.4,16.4,9.1
			c8.2,8.5,9.1,22.1,2.1,31.4c-3.3,4.4-7.8,7.2-12.8,9.3C374.4,248.6,374,248.8,373.5,249z M336.5,289.3c0.4,0.1,0.8,0.2,1.2,0.2
			c2.7,0.1,5.5,0.2,8.2,0.1c4-0.1,7.9-0.7,11.4-2.7c7.1-3.9,8.9-13.8,3.5-19.5c-2.5-2.7-5.9-3.9-9.5-4.6c-4.8-0.9-9.7-0.7-14.6-0.7
			c-0.1,0-0.2,0.1-0.3,0.2C336.5,271.3,336.5,280.2,336.5,289.3z M336.5,218.6c0,7.4,0,14.6,0,21.9c0.4,0,0.7,0.1,1,0.1
			c3.2-0.1,6.5-0.1,9.7-0.2c3.1-0.2,6.2-0.9,9-2.5c5.4-3,7.2-9.5,3.9-14.6c-1.8-2.8-4.6-4-7.7-4.6
			C347.1,217.5,341.9,218,336.5,218.6z"/>
		<path fill="#12A24C" d="M411.5,310.6c-0.3-27.7,0.5-55.3-0.6-82.9c8.5,0,17.1,0,25.9,0c0.4,5,0.8,9.9,1.2,14.9
			c0.1,0.1,0.2,0.1,0.4,0.2c0.2-0.4,0.5-0.7,0.6-1.1c2-5.1,5.1-9.3,9.7-12.3c5.3-3.4,11-4.2,17.1-3.4c0.7,0.1,1.1,0.4,1.1,1.2
			c0,8.9,0,17.8,0,26.8c0,0.2-0.1,0.4-0.1,0.4c-3.4-0.1-6.8-0.5-10.1-0.3c-5.3,0.3-9.9,2-12.9,6.8c-1.8,2.8-1.8,6-1.8,9.1
			c0,13,0,26.1,0,39.1c0,0.5,0,0.9,0,1.5C431.7,310.6,421.7,310.6,411.5,310.6z"/>
		<path fill-rule="evenodd" clip-rule="evenodd" fill="#19171C" stroke="#19171C" stroke-width="0.1199" stroke-miterlimit="10" d="
			M640.6,342.7c6-7.6,15-23,27.6-39.7c14.5-19.2,33.2-40.6,48.6-60.1c-15.3-1-27.4,4-36.4,14.5c-3.2,3.4-5.9,6.9-8.4,10.5
			c-17.1,19.7-39.8,52.2-43.4,62.3c-5-0.9-9.1-6.4-11.7-19.2c-14-1.5-11.1,3.5-18.7,5.7c-1.4,13.7,0.7,25.4,6.8,34.7
			c2.2,3.7,3.4,7.1,4.1,10l15.7,0.6C630.9,356.6,636.1,350,640.6,342.7L640.6,342.7z"/>
		<g>
			<path fill="#19171C" d="M496.3,240.1l-6.3-17.3l5.2-1.9l7.4,10.7l-1.2-12.9l5.2-1.9l6.3,17.3l-3.2,1.2l-4.9-13.6l1.5,14.9
				l-3.4,1.2l-8.4-12.4l4.9,13.6L496.3,240.1z"/>
		</g>
		<g>
			<path fill="#19171C" d="M521.6,226.8l3.5-0.6c0,1.4-0.3,2.5-1,3.5c-0.7,1-1.7,1.7-3.1,2.2c-2.2,0.8-4.1,0.6-5.6-0.4
				c-1.2-0.8-2.2-2.1-2.8-3.9c-0.8-2.1-0.8-3.9-0.1-5.5c0.7-1.6,1.8-2.6,3.5-3.2c1.9-0.7,3.6-0.6,5.1,0.3c1.5,0.8,2.7,2.5,3.6,5.1
				l-8.3,3c0.4,1,0.9,1.6,1.6,2c0.7,0.4,1.4,0.4,2.2,0.1c0.5-0.2,0.9-0.5,1.2-0.9C521.5,228.1,521.6,227.5,521.6,226.8z
				 M520.6,223.4c-0.4-1-0.9-1.6-1.5-1.9c-0.7-0.3-1.3-0.4-2-0.1c-0.7,0.3-1.2,0.7-1.5,1.4c-0.3,0.7-0.3,1.5,0.1,2.4L520.6,223.4z"
				/>
		</g>
		<g>
			<path fill="#19171C" d="M529.3,228l-6.3-17.3l3.3-1.2l6.3,17.3L529.3,228z"/>
		</g>
		<g>
			<path fill="#19171C" d="M534.3,207l2.3,6.4c0.6-1.6,1.7-2.7,3.2-3.3c0.8-0.3,1.5-0.4,2.2-0.3c0.7,0.1,1.3,0.3,1.8,0.6
				c0.5,0.3,0.9,0.7,1.2,1.2c0.3,0.5,0.7,1.3,1.1,2.4l2.7,7.4l-3.3,1.2L543,216c-0.5-1.3-0.8-2.1-1.1-2.4c-0.3-0.3-0.6-0.5-1-0.6
				c-0.4-0.1-0.8-0.1-1.3,0.1c-0.6,0.2-1,0.5-1.3,0.9c-0.3,0.4-0.5,0.9-0.5,1.6c0,0.6,0.2,1.4,0.6,2.5l2.3,6.3l-3.3,1.2l-6.3-17.3
				L534.3,207z"/>
		</g>
		<g>
			<path fill="#19171C" d="M549.2,213.6c-0.4-1.1-0.5-2.3-0.3-3.5c0.2-1.2,0.7-2.3,1.5-3.2c0.8-0.9,1.8-1.6,3-2
				c1.9-0.7,3.7-0.6,5.3,0.2c1.7,0.8,2.8,2.1,3.5,4c0.7,1.9,0.6,3.7-0.1,5.4c-0.8,1.7-2.1,2.9-3.9,3.5c-1.2,0.4-2.3,0.5-3.6,0.4
				c-1.2-0.1-2.3-0.6-3.2-1.4C550.4,216.2,549.7,215.1,549.2,213.6z M552.7,212.6c0.4,1.2,1.1,2.1,1.9,2.5c0.8,0.4,1.7,0.5,2.5,0.2
				c0.9-0.3,1.5-0.9,1.8-1.8c0.3-0.9,0.3-1.9-0.2-3.2c-0.4-1.2-1.1-2.1-1.9-2.5c-0.8-0.5-1.7-0.5-2.5-0.2c-0.9,0.3-1.5,0.9-1.8,1.8
				C552.2,210.3,552.2,211.3,552.7,212.6z"/>
		</g>
		<g>
			<path fill="#19171C" d="M569.9,213.9l-3.3,1.2l-4.5-12.5l3.1-1.1l0.6,1.8c0.2-1,0.5-1.8,0.8-2.2c0.3-0.4,0.8-0.7,1.3-0.9
				c0.8-0.3,1.6-0.3,2.4-0.2l0,3.3c-0.7-0.2-1.3-0.2-1.8,0c-0.5,0.2-0.8,0.4-1,0.8c-0.2,0.4-0.3,0.9-0.3,1.7
				c0.1,0.7,0.5,2.2,1.2,4.3L569.9,213.9z"/>
		</g>
		<g>
			<path fill="#19171C" d="M571.6,196.9l-1.1-3.1l3.3-1.2l1.1,3.1L571.6,196.9z M576.7,211.2l-4.5-12.5l3.3-1.2L580,210L576.7,211.2
				z"/>
		</g>
		<g>
			<path fill="#19171C" d="M582.6,199.4l-3.2,0.5c-0.1-1.3,0.2-2.4,0.8-3.3c0.6-0.9,1.7-1.6,3.4-2.2c1.5-0.5,2.6-0.8,3.5-0.7
				c0.9,0.1,1.5,0.4,2,0.8c0.5,0.4,1,1.4,1.5,2.8l1.4,3.9c0.4,1.1,0.7,1.9,1,2.4c0.3,0.5,0.7,1,1.2,1.5l-3.3,1.2
				c-0.2-0.2-0.4-0.5-0.7-0.9c-0.1-0.2-0.2-0.3-0.3-0.3c-0.4,0.8-0.8,1.4-1.4,1.9c-0.5,0.5-1.2,0.9-1.9,1.2c-1.3,0.5-2.4,0.5-3.4,0
				c-1-0.4-1.7-1.2-2.1-2.3c-0.3-0.7-0.3-1.4-0.2-2.1c0.1-0.7,0.5-1.3,1-1.8c0.5-0.5,1.3-1.1,2.4-1.7c1.4-0.8,2.4-1.5,2.9-2
				l-0.1-0.3c-0.2-0.6-0.6-1-1-1.2c-0.4-0.2-1.1-0.1-1.9,0.2c-0.6,0.2-1,0.5-1.3,0.8C582.7,198.2,582.5,198.7,582.6,199.4z
				 M588,200.5c-0.4,0.3-1,0.7-1.8,1.2c-0.9,0.5-1.4,0.9-1.6,1.2c-0.3,0.5-0.4,0.9-0.2,1.4c0.2,0.5,0.5,0.8,1,1c0.5,0.2,1,0.2,1.5,0
				c0.6-0.2,1.1-0.6,1.5-1.2c0.3-0.4,0.4-0.9,0.4-1.4c0-0.3-0.2-0.9-0.5-1.7L588,200.5z"/>
		</g>
		<g>
			<path fill="#19171C" d="M615.7,197.9l-3.1,1.1l-0.7-1.8c-0.3,0.9-0.7,1.6-1.2,2.2c-0.6,0.6-1.2,1-1.9,1.3
				c-1.4,0.5-2.9,0.4-4.3-0.4c-1.4-0.8-2.5-2.2-3.3-4.3c-0.8-2.1-0.9-3.9-0.3-5.4c0.6-1.5,1.7-2.5,3.2-3c1.4-0.5,2.8-0.4,4.3,0.4
				l-2.3-6.2l3.3-1.2L615.7,197.9z M604.4,194.5c0.5,1.3,1,2.2,1.6,2.7c0.8,0.7,1.8,0.8,2.7,0.5c0.8-0.3,1.3-0.8,1.6-1.7
				s0.2-1.9-0.2-3.2c-0.5-1.4-1.2-2.4-1.9-2.8c-0.7-0.4-1.5-0.5-2.3-0.2c-0.8,0.3-1.3,0.8-1.6,1.6
				C603.9,192.2,604,193.2,604.4,194.5z"/>
		</g>
		<g>
			<path fill="#19171C" d="M625,189.7l3.5-0.6c0,1.4-0.3,2.5-1,3.5c-0.7,1-1.7,1.7-3.1,2.2c-2.2,0.8-4.1,0.6-5.6-0.4
				c-1.2-0.8-2.2-2.1-2.8-3.9c-0.8-2.1-0.8-3.9-0.1-5.5c0.7-1.6,1.8-2.6,3.5-3.2c1.9-0.7,3.6-0.6,5.1,0.3c1.5,0.8,2.7,2.5,3.6,5.1
				l-8.3,3c0.4,1,0.9,1.6,1.6,2c0.7,0.4,1.4,0.4,2.2,0.1c0.5-0.2,0.9-0.5,1.2-0.9C624.9,190.9,625,190.4,625,189.7z M624,186.3
				c-0.4-1-0.9-1.6-1.5-1.9c-0.7-0.3-1.3-0.4-2-0.1c-0.7,0.3-1.2,0.7-1.5,1.4c-0.3,0.7-0.3,1.5,0.1,2.4L624,186.3z"/>
		</g>
		<g>
			<path fill="#19171C" d="M506,268.9l-6.3-17.3l5.6-2c2.1-0.8,3.5-1.2,4.3-1.2c1.1-0.1,2.1,0.2,3.1,0.8c1,0.6,1.7,1.6,2.2,3
				c0.4,1.1,0.5,2,0.4,2.9c-0.1,0.9-0.4,1.6-0.9,2.2c-0.4,0.6-1,1.1-1.5,1.5c-0.8,0.5-2,1-3.5,1.5l-2.3,0.8l2.4,6.5L506,268.9z
				 M504.3,253.3l1.8,4.9l1.9-0.7c1.4-0.5,2.3-0.9,2.7-1.3c0.4-0.3,0.7-0.8,0.8-1.2c0.1-0.5,0.1-1-0.1-1.5c-0.2-0.6-0.6-1.1-1.1-1.4
				c-0.5-0.3-1.1-0.4-1.7-0.3c-0.4,0.1-1.3,0.3-2.6,0.8L504.3,253.3z"/>
		</g>
		<g>
			<path fill="#19171C" d="M525.7,261.8l-3.3,1.2l-4.5-12.5l3.1-1.1l0.6,1.8c0.2-1,0.5-1.8,0.8-2.2c0.3-0.4,0.8-0.7,1.3-0.9
				c0.8-0.3,1.6-0.3,2.4-0.2l0,3.3c-0.7-0.2-1.3-0.2-1.8,0c-0.5,0.2-0.8,0.4-1,0.8c-0.2,0.4-0.3,0.9-0.3,1.7
				c0.1,0.7,0.5,2.2,1.2,4.3L525.7,261.8z"/>
		</g>
		<g>
			<path fill="#19171C" d="M529.4,253c-0.4-1.1-0.5-2.3-0.3-3.5c0.2-1.2,0.7-2.3,1.5-3.2c0.8-0.9,1.8-1.6,3-2
				c1.9-0.7,3.7-0.6,5.3,0.2c1.7,0.8,2.8,2.1,3.5,4c0.7,1.9,0.6,3.7-0.1,5.4c-0.8,1.7-2.1,2.9-3.9,3.5c-1.1,0.4-2.3,0.5-3.6,0.4
				c-1.2-0.1-2.3-0.6-3.2-1.4C530.6,255.5,529.9,254.4,529.4,253z M532.9,251.9c0.4,1.2,1.1,2.1,1.9,2.5c0.8,0.5,1.7,0.5,2.5,0.2
				c0.9-0.3,1.5-0.9,1.8-1.8s0.3-1.9-0.2-3.2c-0.4-1.2-1.1-2.1-1.9-2.5c-0.8-0.5-1.7-0.5-2.5-0.2c-0.9,0.3-1.5,0.9-1.8,1.8
				C532.4,249.6,532.4,250.7,532.9,251.9z"/>
		</g>
		<g>
			<path fill="#19171C" d="M555.2,240.7l-3.1,1.8c-0.3-0.6-0.8-1-1.3-1.2c-0.5-0.2-1.1-0.2-1.7,0c-0.8,0.3-1.4,0.8-1.7,1.6
				c-0.3,0.7-0.2,1.8,0.3,3.1c0.5,1.5,1.2,2.4,1.9,2.9c0.7,0.4,1.5,0.5,2.3,0.2c0.6-0.2,1.1-0.6,1.4-1.1c0.3-0.5,0.3-1.2,0.2-2.2
				l3.5-0.6c0.2,1.6,0,3-0.7,4.1c-0.7,1.1-1.8,2-3.4,2.5c-1.8,0.7-3.5,0.6-5-0.2c-1.5-0.8-2.6-2.2-3.4-4.2c-0.7-2.1-0.8-3.9-0.1-5.4
				c0.7-1.5,1.9-2.7,3.8-3.3c1.5-0.5,2.9-0.7,4-0.3C553.3,238.7,554.3,239.5,555.2,240.7z"/>
		</g>
		<g>
			<path fill="#19171C" d="M566.3,242.4l3.5-0.6c0,1.4-0.3,2.5-1,3.5c-0.7,1-1.7,1.7-3.1,2.2c-2.2,0.8-4.1,0.6-5.6-0.4
				c-1.2-0.8-2.2-2.1-2.8-3.9c-0.8-2.1-0.8-3.9-0.1-5.5c0.7-1.6,1.8-2.6,3.5-3.2c1.9-0.7,3.6-0.6,5.1,0.3c1.5,0.8,2.7,2.5,3.6,5.1
				l-8.3,3c0.4,1,0.9,1.6,1.6,2c0.7,0.4,1.4,0.4,2.2,0.1c0.5-0.2,0.9-0.5,1.2-0.9C566.2,243.7,566.3,243.1,566.3,242.4z M565.3,239
				c-0.4-1-0.9-1.6-1.5-1.9c-0.7-0.3-1.3-0.4-2-0.1c-0.7,0.3-1.2,0.7-1.5,1.4c-0.3,0.7-0.3,1.5,0.1,2.4L565.3,239z"/>
		</g>
		<g>
			<path fill="#19171C" d="M571.5,240.5l3.1-1.7c0.4,0.6,0.8,1,1.4,1.2c0.6,0.2,1.2,0.1,2-0.2c0.9-0.3,1.4-0.7,1.8-1.2
				c0.2-0.3,0.3-0.7,0.1-1c-0.1-0.3-0.2-0.4-0.5-0.5c-0.2-0.1-0.6-0.1-1.3,0c-2.9,0.4-4.8,0.4-5.7,0.2c-1.2-0.3-2.1-1.1-2.5-2.3
				c-0.4-1.1-0.3-2.2,0.3-3.2c0.6-1,1.8-1.9,3.6-2.5c1.7-0.6,3.1-0.8,4.1-0.5c1,0.3,1.9,0.9,2.6,1.9l-2.9,1.7
				c-0.3-0.4-0.7-0.7-1.2-0.8c-0.5-0.1-1-0.1-1.7,0.2c-0.9,0.3-1.5,0.7-1.7,1c-0.2,0.3-0.2,0.5-0.1,0.8c0.1,0.2,0.3,0.4,0.5,0.5
				c0.4,0.1,1.5,0.1,3.4-0.2c1.9-0.2,3.3-0.2,4.2,0.1c0.9,0.3,1.5,1,1.9,2.1c0.4,1.1,0.3,2.3-0.4,3.5c-0.7,1.2-1.9,2.1-3.8,2.8
				c-1.7,0.6-3.2,0.8-4.4,0.4C573.3,242.2,572.3,241.5,571.5,240.5z"/>
		</g>
		<g>
			<path fill="#19171C" d="M586,235.7l3.1-1.7c0.4,0.6,0.8,1,1.4,1.2c0.6,0.2,1.2,0.1,2-0.1c0.9-0.3,1.4-0.7,1.8-1.2
				c0.2-0.3,0.3-0.7,0.1-1c-0.1-0.3-0.2-0.4-0.5-0.5c-0.2-0.1-0.6-0.1-1.3,0c-2.9,0.4-4.8,0.4-5.7,0.2c-1.2-0.3-2.1-1.1-2.5-2.3
				c-0.4-1.1-0.3-2.2,0.3-3.2c0.6-1,1.8-1.9,3.6-2.5c1.7-0.6,3.1-0.8,4.1-0.5c1,0.3,1.9,0.9,2.6,1.9l-2.9,1.7
				c-0.3-0.4-0.7-0.7-1.2-0.8c-0.5-0.1-1-0.1-1.7,0.2c-0.9,0.3-1.5,0.7-1.7,1c-0.2,0.3-0.2,0.5-0.1,0.8c0.1,0.2,0.3,0.4,0.5,0.5
				c0.4,0.1,1.5,0.1,3.4-0.2c1.9-0.2,3.3-0.2,4.2,0.1c0.9,0.3,1.5,1,1.9,2.1c0.4,1.1,0.3,2.3-0.4,3.5c-0.7,1.2-1.9,2.1-3.8,2.8
				c-1.7,0.6-3.2,0.8-4.4,0.4C587.7,237.5,586.7,236.8,586,235.7z"/>
		</g>
		<g>
			<path fill="#19171C" d="M598.3,228.2c-0.4-1.1-0.5-2.3-0.3-3.5c0.2-1.2,0.7-2.3,1.5-3.2c0.8-0.9,1.8-1.6,3-2
				c1.9-0.7,3.7-0.6,5.3,0.2c1.7,0.8,2.8,2.1,3.5,4c0.7,1.9,0.6,3.7-0.1,5.4c-0.8,1.7-2.1,2.9-3.9,3.5c-1.1,0.4-2.3,0.5-3.6,0.4
				c-1.2-0.1-2.3-0.6-3.2-1.4C599.5,230.8,598.8,229.7,598.3,228.2z M601.8,227.2c0.4,1.2,1.1,2.1,1.9,2.5c0.8,0.4,1.7,0.5,2.5,0.2
				c0.9-0.3,1.5-0.9,1.8-1.8c0.3-0.9,0.3-1.9-0.2-3.2c-0.4-1.2-1.1-2.1-1.9-2.5c-0.8-0.5-1.7-0.5-2.5-0.2s-1.5,0.9-1.8,1.8
				C601.3,224.9,601.3,225.9,601.8,227.2z"/>
		</g>
		<g>
			<path fill="#19171C" d="M527.7,292.8l-3.1,1.1l-0.7-1.8c-0.3,0.9-0.7,1.6-1.2,2.2c-0.6,0.6-1.2,1-1.9,1.3
				c-1.4,0.5-2.9,0.4-4.3-0.4c-1.4-0.8-2.5-2.2-3.3-4.3c-0.8-2.1-0.9-3.9-0.3-5.4c0.6-1.5,1.7-2.5,3.2-3c1.4-0.5,2.8-0.4,4.3,0.4
				l-2.3-6.2l3.3-1.2L527.7,292.8z M516.5,289.5c0.5,1.3,1,2.2,1.6,2.7c0.8,0.7,1.8,0.8,2.7,0.5c0.8-0.3,1.3-0.8,1.6-1.7
				c0.3-0.8,0.2-1.9-0.2-3.2c-0.5-1.4-1.2-2.4-1.9-2.8c-0.7-0.4-1.5-0.5-2.3-0.2c-0.8,0.3-1.3,0.8-1.6,1.6
				C516,287.2,516,288.2,516.5,289.5z"/>
		</g>
		<g>
			<path fill="#19171C" d="M528.1,285c-0.4-1.1-0.5-2.3-0.3-3.5c0.2-1.2,0.7-2.3,1.5-3.2s1.8-1.6,3-2c1.9-0.7,3.7-0.6,5.3,0.2
				c1.7,0.8,2.8,2.1,3.5,4c0.7,1.9,0.6,3.7-0.1,5.4c-0.8,1.7-2.1,2.9-3.9,3.5c-1.1,0.4-2.3,0.5-3.6,0.4c-1.2-0.1-2.3-0.6-3.2-1.4
				C529.4,287.6,528.6,286.5,528.1,285z M531.6,284c0.4,1.2,1.1,2.1,1.9,2.5c0.8,0.4,1.7,0.5,2.5,0.2c0.9-0.3,1.5-0.9,1.8-1.8
				c0.3-0.9,0.3-1.9-0.2-3.2c-0.4-1.2-1.1-2.1-1.9-2.5c-0.8-0.5-1.7-0.5-2.5-0.2c-0.9,0.3-1.5,0.9-1.8,1.8
				C531.1,281.7,531.1,282.7,531.6,284z"/>
		</g>
		<g>
			<path fill="#19171C" d="M549.8,278l3.3-1.6c0.6,1.1,1.3,1.8,2.2,2.1c0.8,0.3,1.8,0.3,2.8-0.1c1.1-0.4,1.9-0.9,2.3-1.6
				c0.4-0.7,0.5-1.3,0.3-2c-0.1-0.4-0.4-0.7-0.7-0.9c-0.3-0.2-0.9-0.3-1.5-0.3c-0.5,0-1.5,0.1-3.1,0.2c-2,0.2-3.6,0.1-4.6-0.3
				c-1.4-0.6-2.4-1.5-2.9-2.9c-0.3-0.9-0.4-1.8-0.1-2.7c0.2-0.9,0.7-1.8,1.5-2.5c0.8-0.7,1.9-1.3,3.2-1.8c2.2-0.8,4-0.9,5.4-0.3
				c1.4,0.6,2.5,1.6,3.1,3.2l-3.4,1.4c-0.5-0.8-1-1.4-1.7-1.6c-0.6-0.2-1.4-0.1-2.4,0.2c-1,0.4-1.7,0.9-2.2,1.5
				c-0.3,0.4-0.3,0.8-0.2,1.3c0.1,0.4,0.4,0.7,0.9,0.9c0.6,0.2,1.8,0.2,3.6,0s3.3-0.2,4.2-0.1c1,0.1,1.8,0.5,2.5,1.1
				c0.7,0.6,1.3,1.4,1.7,2.5c0.4,1,0.4,2,0.2,3.1c-0.2,1.1-0.8,2-1.6,2.8c-0.9,0.8-2,1.4-3.5,2c-2.2,0.8-4.1,0.9-5.6,0.3
				C552,281.1,550.8,279.9,549.8,278z"/>
		</g>
		<g>
			<path fill="#19171C" d="M566.1,271.1c-0.4-1.1-0.5-2.3-0.3-3.5c0.2-1.2,0.7-2.3,1.5-3.2c0.8-0.9,1.8-1.6,3-2
				c1.9-0.7,3.7-0.6,5.3,0.2c1.7,0.8,2.8,2.1,3.5,4c0.7,1.9,0.6,3.7-0.1,5.4c-0.8,1.7-2.1,2.9-3.9,3.5c-1.2,0.4-2.3,0.5-3.6,0.4
				c-1.2-0.1-2.3-0.6-3.2-1.4C567.4,273.7,566.6,272.6,566.1,271.1z M569.6,270.1c0.4,1.2,1.1,2.1,1.9,2.5c0.8,0.4,1.7,0.5,2.5,0.2
				c0.9-0.3,1.5-0.9,1.8-1.8c0.3-0.9,0.3-1.9-0.2-3.2c-0.4-1.2-1.1-2.1-1.9-2.5c-0.8-0.5-1.7-0.5-2.5-0.2c-0.9,0.3-1.5,0.9-1.8,1.8
				C569.1,267.8,569.1,268.8,569.6,270.1z"/>
		</g>
		<g>
			<path fill="#19171C" d="M577.7,260.5l1.8-0.7l-0.3-0.9c-0.4-1.1-0.6-1.9-0.5-2.5c0-0.6,0.3-1.2,0.8-1.7c0.5-0.5,1.2-1,2.1-1.3
				c0.9-0.3,1.9-0.5,2.9-0.6l0.4,2.5c-0.6,0.1-1.1,0.2-1.6,0.4c-0.5,0.2-0.8,0.4-0.9,0.7c-0.1,0.3-0.1,0.8,0.2,1.4l0.3,0.9l2.5-0.9
				l0.9,2.6l-2.5,0.9l3.6,9.9l-3.3,1.2l-3.6-9.9l-1.8,0.7L577.7,260.5z"/>
		</g>
		<g>
			<path fill="#19171C" d="M593.4,254.5l1,2.6l-2.3,0.8l1.8,5.1c0.4,1,0.6,1.6,0.7,1.8c0.1,0.2,0.3,0.3,0.4,0.3c0.2,0.1,0.4,0,0.6,0
				c0.3-0.1,0.7-0.4,1.2-0.8l1.2,2.5c-0.7,0.6-1.5,1.1-2.4,1.4c-0.6,0.2-1.2,0.3-1.7,0.3c-0.6,0-1-0.2-1.3-0.4
				c-0.3-0.2-0.7-0.6-0.9-1.1c-0.2-0.4-0.5-1.1-1-2.3l-2-5.5l-1.5,0.5l-1-2.6l1.5-0.5l-0.9-2.5l2.6-3.1l1.6,4.4L593.4,254.5z"/>
		</g>
		<g>
			<path fill="#19171C" d="M603.1,264.8l-8.5-11.1l3.2-1.2l5.3,7.4l-0.8-9l3.2-1.1l5.1,7.5l-0.6-9.1l3.3-1.2l0.5,14l-3.2,1.1
				l-5.1-7.3l0.8,8.8L603.1,264.8z"/>
		</g>
		<g>
			<path fill="#19171C" d="M618.9,250.2l-3.2,0.5c-0.1-1.3,0.2-2.4,0.8-3.3s1.7-1.6,3.4-2.2c1.5-0.5,2.6-0.7,3.5-0.7
				c0.9,0.1,1.5,0.4,2,0.8c0.5,0.4,1,1.4,1.5,2.8l1.4,3.9c0.4,1.1,0.7,1.9,1,2.4c0.3,0.5,0.7,1,1.2,1.5l-3.3,1.2
				c-0.2-0.2-0.4-0.5-0.7-0.9c-0.1-0.2-0.2-0.3-0.3-0.3c-0.4,0.8-0.8,1.4-1.4,1.9c-0.5,0.5-1.2,0.9-1.9,1.2c-1.3,0.5-2.4,0.5-3.4,0
				c-1-0.4-1.7-1.2-2.1-2.3c-0.3-0.7-0.3-1.4-0.2-2.1c0.1-0.7,0.5-1.3,1-1.8c0.5-0.5,1.3-1.1,2.4-1.7c1.4-0.8,2.4-1.5,2.9-2
				l-0.1-0.3c-0.2-0.6-0.6-1-1-1.2c-0.4-0.2-1.1-0.1-1.9,0.2c-0.6,0.2-1,0.5-1.3,0.8C619,249,618.9,249.5,618.9,250.2z M624.3,251.3
				c-0.4,0.3-1,0.7-1.8,1.2c-0.9,0.5-1.4,0.9-1.6,1.2c-0.3,0.5-0.4,0.9-0.2,1.4c0.2,0.5,0.5,0.8,1,1c0.5,0.2,1,0.2,1.5,0
				c0.6-0.2,1.1-0.6,1.5-1.2c0.3-0.4,0.4-0.9,0.4-1.4c0-0.3-0.2-0.9-0.5-1.7L624.3,251.3z"/>
		</g>
		<g>
			<path fill="#19171C" d="M636.3,253.3l-3.3,1.2l-4.5-12.5l3.1-1.1l0.6,1.8c0.2-1,0.5-1.8,0.8-2.2c0.3-0.4,0.8-0.7,1.3-0.9
				c0.8-0.3,1.6-0.3,2.4-0.2l0,3.3c-0.7-0.2-1.3-0.2-1.8,0c-0.5,0.2-0.8,0.4-1,0.8c-0.2,0.4-0.3,0.9-0.3,1.7
				c0.1,0.7,0.5,2.2,1.2,4.3L636.3,253.3z"/>
		</g>
		<g>
			<path fill="#19171C" d="M649,244.1l3.5-0.6c0,1.4-0.3,2.5-1,3.5c-0.7,1-1.7,1.7-3.1,2.2c-2.2,0.8-4.1,0.6-5.6-0.4
				c-1.2-0.8-2.2-2.1-2.8-3.9c-0.8-2.1-0.8-3.9-0.1-5.5c0.7-1.6,1.8-2.6,3.5-3.2c1.9-0.7,3.6-0.6,5.1,0.3c1.5,0.8,2.7,2.5,3.6,5.1
				l-8.3,3c0.4,1,0.9,1.6,1.6,2c0.7,0.4,1.4,0.4,2.2,0.1c0.5-0.2,0.9-0.5,1.2-0.9C648.9,245.3,649,244.8,649,244.1z M647.9,240.7
				c-0.4-1-0.9-1.6-1.5-1.9c-0.7-0.3-1.3-0.4-2-0.1c-0.7,0.3-1.2,0.7-1.5,1.4c-0.3,0.7-0.3,1.5,0.1,2.4L647.9,240.7z"/>
		</g>
		<g>
			<path fill="#19171C" d="M520.2,307.6l6.9-2.5c1.4-0.5,2.4-0.8,3.1-0.9c0.7-0.1,1.4-0.1,2.1,0.1s1.3,0.5,1.9,1
				c0.6,0.5,1,1.1,1.3,1.8c0.3,0.8,0.3,1.6,0.2,2.5c-0.2,0.8-0.6,1.6-1.2,2.2c1.2-0.1,2.2,0.2,3,0.7c0.8,0.5,1.4,1.3,1.8,2.3
				c0.3,0.8,0.4,1.6,0.3,2.5c-0.1,0.9-0.4,1.6-0.9,2.3c-0.5,0.7-1.2,1.2-2,1.7c-0.6,0.3-2,0.8-4.2,1.6l-5.9,2.1L520.2,307.6z
				 M524.7,309.2l1.4,4l2.3-0.8c1.4-0.5,2.2-0.8,2.5-1c0.6-0.3,1-0.7,1.2-1.1c0.2-0.5,0.2-1,0-1.5c-0.2-0.5-0.5-0.9-0.9-1.1
				c-0.4-0.2-0.9-0.3-1.5-0.1c-0.4,0.1-1.4,0.4-3,1L524.7,309.2z M527.2,316.1l1.7,4.6l3.2-1.2c1.3-0.5,2-0.8,2.4-1
				c0.5-0.3,0.8-0.7,1-1.1c0.2-0.5,0.2-1,0-1.6c-0.2-0.5-0.5-0.9-0.9-1.2c-0.4-0.3-0.8-0.4-1.4-0.4c-0.5,0-1.6,0.3-3.2,0.9
				L527.2,316.1z"/>
		</g>
		<g>
			<path fill="#19171C" d="M547.6,317.4l-3.3,1.2l-4.5-12.5l3.1-1.1l0.6,1.8c0.2-1,0.5-1.8,0.8-2.2c0.3-0.4,0.8-0.7,1.3-0.9
				c0.8-0.3,1.6-0.3,2.4-0.2l0,3.3c-0.7-0.2-1.3-0.2-1.8,0c-0.5,0.2-0.8,0.4-1,0.8c-0.2,0.4-0.3,0.9-0.3,1.7
				c0.1,0.7,0.5,2.2,1.2,4.3L547.6,317.4z"/>
		</g>
		<g>
			<path fill="#19171C" d="M552.3,305.5l-3.2,0.5c-0.1-1.3,0.2-2.4,0.8-3.3c0.6-0.9,1.7-1.6,3.4-2.2c1.5-0.5,2.6-0.7,3.5-0.7
				c0.9,0.1,1.5,0.4,2,0.8c0.5,0.4,1,1.4,1.5,2.8l1.4,3.9c0.4,1.1,0.7,1.9,1,2.4c0.3,0.5,0.7,1,1.2,1.5l-3.3,1.2
				c-0.2-0.2-0.4-0.5-0.7-0.9c-0.1-0.2-0.2-0.3-0.3-0.3c-0.4,0.8-0.8,1.4-1.4,1.9c-0.5,0.5-1.2,0.9-1.9,1.2c-1.3,0.5-2.4,0.5-3.4,0
				c-1-0.4-1.7-1.2-2.1-2.3c-0.3-0.7-0.3-1.4-0.2-2.1c0.1-0.7,0.5-1.3,1-1.8c0.5-0.5,1.3-1.1,2.4-1.7c1.4-0.8,2.4-1.5,2.9-2
				l-0.1-0.3c-0.2-0.6-0.6-1-1-1.2c-0.4-0.2-1.1-0.1-1.9,0.2c-0.6,0.2-1,0.5-1.3,0.8C552.4,304.3,552.3,304.9,552.3,305.5z
				 M557.7,306.6c-0.4,0.3-1,0.7-1.8,1.2c-0.8,0.5-1.4,0.9-1.6,1.2c-0.3,0.5-0.4,0.9-0.2,1.4c0.2,0.5,0.5,0.8,1,1
				c0.5,0.2,1,0.2,1.5,0c0.6-0.2,1.1-0.6,1.5-1.2c0.3-0.4,0.4-0.9,0.4-1.4c0-0.3-0.2-0.9-0.5-1.7L557.7,306.6z"/>
		</g>
		<g>
			<path fill="#19171C" d="M564.9,307.1l3.1-1.7c0.4,0.6,0.8,1,1.4,1.2c0.6,0.2,1.2,0.1,2-0.1c0.9-0.3,1.4-0.7,1.8-1.2
				c0.2-0.3,0.3-0.7,0.1-1c-0.1-0.3-0.2-0.4-0.5-0.5c-0.2-0.1-0.6-0.1-1.3,0c-2.9,0.4-4.8,0.4-5.7,0.2c-1.2-0.3-2.1-1.1-2.5-2.3
				c-0.4-1.1-0.3-2.2,0.3-3.2s1.8-1.9,3.6-2.5c1.7-0.6,3.1-0.8,4.1-0.5c1,0.3,1.9,0.9,2.6,1.9l-2.9,1.7c-0.3-0.4-0.7-0.7-1.2-0.8
				c-0.5-0.1-1-0.1-1.7,0.2c-0.9,0.3-1.5,0.7-1.7,1c-0.2,0.3-0.2,0.5-0.1,0.8c0.1,0.2,0.3,0.4,0.5,0.5c0.4,0.1,1.5,0.1,3.4-0.2
				c1.9-0.2,3.3-0.2,4.2,0.1c0.9,0.3,1.6,1,1.9,2.1c0.4,1.1,0.3,2.3-0.4,3.5c-0.7,1.2-1.9,2.1-3.8,2.8c-1.7,0.6-3.2,0.8-4.4,0.4
				C566.7,308.9,565.7,308.2,564.9,307.1z"/>
		</g>
		<g>
			<path fill="#19171C" d="M575.8,290.7l-1.1-3.1l3.3-1.2l1.1,3.1L575.8,290.7z M580.9,304.9l-4.5-12.5l3.3-1.2l4.5,12.5
				L580.9,304.9z"/>
		</g>
		<g>
			<path fill="#19171C" d="M587.4,302.7l-6.3-17.3l3.3-1.2l6.3,17.3L587.4,302.7z"/>
		</g>
		<g>
			<path fill="#19171C" d="M601.2,293.5l3.5-0.6c0,1.4-0.3,2.5-1,3.5c-0.7,1-1.7,1.7-3.1,2.2c-2.2,0.8-4.1,0.6-5.6-0.4
				c-1.2-0.8-2.2-2.1-2.8-3.9c-0.8-2.1-0.8-3.9-0.1-5.5c0.7-1.6,1.8-2.6,3.5-3.2c1.9-0.7,3.6-0.6,5.1,0.3c1.5,0.8,2.7,2.5,3.6,5.1
				l-8.3,3c0.4,1,0.9,1.6,1.6,2c0.7,0.4,1.4,0.4,2.2,0.1c0.5-0.2,0.9-0.5,1.2-0.9C601.1,294.8,601.2,294.2,601.2,293.5z
				 M600.2,290.1c-0.4-1-0.9-1.6-1.5-1.9c-0.7-0.3-1.3-0.4-2-0.1c-0.7,0.3-1.2,0.7-1.5,1.4c-0.3,0.7-0.3,1.5,0.1,2.4L600.2,290.1z"
				/>
		</g>
		<g>
			<path fill="#19171C" d="M603.7,280.6l-1.1-3.1l3.3-1.2l1.1,3.1L603.7,280.6z M608.9,294.8l-4.5-12.5l3.3-1.2l4.5,12.5
				L608.9,294.8z"/>
		</g>
		<g>
			<path fill="#19171C" d="M618.6,291.4l-3.3,1.2l-4.5-12.5l3.1-1.1l0.6,1.8c0.2-1,0.5-1.8,0.8-2.2c0.3-0.4,0.8-0.7,1.3-0.9
				c0.8-0.3,1.6-0.3,2.4-0.2l0,3.3c-0.7-0.2-1.3-0.2-1.8,0c-0.5,0.2-0.8,0.4-1,0.8c-0.2,0.4-0.3,0.9-0.3,1.7
				c0.1,0.7,0.5,2.2,1.2,4.3L618.6,291.4z"/>
		</g>
		<g>
			<path fill="#19171C" d="M622.3,282.6c-0.4-1.1-0.5-2.3-0.3-3.5c0.2-1.2,0.7-2.3,1.5-3.2c0.8-0.9,1.8-1.6,3-2
				c1.9-0.7,3.7-0.6,5.3,0.2c1.7,0.8,2.8,2.1,3.5,4c0.7,1.9,0.6,3.7-0.1,5.4c-0.8,1.7-2.1,2.9-3.9,3.5c-1.1,0.4-2.3,0.5-3.6,0.4
				c-1.2-0.1-2.3-0.6-3.2-1.4C623.5,285.2,622.8,284.1,622.3,282.6z M625.7,281.6c0.5,1.2,1.1,2.1,1.9,2.5c0.8,0.4,1.7,0.5,2.5,0.2
				c0.9-0.3,1.5-0.9,1.8-1.8c0.3-0.9,0.3-1.9-0.2-3.2c-0.4-1.2-1.1-2.1-1.9-2.5c-0.8-0.5-1.7-0.5-2.5-0.2c-0.9,0.3-1.5,0.9-1.8,1.8
				C625.2,279.3,625.3,280.3,625.7,281.6z"/>
		</g>
	</g>
	<g>
		<path fill="#96A0A7" d="M311,396.1h14.8v53.7h33.5v13.4H311V396.1z"/>
		<path fill="#96A0A7" d="M371.1,437.8v-0.2c0-14.7,10.5-26.8,25.4-26.8c17.2,0,25,13.3,25,27.9c0,1.2-0.1,2.5-0.2,3.8h-35.8
			c1.4,6.6,6,10.1,12.6,10.1c4.9,0,8.4-1.5,12.5-5.3l8.3,7.4c-4.8,5.9-11.7,9.6-21,9.6C382.5,464.4,371.1,453.5,371.1,437.8z
			 M407.4,433.5c-0.9-6.5-4.7-10.9-10.8-10.9c-6,0-10,4.3-11.1,10.9H407.4z"/>
		<path fill="#96A0A7" d="M431.2,411.8h15.4l11.5,34.4l11.6-34.4h15.2l-20.2,51.8h-13.2L431.2,411.8z"/>
		<path fill="#96A0A7" d="M493.7,437.8v-0.2c0-14.7,10.5-26.8,25.4-26.8c17.2,0,25,13.3,25,27.9c0,1.2-0.1,2.5-0.2,3.8h-35.8
			c1.4,6.6,6,10.1,12.6,10.1c4.9,0,8.4-1.5,12.5-5.3l8.3,7.4c-4.8,5.9-11.7,9.6-21,9.6C505.1,464.4,493.7,453.5,493.7,437.8z
			 M530,433.5c-0.9-6.5-4.7-10.9-10.8-10.9c-6,0-10,4.3-11.1,10.9H530z"/>
		<path fill="#96A0A7" d="M561.5,393.2H576v70h-14.6V393.2z"/>
		<path fill="#12A24C" d="M628.6,429.8v-0.2c0-19.1,14.9-34.7,35.2-34.7c12.1,0,19.4,3.3,26.4,9.2l-9.3,11.2
			c-5.2-4.3-9.8-6.8-17.6-6.8c-10.7,0-19.3,9.5-19.3,20.9v0.2c0,12.3,8.4,21.3,20.3,21.3c5.4,0,10.2-1.3,13.9-4v-9.6h-14.9v-12.8
			h29.2v29.2c-6.9,5.9-16.4,10.7-28.7,10.7C643,464.4,628.6,449.7,628.6,429.8z"/>
	</g>
	<rect x="308.1" y="377.2" fill="#96A0A7" width="407.6" height="2.7"/>
</g>
</svg>
