<?xml version="1.0" encoding="utf-8"?>
<!-- Generator: Adobe Illustrator 18.0.0, SVG Export Plug-In . SVG Version: 6.00 Build 0)  -->
<!DOCTYPE svg PUBLIC "-//W3C//DTD SVG 1.1//EN" "http://www.w3.org/Graphics/SVG/1.1/DTD/svg11.dtd">
<svg version="1.1" id="Layer_1" xmlns="http://www.w3.org/2000/svg" xmlns:xlink="http://www.w3.org/1999/xlink" x="0px" y="0px"
	 viewBox="0 0 1200 1200" enable-background="new 0 0 1200 1200" xml:space="preserve">
<path d="M526.2,548c0,0.2,0.2,0.5,0.2,0.5h0.2C526.4,548.4,526.4,548.2,526.2,548L526.2,548z"/>
<path d="M526.2,548c-0.2-0.5-0.2-1.2-0.5-1.9C526.2,546.8,526.2,547.5,526.2,548L526.2,548z"/>
<circle fill="#C76B5B" cx="595" cy="595" r="540"/>
<g>
	<g>
		<path fill="#DAE9F2" d="M816.3,567.5L816.3,567.5L816.3,567.5z"/>
		<path fill="#DAE9F2" d="M890.9,364.9c-57.8-69.2-220.7-118.2-358-79C388,327.2,315.2,418.2,305.6,578.5
			c-0.7,11.9-3.7,23.7-9.1,34.3l-36.7,75.1c-2.8,5.9-3,12.8-0.5,18.9c2.5,6.1,7.7,10.7,13.9,12.8l11.9,4.1
			c10.5,3.6,17.3,13.3,17.1,24.2C299,891.3,306.5,928,458.3,928c161.9,0,141.1-119,336.7-142.4C939.6,768.5,990,484,890.9,364.9z
			 M851.6,551.4L851.6,551.4c-0.2,9.1-7.5,16-16.5,16h-18.5c0,0.2-0.2,0.2-0.2,0.2c-3.2,13-8.4,25.4-15.1,36.8l13,13
			c6.6,6.6,6.6,17.1,0,23.5l-23.8,23.8c-6.6,6.4-16.9,6.4-23.5,0l-13-13c-11,6.6-23.1,11.7-35.9,14.9c0,0-0.2,9.4-0.2,18.5
			s-7.5,16.4-16.5,16.4h-33.6c-4.4,0-8.5-1.8-11.7-5c-3.2-3-4.8-7.3-4.8-11.7l0.2-18c-13.2-3.2-25.6-8.4-37-15.3l-13,13
			c-3,3-7.3,4.8-11.7,4.8c-4.4,0-8.5-1.8-11.7-4.8l-23.8-23.8c-3.2-3-4.8-7.3-4.8-11.7c0-4.4,1.8-8.5,4.8-11.7l13-13
			c-6.8-11.2-11.9-23.7-15.1-36.8c0-0.2,0-0.2-0.2-0.4h-18c-9.1,0-16.4-6.9-16.4-16.2v-33.8c0-9.1,7.3-16.5,16.4-16.5h18.2
			c3.2-13,8.4-25.1,14.9-36.3l-13-13c-6.4-6.4-6.4-16.9,0-23.3l23.8-23.8c3-3,7.3-4.8,11.7-4.8s8.7,1.8,11.7,4.8l13,13
			c11.6-6.8,23.8-12.5,37.2-15.3v-17.6c-0.2-4.4,1.6-8.5,4.8-11.7s7.3-4.8,11.7-4.8h33.6c9.1,0,16.5,7.3,16.5,16.4
			c0.2,9.1,0.2,18.7,0.2,18.7c12.6,3.2,24.9,8.4,35.9,15.1l13-13c3.2-3,7.3-4.8,11.7-4.8c4.3,0,8.5,1.8,11.7,4.8l23.8,23.8
			c6.4,6.4,6.4,16.9,0,23.3l-13,13c6.6,11.2,11.7,23.7,15.1,36.5c0,0.2,0,0.4,0,0.4h18.7c9.1,0,16.5,6.9,16.5,16.2v33.5H851.6z"/>
		<path fill="#DAE9F2" d="M851.4,551.4"/>
	</g>
	<path fill="#DAE9F2" d="M730.6,534.7c0,25.6-20.8,46.4-46.6,46.4c-25.6,0-46.4-20.8-46.4-46.4c0-25.6,20.8-46.6,46.4-46.6
		C709.7,488.1,730.6,509.1,730.6,534.7L730.6,534.7z"/>
</g>
<g>
	<path opacity="7.000000e-02" fill="#FFFFFF" d="M1135,595c0-298.2-241.8-540-540-540c-149.4,0-284.6,60.7-382.3,158.7L593,594
		l383.3,383.3C1074.3,879.6,1135,744.4,1135,595z"/>
</g>
<path fill="#545454" d="M602,18C279.5,18,18,279.5,18,602s261.5,584,584,584s584-261.5,584-584S924.5,18,602,18z M600,1140
	c-298.2,0-540-241.8-540-540S301.8,60,600,60s540,241.8,540,540S898.2,1140,600,1140z"/>
<path fill="#F5F5F5" d="M597,13C274.5,13,13,274.5,13,597s261.5,584,584,584s584-261.5,584-584S919.5,13,597,13z M595,1135
	c-298.2,0-540-241.8-540-540S296.8,55,595,55s540,241.8,540,540S893.2,1135,595,1135z"/>
</svg>
