<?xml version="1.0" encoding="utf-8"?>
<!-- Generator: Adobe Illustrator 18.0.0, SVG Export Plug-In . SVG Version: 6.00 Build 0)  -->
<!DOCTYPE svg PUBLIC "-//W3C//DTD SVG 1.1//EN" "http://www.w3.org/Graphics/SVG/1.1/DTD/svg11.dtd">
<svg version="1.1" id="Layer_1" xmlns="http://www.w3.org/2000/svg" xmlns:xlink="http://www.w3.org/1999/xlink" x="0px" y="0px"
	 viewBox="0 0 512 402" enable-background="new 0 0 512 402" xml:space="preserve">
<path d="M224.5,178.8c0,0.1,0.1,0.2,0.1,0.2h0.1C224.6,179,224.6,178.9,224.5,178.8L224.5,178.8z M224.5,178.8"/>
<path d="M224.5,178.8c-0.1-0.2-0.1-0.5-0.2-0.8C224.5,178.3,224.5,178.6,224.5,178.8L224.5,178.8z M224.5,178.8"/>
<g>
	<path d="M373.3,179L373.3,179L373.3,179z M373.3,179"/>
	<path d="M415.2,65.2C382.7,26.3,291.2-1.2,214,20.8C132.6,44,91.7,95.1,86.3,185.2c-0.4,6.7-2.1,13.3-5.1,19.3l-20.6,42.2
		c-1.6,3.3-1.7,7.2-0.3,10.6c1.4,3.4,4.3,6,7.8,7.2l6.7,2.3c5.9,2,9.7,7.5,9.6,13.6c-1.8,80.6,2.4,101.2,87.7,101.2
		c91,0,79.3-66.9,189.2-80C442.6,292,470.9,132.1,415.2,65.2z M393.1,170L393.1,170c-0.1,5.1-4.2,9-9.3,9h-10.4
		c0,0.1-0.1,0.1-0.1,0.1c-1.8,7.3-4.7,14.3-8.5,20.7l7.3,7.3c3.7,3.7,3.7,9.6,0,13.2l-13.4,13.4c-3.7,3.6-9.5,3.6-13.2,0l-7.3-7.3
		c-6.2,3.7-13,6.6-20.2,8.4c0,0-0.1,5.3-0.1,10.4c0,5.1-4.2,9.2-9.3,9.2h-18.9c-2.5,0-4.8-1-6.6-2.8c-1.8-1.7-2.7-4.1-2.7-6.6
		l0.1-10.1c-7.4-1.8-14.4-4.7-20.8-8.6l-7.3,7.3c-1.7,1.7-4.1,2.7-6.6,2.7c-2.5,0-4.8-1-6.6-2.7l-13.4-13.4
		c-1.8-1.7-2.7-4.1-2.7-6.6c0-2.5,1-4.8,2.7-6.6l7.3-7.3c-3.8-6.3-6.7-13.3-8.5-20.7c0-0.1,0-0.1-0.1-0.2h-10.1
		c-5.1,0-9.2-3.9-9.2-9.1v-19c0-5.1,4.1-9.3,9.2-9.3h10.2c1.8-7.3,4.7-14.1,8.4-20.4l-7.3-7.3c-3.6-3.6-3.6-9.5,0-13.1l13.4-13.4
		c1.7-1.7,4.1-2.7,6.6-2.7c2.5,0,4.9,1,6.6,2.7l7.3,7.3c6.5-3.8,13.4-7,20.9-8.6L280.5,76c-0.1-2.5,0.9-4.8,2.7-6.6
		c1.8-1.8,4.1-2.7,6.6-2.7h18.9c5.1,0,9.3,4.1,9.3,9.2c0.1,5.1,0.1,10.5,0.1,10.5c7.1,1.8,14,4.7,20.2,8.5l7.3-7.3
		c1.8-1.7,4.1-2.7,6.6-2.7c2.4,0,4.8,1,6.6,2.7l13.4,13.4c3.6,3.6,3.6,9.5,0,13.1l-7.3,7.3c3.7,6.3,6.6,13.3,8.5,20.5
		c0,0.1,0,0.2,0,0.2h10.5c5.1,0,9.3,3.9,9.3,9.1V170z"/>
	<path d="M393,170"/>
</g>
<path d="M325.1,160.6c0,14.4-11.7,26.1-26.2,26.1c-14.4,0-26.1-11.7-26.1-26.1c0-14.4,11.7-26.2,26.1-26.2
	C313.4,134.4,325.1,146.2,325.1,160.6L325.1,160.6z M325.1,160.6"/>
</svg>
