<?xml version="1.0" encoding="utf-8"?>
<!-- Generator: Adobe Illustrator 18.0.0, SVG Export Plug-In . SVG Version: 6.00 Build 0)  -->
<!DOCTYPE svg PUBLIC "-//W3C//DTD SVG 1.1//EN" "http://www.w3.org/Graphics/SVG/1.1/DTD/svg11.dtd">
<svg version="1.1" id="Layer_1" xmlns="http://www.w3.org/2000/svg" xmlns:xlink="http://www.w3.org/1999/xlink" x="0px" y="0px"
	 viewBox="0 0 512 512" enable-background="new 0 0 512 512" xml:space="preserve">
<path fill="#015EA7" d="M247.7,162.6c-15.3,0-30.5,2.7-45.2,8.2c-34.9,14.7-61.6,42-74.7,76.9c-14.2,38.2-11.4,82.3,7.1,120.5
	c29.4,54.5,84.5,86.7,147.2,86.7c30.5,0,61-8.2,88.8-22.9c46.9-27.8,78.5-71.9,89.9-125.4c12-55.6-1.1-115-34.9-162.4
	c-41.4-55.6-105.7-87.2-176.1-87.2c-79,0-151,39.2-191.9,105.7c-3.8,6.5-9.3,14.7-12,22.9c-0.5,1.1-1.1,4.9,0.5,7.1
	c1.1,1.6,3.8,2.2,5.5,2.2l0,0c3.3,0,7.1-3.3,12-10.9c24.5-34.3,51.8-59.4,85-76.3c28.9-14.7,61.6-22.3,93.8-22.3
	c76.9,0,142.8,42,172.8,109.6c17.4,42.5,17.4,90.5-0.5,130.8c-16.4,37.1-45.8,64.9-83.9,79c-14.2,4.9-28.9,7.1-43.6,7.1
	c-57.2,0-104.1-34.9-116.6-86.7c-5.5-28.3,1.1-58.3,18-79.6c9.8-12.5,27.8-27.3,56.1-27.8c18,0.5,36,8.7,45.8,21.3
	c7.6,9.3,10.4,20.7,7.6,32.2c-2.2,8.7-11.4,19.6-19.1,19.6c-2.2,0-4.4-1.1-6.5-2.2c-1.6-1.6-1.6-3.8-2.2-6.5
	c-0.5-4.9-1.6-12-12-15.8c-2.2-0.5-4.4-1.1-6.5-1.1c-14.7,0-24.5,13.6-27.3,27.3c-1.6,13.1,2.2,25.6,10.9,36
	c10.9,12.5,28.9,20.2,47.4,20.2c1.6,0,2.7,0,4.9,0c22.3-2.7,41.4-14.2,54-32.7c14.7-21.8,19.1-50.7,11.4-77.9
	C339.3,192,297.8,162.6,247.7,162.6"/>
</svg>
