<?xml version="1.0" encoding="utf-8"?>
<!-- Generator: Adobe Illustrator 18.0.0, SVG Export Plug-In . SVG Version: 6.00 Build 0)  -->
<!DOCTYPE svg PUBLIC "-//W3C//DTD SVG 1.1//EN" "http://www.w3.org/Graphics/SVG/1.1/DTD/svg11.dtd">
<svg version="1.1" id="Layer_1" xmlns="http://www.w3.org/2000/svg" xmlns:xlink="http://www.w3.org/1999/xlink" x="0px" y="0px"
	 viewBox="0 0 512 162" enable-background="new 0 0 512 162" xml:space="preserve">
<path fill="#FFFFFF" d="M482,147H30c-8.9,0-16.2-7.3-16.2-16.2V31.2C13.8,22.3,21.1,15,30,15h452c8.9,0,16.2,7.3,16.2,16.2v99.7
	C498.2,139.7,490.9,147,482,147z"/>
<path fill="#333E47" stroke="#333E48" stroke-width="0.5" stroke-miterlimit="10" d="M482.8,147H338.4c0-4.1,0-6.6,0-14.6V29.6
	c0-8,0-10.8,0-14.6h144.4c8,0,14.6,6.6,14.6,14.6v102.8C497.4,140.5,490.9,147,482.8,147z"/>
<path fill="#333E48" d="M482.8,148.6H29.2c-8.9,0-16.2-7.3-16.2-16.2V29.6c0-8.9,7.3-16.2,16.2-16.2h453.7c8.9,0,16.2,7.3,16.2,16.2
	v102.8C499,141.3,491.7,148.6,482.8,148.6z M29.2,16.6c-7.2,0-13,5.8-13,13v102.8c0,7.2,5.8,13,13,13h453.7c7.2,0,13-5.8,13-13V29.6
	c0-7.2-5.8-13-13-13H29.2z"/>
<g>
	<path fill="#E8E8E8" d="M368.9,62.8c0,1.9-0.6,3.4-1.8,4.4c-1.2,1-2.9,1.5-5.1,1.5h-1.6v6.4h-3.8V57.2h5.7c2.2,0,3.8,0.5,5,1.4
		C368.4,59.6,368.9,61,368.9,62.8z M360.4,65.7h1.3c1.2,0,2-0.2,2.6-0.7s0.9-1.1,0.9-2c0-0.9-0.2-1.6-0.7-2
		c-0.5-0.4-1.3-0.6-2.3-0.6h-1.7V65.7z"/>
	<path fill="#E8E8E8" d="M380.9,61.2c0.5,0,0.9,0,1.3,0.1l-0.3,3.5c-0.3-0.1-0.7-0.1-1.1-0.1c-1.2,0-2.1,0.3-2.8,0.9
		c-0.7,0.6-1,1.5-1,2.6v7h-3.7V61.5h2.8l0.6,2.3h0.2c0.4-0.8,1-1.4,1.7-1.9C379.3,61.4,380.1,61.2,380.9,61.2z"/>
	<path fill="#E8E8E8" d="M392.2,75.4c-2.2,0-3.9-0.6-5.2-1.8c-1.2-1.2-1.9-2.9-1.9-5.2c0-2.3,0.6-4.1,1.7-5.3s2.7-1.9,4.8-1.9
		c1.9,0,3.4,0.6,4.5,1.7c1.1,1.1,1.6,2.6,1.6,4.6v1.8h-8.8c0,1.1,0.4,1.9,0.9,2.5c0.6,0.6,1.4,0.9,2.5,0.9c0.8,0,1.6-0.1,2.3-0.3
		c0.7-0.2,1.5-0.4,2.3-0.8v2.9c-0.7,0.3-1.4,0.6-2.1,0.7C394.1,75.3,393.2,75.4,392.2,75.4z M391.6,63.9c-0.8,0-1.4,0.3-1.9,0.8
		c-0.4,0.5-0.7,1.2-0.8,2.1h5.2c0-0.9-0.3-1.6-0.7-2.1C393.1,64.1,392.4,63.9,391.6,63.9z"/>
	<path fill="#E8E8E8" d="M414.3,75.2h-3.7v-8c0-1-0.2-1.7-0.5-2.2c-0.3-0.5-0.9-0.7-1.6-0.7c-1,0-1.6,0.3-2.1,1.1
		c-0.4,0.7-0.7,1.9-0.7,3.5v6.5H402V61.5h2.9l0.5,1.8h0.2c0.4-0.6,0.9-1.1,1.6-1.5c0.7-0.4,1.5-0.5,2.4-0.5c2.1,0,3.4,0.7,4.2,2h0.3
		c0.4-0.6,0.9-1.1,1.6-1.5c0.7-0.3,1.5-0.5,2.4-0.5c1.6,0,2.7,0.4,3.5,1.2c0.8,0.8,1.2,2.1,1.2,3.8v8.9h-3.8v-8c0-1-0.2-1.7-0.5-2.2
		c-0.3-0.5-0.9-0.7-1.6-0.7c-0.9,0-1.6,0.3-2.1,1c-0.5,0.7-0.7,1.7-0.7,3.1V75.2z"/>
	<path fill="#E8E8E8" d="M427.8,57.9c0-1.2,0.7-1.8,2-1.8c1.4,0,2,0.6,2,1.8c0,0.6-0.2,1-0.5,1.4s-0.8,0.5-1.5,0.5
		C428.5,59.7,427.8,59.1,427.8,57.9z M431.7,75.2H428V61.5h3.7V75.2z"/>
	<path fill="#E8E8E8" d="M446.6,75.2l-0.5-1.8h-0.2c-0.4,0.6-1,1.1-1.7,1.5c-0.7,0.3-1.6,0.5-2.5,0.5c-1.6,0-2.8-0.4-3.6-1.3
		c-0.8-0.9-1.2-2.1-1.2-3.7v-8.9h3.7v8c0,1,0.2,1.7,0.5,2.2c0.3,0.5,0.9,0.7,1.7,0.7c1,0,1.8-0.3,2.3-1c0.5-0.7,0.7-1.9,0.7-3.5
		v-6.5h3.7v13.7H446.6z"/>
	<path fill="#E8E8E8" d="M466.9,75.2h-3.7v-8c0-1-0.2-1.7-0.5-2.2c-0.3-0.5-0.9-0.7-1.6-0.7c-1,0-1.6,0.3-2.1,1.1
		c-0.4,0.7-0.7,1.9-0.7,3.5v6.5h-3.7V61.5h2.9l0.5,1.8h0.2c0.4-0.6,0.9-1.1,1.6-1.5c0.7-0.4,1.5-0.5,2.4-0.5c2.1,0,3.4,0.7,4.2,2
		h0.3c0.4-0.6,0.9-1.1,1.6-1.5c0.7-0.3,1.5-0.5,2.4-0.5c1.6,0,2.7,0.4,3.5,1.2c0.8,0.8,1.2,2.1,1.2,3.8v8.9h-3.8v-8
		c0-1-0.2-1.7-0.5-2.2c-0.3-0.5-0.9-0.7-1.6-0.7c-0.9,0-1.6,0.3-2.1,1c-0.5,0.7-0.7,1.7-0.7,3.1V75.2z"/>
	<path fill="#E8E8E8" d="M368.9,92.7c0,1.9-0.6,3.4-1.8,4.4c-1.2,1-2.9,1.5-5.1,1.5h-1.6v6.4h-3.8V87.1h5.7c2.2,0,3.8,0.5,5,1.4
		C368.4,89.4,368.9,90.8,368.9,92.7z M360.4,95.5h1.3c1.2,0,2-0.2,2.6-0.7s0.9-1.1,0.9-2c0-0.9-0.2-1.6-0.7-2
		c-0.5-0.4-1.3-0.6-2.3-0.6h-1.7V95.5z"/>
	<path fill="#E8E8E8" d="M382,105l-0.7-1.9h-0.1c-0.6,0.8-1.3,1.3-1.9,1.6c-0.7,0.3-1.5,0.5-2.6,0.5c-1.3,0-2.4-0.4-3.1-1.1
		c-0.8-0.8-1.1-1.8-1.1-3.2c0-1.5,0.5-2.5,1.5-3.2c1-0.7,2.6-1.1,4.6-1.1l2.4-0.1v-0.6c0-1.4-0.7-2.1-2.1-2.1c-1.1,0-2.4,0.3-3.9,1
		l-1.2-2.5c1.6-0.8,3.3-1.2,5.2-1.2c1.8,0,3.3,0.4,4.2,1.2c1,0.8,1.5,2,1.5,3.7v9.1H382z M380.9,98.6l-1.4,0c-1.1,0-1.9,0.2-2.4,0.6
		c-0.5,0.4-0.8,0.9-0.8,1.6c0,1.1,0.6,1.6,1.8,1.6c0.9,0,1.6-0.3,2.1-0.7c0.5-0.5,0.8-1.2,0.8-2V98.6z"/>
	<path fill="#E8E8E8" d="M397.4,91c0.5,0,0.9,0,1.3,0.1l-0.3,3.5c-0.3-0.1-0.7-0.1-1.1-0.1c-1.2,0-2.1,0.3-2.8,0.9
		c-0.7,0.6-1,1.5-1,2.6v7h-3.7V91.3h2.8l0.6,2.3h0.2c0.4-0.8,1-1.4,1.7-1.9C395.7,91.3,396.5,91,397.4,91z"/>
	<path fill="#E8E8E8" d="M408.2,102.3c0.7,0,1.4-0.1,2.4-0.4v2.8c-0.9,0.4-2.1,0.6-3.4,0.6c-1.5,0-2.6-0.4-3.3-1.1
		c-0.7-0.8-1-1.9-1-3.4v-6.6H401v-1.6l2.1-1.3l1.1-2.9h2.4v2.9h3.8v2.8h-3.8v6.6c0,0.5,0.1,0.9,0.4,1.2
		C407.3,102.1,407.7,102.3,408.2,102.3z"/>
	<path fill="#E8E8E8" d="M427.2,105h-3.7v-8c0-1-0.2-1.7-0.5-2.2S422,94,421.2,94c-1,0-1.8,0.3-2.3,1c-0.5,0.7-0.7,1.9-0.7,3.5v6.5
		h-3.7V91.3h2.9l0.5,1.8h0.2c0.4-0.7,1-1.2,1.7-1.5s1.6-0.5,2.5-0.5c1.6,0,2.8,0.4,3.6,1.3c0.8,0.9,1.2,2.1,1.2,3.7V105z"/>
	<path fill="#E8E8E8" d="M438.5,105.2c-2.2,0-3.9-0.6-5.2-1.8c-1.2-1.2-1.9-2.9-1.9-5.2c0-2.3,0.6-4.1,1.7-5.3s2.7-1.9,4.8-1.9
		c1.9,0,3.4,0.6,4.5,1.7c1.1,1.1,1.6,2.6,1.6,4.6v1.8h-8.8c0,1.1,0.4,1.9,0.9,2.5c0.6,0.6,1.4,0.9,2.5,0.9c0.8,0,1.6-0.1,2.3-0.3
		s1.5-0.4,2.3-0.8v2.9c-0.7,0.3-1.4,0.6-2.1,0.7C440.5,105.2,439.6,105.2,438.5,105.2z M438,93.7c-0.8,0-1.4,0.3-1.9,0.8
		c-0.4,0.5-0.7,1.2-0.8,2.1h5.2c0-0.9-0.3-1.6-0.7-2.1C439.4,93.9,438.8,93.7,438,93.7z"/>
	<path fill="#E8E8E8" d="M456.1,91c0.5,0,0.9,0,1.3,0.1l-0.3,3.5c-0.3-0.1-0.7-0.1-1.1-0.1c-1.2,0-2.1,0.3-2.8,0.9
		c-0.7,0.6-1,1.5-1,2.6v7h-3.7V91.3h2.8l0.6,2.3h0.2c0.4-0.8,1-1.4,1.7-1.9C454.4,91.3,455.2,91,456.1,91z"/>
</g>
<g>
	<path fill="#333E48" d="M138.9,67.9c-3.9,0-7.1,2.1-8.9,5.2v-4.5h-6.3v39.9h6.3V90.7c1.8,3.2,5.1,5.2,9,5.2c7.8,0,12.8-6.7,12.8-14
		C151.8,74.5,146.8,67.9,138.9,67.9z M137.7,90.4c-4.7,0-7.7-4.1-7.7-8.7c0.1-4.5,3.2-8.3,7.7-8.3c4.5,0,7.7,3.8,7.7,8.5
		C145.4,86.5,142.2,90.4,137.7,90.4z"/>
	<path fill="#333E48" d="M169.2,67.8c-8.8,0-13.7,6.7-13.7,14c0,7.3,4.9,14,14.2,14c6.3,0,9.6-2.5,12.2-4.7l-3.2-3.4
		c-2.2,1.8-4.9,3.3-8.2,3.3c-4.7,0-8.5-3.1-8.5-7.7h20.3c0.1-0.4,0.1-1.2,0.1-1.5C182.4,74.4,177.9,67.8,169.2,67.8z M161.9,79.6
		c0.3-3.8,3.2-7.2,7.2-7.2c3.9,0,6.9,3.4,7.2,7.2H161.9z"/>
	<path fill="#333E48" d="M201.1,67.8c-3.5,0-6.5,1.9-7.8,4.4v-3.5h-6.4v26.1h6.4V80.3c0.1-5.1,2.8-7.3,6.2-7.3
		c3.8,0,6.2,2.2,6.2,7.5v14.2h6.3V80.5C212,72.8,208.9,67.8,201.1,67.8z"/>
	<path fill="#333E48" d="M229.3,90c-3,0-3.4-2.7-3.4-11v-5.1h5.5v-5.2h-5.5v-8.9h-6.4v8.9h-3.7v5.2h3.7v5.2c0,10.8,0,16.4,7.9,16.4
		c1.2,0,2.6-0.3,4.5-0.9l-0.8-4.8C230.6,89.8,229.9,90,229.3,90z"/>
	<path fill="#333E48" d="M257.1,73.1c-1.9-3.2-5-5.3-9-5.3c-7.8,0-12.8,6.8-12.8,14.1c0,7.3,4.9,13.9,12.9,13.9
		c3.9,0,7.1-2.1,8.9-5.2v4.2h6.2V68.7h-6.2V73.1z M249.4,90.3c-4.5,0-7.7-3.7-7.7-8.5c0-4.6,3.2-8.5,7.7-8.5s7.6,4,7.6,8.5
		C257,86.4,253.9,90.3,249.4,90.3z"/>
	<path fill="#333E48" d="M283,67.8c-3.5,0-6.4,1.9-7.8,4.4V39.3H269v55.4h6.3V80.3c0-5.1,2.8-7.3,6.3-7.3c3.7,0,6.1,2.2,6.1,7.5
		v14.2h6.4V80.5C294,72.8,290.9,67.8,283,67.8z"/>
	<path fill="#333E48" d="M311.9,67.8c-9.2,0-14,6.5-14,13.9c0,7.3,4.8,13.9,14,13.9c9.3,0,14.1-6.5,14.1-13.9
		C326,74.3,321.2,67.8,311.9,67.8z M311.9,91.1c-4.4,0-7.7-3.7-7.7-9.4c0-5.5,3.4-9.2,7.7-9.2c4.4,0,7.8,3.7,7.8,9.2
		C319.7,87.4,316.3,91.1,311.9,91.1z"/>
</g>
<path fill="#005DA6" d="M69.2,64.1c-2.8,0-5.6,0.5-8.3,1.5c-6.4,2.7-11.3,7.7-13.7,14.1c-2.6,7-2.1,15.1,1.3,22.1
	c5.4,10,15.5,15.9,27,15.9c5.6,0,11.2-1.5,16.3-4.2c8.6-5.1,14.4-13.2,16.5-23c2.2-10.2-0.2-21.1-6.4-29.8
	c-7.6-10.2-19.4-16-32.3-16c-14.5,0-27.7,7.2-35.2,19.4c-0.7,1.2-1.7,2.7-2.2,4.2c-0.1,0.2-0.2,0.9,0.1,1.3c0.2,0.3,0.7,0.4,1,0.4h0
	c0.6,0,1.3-0.6,2.2-2c4.5-6.3,9.5-10.9,15.6-14c5.3-2.7,11.3-4.1,17.2-4.1c14.1,0,26.2,7.7,31.7,20.1c3.2,7.8,3.2,16.6-0.1,24
	c-3,6.8-8.4,11.9-15.4,14.5c-2.6,0.9-5.3,1.3-8,1.3c-10.5,0-19.1-6.4-21.4-15.9c-1-5.2,0.2-10.7,3.3-14.6c1.8-2.3,5.1-5,10.3-5.1
	c3.3,0.1,6.6,1.6,8.4,3.9c1.4,1.7,1.9,3.8,1.4,5.9c-0.4,1.6-2.1,3.6-3.5,3.6c-0.4,0-0.8-0.2-1.2-0.4c-0.3-0.3-0.3-0.7-0.4-1.2
	c-0.1-0.9-0.3-2.2-2.2-2.9c-0.4-0.1-0.8-0.2-1.2-0.2c-2.7,0-4.5,2.5-5,5c-0.3,2.4,0.4,4.7,2,6.6c2,2.3,5.3,3.7,8.7,3.7
	c0.3,0,0.5,0,0.9,0c4.1-0.5,7.6-2.6,9.9-6c2.7-4,3.5-9.3,2.1-14.3C86,69.5,78.4,64.1,69.2,64.1"/>
<rect x="20.4" y="23.2" fill="none" width="332.4" height="115.8"/>
</svg>
