<?xml version="1.0" encoding="utf-8"?>
<!-- Generator: Adobe Illustrator 18.0.0, SVG Export Plug-In . SVG Version: 6.00 Build 0)  -->
<!DOCTYPE svg PUBLIC "-//W3C//DTD SVG 1.1//EN" "http://www.w3.org/Graphics/SVG/1.1/DTD/svg11.dtd">
<svg version="1.1" id="Layer_1" xmlns="http://www.w3.org/2000/svg" xmlns:xlink="http://www.w3.org/1999/xlink" x="0px" y="0px"
	 viewBox="0 0 808.7 479.5" enable-background="new 0 0 808.7 479.5" xml:space="preserve">
<g>
	<g>
		<path fill="#025EA8" d="M377.8,203.4l35.5-31.9c1.8-1.6,3.6-3.5,5.4-5.5c1.8-2.1,2.7-4.5,2.7-7.2c0-3.1-1.1-5.5-3.4-7.3
			c-2.2-1.8-4.9-2.6-7.9-2.6c-3.6,0-6.4,1.1-8.5,3.4c-2,2.2-3.2,5-3.4,8.3l-19.4-1.4c0.3-4.7,1.2-8.8,3-12.3c1.7-3.5,4-6.4,6.8-8.7
			c2.8-2.3,6.2-4.1,10-5.2c3.8-1.2,8-1.7,12.5-1.7c4.1,0,8,0.6,11.6,1.7c3.6,1.2,6.8,2.9,9.4,5.2c2.7,2.3,4.8,5.1,6.3,8.6
			c1.5,3.4,2.3,7.4,2.3,12c0,2.9-0.3,5.6-0.9,7.9c-0.6,2.4-1.4,4.5-2.5,6.5c-1.1,1.9-2.3,3.7-3.8,5.4c-1.5,1.6-3.1,3.2-4.8,4.8
			L401,206.9h40.5v17h-63.8V203.4z"/>
		<path fill="#025EA8" d="M452.1,178.2c0-5.4,0.5-10.9,1.5-16.5c1-5.6,2.8-10.7,5.3-15.2c2.5-4.6,6-8.3,10.4-11.2
			c4.4-2.9,10-4.3,16.8-4.3c6.8,0,12.4,1.4,16.8,4.3c4.4,2.9,7.9,6.6,10.4,11.2c2.5,4.6,4.3,9.6,5.3,15.2c1,5.6,1.5,11.1,1.5,16.5
			s-0.5,10.9-1.5,16.5c-1,5.6-2.8,10.7-5.3,15.2c-2.5,4.6-6,8.3-10.4,11.2c-4.4,2.9-10,4.3-16.8,4.3c-6.8,0-12.4-1.4-16.8-4.3
			c-4.4-2.9-7.9-6.6-10.4-11.2c-2.5-4.6-4.3-9.6-5.3-15.2C452.6,189.2,452.1,183.6,452.1,178.2z M471.5,178.2c0,2.4,0.1,5.3,0.3,8.6
			c0.2,3.4,0.8,6.6,1.7,9.7c0.9,3.1,2.4,5.7,4.3,7.9c1.9,2.2,4.7,3.2,8.2,3.2c3.4,0,6.2-1.1,8.1-3.2c2-2.1,3.4-4.8,4.4-7.9
			c0.9-3.1,1.5-6.3,1.7-9.7c0.2-3.4,0.3-6.2,0.3-8.6c0-2.4-0.1-5.3-0.3-8.6s-0.8-6.6-1.7-9.7c-0.9-3.1-2.4-5.7-4.4-7.9
			c-2-2.1-4.7-3.2-8.1-3.2c-3.5,0-6.3,1.1-8.2,3.2c-1.9,2.2-3.4,4.8-4.3,7.9c-0.9,3.1-1.5,6.3-1.7,9.7
			C471.6,172.9,471.5,175.8,471.5,178.2z"/>
		<path fill="#025EA8" d="M561.4,154.2l-18.3,16.1l-11-12.6l29.8-25.2H580v91.4h-18.6V154.2z"/>
		<path fill="#025EA8" d="M628.5,168.6h6.3c1.8,0,3.6-0.1,5.3-0.4c1.7-0.3,3.3-0.8,4.7-1.5c1.4-0.7,2.6-1.8,3.4-3.1
			c0.9-1.3,1.3-3.1,1.3-5.2c0-2.8-1.1-5-3.3-6.8c-2.2-1.8-4.9-2.7-8.1-2.7c-3,0-5.5,0.8-7.5,2.5c-2,1.6-3.3,3.7-3.9,6.1l-21.3-4.4
			c1-4,2.6-7.3,4.6-10.1c2.1-2.8,4.5-5.1,7.4-6.8c2.8-1.7,6-3,9.5-3.8c3.5-0.8,7.2-1.2,11-1.2c4,0,7.9,0.5,11.7,1.5
			c3.7,1,7,2.5,9.9,4.6c2.8,2.1,5.1,4.8,6.8,7.9c1.7,3.2,2.5,7,2.5,11.4c0,5.1-1.3,9.4-4,13c-2.7,3.6-6.5,5.9-11.6,7v0.4
			c2.8,0.3,5.2,1.2,7.3,2.5c2.1,1.3,3.9,2.9,5.4,4.8c1.5,1.9,2.6,4,3.4,6.5c0.8,2.4,1.2,4.9,1.2,7.6c0,4.6-0.9,8.6-2.6,12
			c-1.8,3.4-4.1,6.3-7.1,8.6c-3,2.3-6.5,4-10.5,5.1c-4,1.1-8.2,1.7-12.7,1.7c-8.2,0-15.2-1.9-21.1-5.7c-5.9-3.8-9.8-9.8-11.7-17.9
			l20.4-4.8c0.7,3.3,2.1,5.9,4.2,7.7c2.1,1.9,5.2,2.8,9.4,2.8c4.2,0,7.3-1.1,9.4-3.3c2-2.2,3-5,3-8.5c0-2.6-0.5-4.6-1.6-6
			c-1.1-1.4-2.5-2.5-4.2-3.2c-1.7-0.7-3.7-1.1-5.8-1.2c-2.2-0.1-4.3-0.2-6.5-0.2h-4.5V168.6z"/>
	</g>
	<g>
		<path fill="#025EA8" d="M330,260.2h16.4c3,0,5.4,0.4,7.4,1.2c1.9,0.8,3.5,1.8,4.6,3.1c1.1,1.3,1.9,2.7,2.3,4.2
			c0.4,1.6,0.7,3.1,0.7,4.5c0,1.4-0.2,3-0.7,4.5c-0.4,1.6-1.2,3-2.3,4.2c-1.1,1.3-2.6,2.3-4.6,3.1c-1.9,0.8-4.4,1.2-7.4,1.2h-10.1
			v20.5H330V260.2z M336.3,280.7h8.3c1.2,0,2.4-0.1,3.6-0.3c1.2-0.2,2.3-0.6,3.2-1.1c0.9-0.5,1.7-1.3,2.3-2.3c0.6-1,0.9-2.3,0.9-3.8
			c0-1.6-0.3-2.9-0.9-3.8c-0.6-1-1.3-1.7-2.3-2.3c-0.9-0.5-2-0.9-3.2-1.1c-1.2-0.2-2.4-0.3-3.6-0.3h-8.3V280.7z"/>
		<path fill="#025EA8" d="M378.7,260.2h5.7l19.9,46.5H397l-4.7-11.5h-22.2l-4.6,11.5h-7.4L378.7,260.2z M390,289.7l-8.7-21.4h-0.1
			l-8.8,21.4H390z"/>
		<path fill="#025EA8" d="M410.4,260.2h16.4c3,0,5.4,0.4,7.4,1.2c1.9,0.8,3.5,1.8,4.6,3.1c1.1,1.3,1.9,2.7,2.3,4.2
			c0.4,1.6,0.7,3.1,0.7,4.5c0,1.5-0.3,2.9-0.8,4.3c-0.5,1.4-1.3,2.6-2.3,3.7c-1,1.1-2.2,2.1-3.6,2.8c-1.4,0.8-3,1.2-4.8,1.4
			l13.2,21.2h-7.9l-11.8-20.5h-7v20.5h-6.3V260.2z M416.7,280.7h8.3c1.2,0,2.4-0.1,3.6-0.3c1.2-0.2,2.3-0.6,3.2-1.1
			c0.9-0.5,1.7-1.3,2.3-2.3c0.6-1,0.9-2.3,0.9-3.8c0-1.6-0.3-2.9-0.9-3.8c-0.6-1-1.3-1.7-2.3-2.3c-0.9-0.5-2-0.9-3.2-1.1
			c-1.2-0.2-2.4-0.3-3.6-0.3h-8.3V280.7z"/>
		<path fill="#025EA8" d="M459.1,266.1h-15v-5.9h36.3v5.9h-15v40.6h-6.3V266.1z"/>
		<path fill="#025EA8" d="M487.1,260.2h8.3l25.6,38.3h0.1v-38.3h6.3v46.5h-8l-25.9-38.3h-0.1v38.3h-6.3V260.2z"/>
		<path fill="#025EA8" d="M539.4,260.2h30v5.9h-23.7V280h22.1v5.9h-22.1v14.9h24.9v5.9h-31.2V260.2z"/>
		<path fill="#025EA8" d="M579.6,260.2H596c3,0,5.4,0.4,7.4,1.2c1.9,0.8,3.5,1.8,4.6,3.1c1.1,1.3,1.9,2.7,2.3,4.2
			c0.4,1.6,0.7,3.1,0.7,4.5c0,1.5-0.3,2.9-0.8,4.3c-0.5,1.4-1.3,2.6-2.3,3.7c-1,1.1-2.2,2.1-3.6,2.8c-1.4,0.8-3,1.2-4.8,1.4
			l13.2,21.2h-7.9l-11.8-20.5h-7v20.5h-6.3V260.2z M585.9,280.7h8.3c1.2,0,2.4-0.1,3.6-0.3c1.2-0.2,2.3-0.6,3.2-1.1
			c0.9-0.5,1.7-1.3,2.3-2.3c0.6-1,0.9-2.3,0.9-3.8c0-1.6-0.3-2.9-0.9-3.8c-0.6-1-1.3-1.7-2.3-2.3c-0.9-0.5-2-0.9-3.2-1.1
			c-1.2-0.2-2.4-0.3-3.6-0.3h-8.3V280.7z"/>
		<path fill="#025EA8" d="M659.4,307.9c-3.6,0-6.8-0.6-9.8-1.9c-3-1.2-5.5-3-7.7-5.2c-2.1-2.2-3.8-4.8-5-7.8c-1.2-3-1.8-6.2-1.8-9.7
			c0-3.5,0.6-6.7,1.8-9.7c1.2-3,2.9-5.6,5-7.8c2.1-2.2,4.7-3.9,7.7-5.2c3-1.3,6.2-1.9,9.8-1.9c3.5,0,6.8,0.6,9.8,1.9
			c3,1.2,5.5,3,7.7,5.2c2.1,2.2,3.8,4.8,5,7.8c1.2,3,1.8,6.2,1.8,9.7c0,3.5-0.6,6.7-1.8,9.7c-1.2,3-2.9,5.6-5,7.8
			c-2.1,2.2-4.7,3.9-7.7,5.2C666.2,307.3,662.9,307.9,659.4,307.9z M659.4,302c2.7,0,5.1-0.5,7.2-1.5c2.1-1,4-2.3,5.5-4
			c1.5-1.7,2.7-3.6,3.6-5.9c0.8-2.3,1.2-4.7,1.2-7.2c0-2.5-0.4-4.9-1.2-7.2c-0.8-2.3-2-4.2-3.6-5.9c-1.5-1.7-3.4-3-5.5-4
			c-2.1-1-4.6-1.5-7.2-1.5c-2.7,0-5.1,0.5-7.2,1.5c-2.1,1-4,2.3-5.5,4s-2.7,3.6-3.5,5.9c-0.8,2.3-1.2,4.7-1.2,7.2
			c0,2.5,0.4,4.9,1.2,7.2c0.8,2.3,2,4.2,3.5,5.9s3.4,3,5.5,4C654.3,301.5,656.7,302,659.4,302z"/>
		<path fill="#025EA8" d="M692.7,260.2H722v5.9H699v14.6h21.4v5.9H699v20.1h-6.3V260.2z"/>
		<path fill="#025EA8" d="M384.1,345h-15V339h36.3v5.9h-15v40.6h-6.3V345z"/>
		<path fill="#025EA8" d="M412.1,339h6.3v19.3h24.1V339h6.3v46.5h-6.3v-21.3h-24.1v21.3h-6.3V339z"/>
		<path fill="#025EA8" d="M460.8,339h30v5.9h-23.7v13.9h22.1v5.9h-22.1v14.9H492v5.9h-31.2V339z"/>
		<path fill="#025EA8" d="M530.2,365.7L512.6,339h8.1l12.7,20.4l13.1-20.4h7.7l-17.6,26.7v19.9h-6.3V365.7z"/>
		<path fill="#025EA8" d="M559.5,339h30v5.9h-23.7v13.9h22.1v5.9h-22.1v14.9h24.9v5.9h-31.2V339z"/>
		<path fill="#025EA8" d="M614.2,339h5.7l19.9,46.5h-7.4l-4.7-11.5h-22.2l-4.6,11.5h-7.4L614.2,339z M625.5,368.6l-8.7-21.4h-0.1
			l-8.8,21.4H625.5z"/>
		<path fill="#025EA8" d="M645.9,339h16.4c3,0,5.4,0.4,7.4,1.2c1.9,0.8,3.5,1.8,4.6,3.1c1.1,1.2,1.9,2.7,2.3,4.2
			c0.4,1.5,0.7,3.1,0.7,4.5c0,1.5-0.3,2.9-0.8,4.3c-0.5,1.4-1.3,2.6-2.3,3.8c-1,1.1-2.2,2.1-3.6,2.8c-1.4,0.8-3,1.2-4.8,1.4
			l13.2,21.2h-7.9l-11.8-20.5h-7v20.5h-6.3V339z M652.2,359.6h8.3c1.2,0,2.4-0.1,3.6-0.3c1.2-0.2,2.3-0.6,3.2-1.1
			c0.9-0.5,1.7-1.3,2.3-2.3c0.6-1,0.9-2.3,0.9-3.8c0-1.6-0.3-2.9-0.9-3.8c-0.6-1-1.3-1.8-2.3-2.3c-0.9-0.5-2-0.9-3.2-1.1
			c-1.2-0.2-2.4-0.3-3.6-0.3h-8.3V359.6z"/>
	</g>
	<rect x="0" y="19.9" fill="#FBB040" width="808.7" height="19.3"/>
	<rect x="0" y="0" fill="none" width="808.7" height="479.5"/>
	<g>
		<g>
			<path fill="#025EA8" d="M123.4,242.7c1.5-0.3,3.1-0.6,4.7-0.6l5.3-0.1l2.7-4.5c1.3-2.3,3.1-4.2,5-5.8l22.4-41.6l-26.8-49.7
				c-2.5-4.7-8.1-6.8-13-4.9l-42.7,15.9c-3,1.1-5.3,3.5-6.3,6.6c-1,3-0.6,6.3,1.1,9L123.4,242.7z"/>
			<path fill="#025EA8" d="M169.4,232.4l4.6-2.6c3.2-1.8,6.8-2.8,10.5-2.8c7.5,0,14.6,4,18.4,10.5l2.7,4.6l5.3,0
				c1.6,0,3.1,0.2,4.7,0.6l47.8-75.6c1.7-2.7,2.1-6,1.1-9c-1-3-3.3-5.5-6.3-6.6l-42.7-15.9c-5-1.8-10.5,0.2-13,4.9l-46.6,86.6
				c3.2,0.2,6.4,1.1,9.2,2.7L169.4,232.4z"/>
		</g>
		<path fill="#025EA8" d="M107.7,328.9l9.8,5.7l0.1,11.3c0.1,5.8,4.7,10.5,10.6,10.5l11.3,0.1l5.7,9.8c2.9,5,9.4,6.7,14.4,3.9
			l9.8-5.6l9.8,5.6c1.7,0.9,3.5,1.4,5.3,1.4c3.6,0,7.2-1.9,9.2-5.3l5.7-9.8l11.3-0.1c5.8,0,10.5-4.7,10.5-10.5l0.1-11.3l9.8-5.7
			c5-3,6.7-9.4,3.9-14.4l-5.6-9.8l5.6-9.8c2.9-5.1,1.2-11.5-3.9-14.4l-9.8-5.7l-0.1-11.3c0-5.8-4.7-10.5-10.5-10.6l-11.3-0.1
			l-5.7-9.8c-2.9-5-9.4-6.7-14.4-3.9l-9.8,5.6l-9.8-5.6c-5-2.9-11.5-1.2-14.4,3.9l-5.7,9.8l-11.3,0.1c-5.8,0.1-10.5,4.7-10.6,10.6
			l-0.1,11.3l-9.8,5.7c-5,2.9-6.8,9.4-3.9,14.4l5.6,9.8l-5.6,9.8C101,319.5,102.7,325.9,107.7,328.9z M127.3,291
			c0.7-2,2.6-3.4,4.7-3.4h25l7.7-23.8c0.7-2,2.6-3.4,4.8-3.4c2.1,0,4.1,1.4,4.7,3.4l7.7,23.8h25c2.1,0,4.1,1.4,4.7,3.4
			c0.7,2.1-0.1,4.3-1.8,5.6l-20.2,14.7l7.7,23.7c0.7,2.1-0.1,4.3-1.8,5.6c-0.9,0.6-1.9,1-3,1s-2.1-0.3-2.9-1l-20.2-14.7l-20.2,14.7
			c-1.7,1.3-4.1,1.3-5.9,0c-1.7-1.3-2.5-3.5-1.8-5.6l7.7-23.7l-20.2-14.7C127.3,295.3,126.6,293,127.3,291z"/>
	</g>
</g>
</svg>
