<?xml version="1.0" encoding="utf-8"?>
<!-- Generator: Adobe Illustrator 18.0.0, SVG Export Plug-In . SVG Version: 6.00 Build 0)  -->
<!DOCTYPE svg PUBLIC "-//W3C//DTD SVG 1.1//EN" "http://www.w3.org/Graphics/SVG/1.1/DTD/svg11.dtd">
<svg version="1.1" id="svg14938" xmlns:svg="http://www.w3.org/2000/svg"
	 xmlns="http://www.w3.org/2000/svg" xmlns:xlink="http://www.w3.org/1999/xlink" x="0px" y="0px" viewBox="0 0 487 608.5"
	 enable-background="new 0 0 487 608.5" xml:space="preserve">
<g id="layer1" transform="translate(-136.90852,-134.70148)">
	<g id="g22771" transform="matrix(1.0086965,-8.9296502e-2,8.9296502e-2,1.0086965,-18.978214,17.791233)">
		<path id="path295" fill="#203E6D" d="M190.2,176.5L190.2,176.5l0.6,0.7l0.3,0.7l0.7,0.4l0.7,0.6l0.6,0.7l0.6,0.2l0.5,0.7l0.7,0.2
			h0.1l-0.3,0.7l-0.6,0.7l0.7,0.6l0.7-0.1l0.3-0.8l0.1-0.7l-0.1-0.1l-0.1-0.8l-0.2-0.7l0.1-0.7l-0.3-0.7l-0.6-0.7l-0.7-0.1l0.4-0.7
			l0.7-0.2l0.7-0.3l0.8-0.3l0.7-0.7l0.7-0.6l0.6-0.7l0.8-0.3l0.7-0.6l0.1-0.7l0.6-0.8l0.1-0.7l0.6-0.8l0.8-0.4l0.7-0.6l0.3-0.1
			l0.7-0.1l0.7,0.1h0.3l0.7-0.2l0.4-0.7l0.1-0.7l-0.4-0.8l-0.7-0.1l0.4-0.7l0.2-0.7l0.3-0.7l0.1-0.5l0.1-0.8l0.4-0.7l-0.8-0.1
			l-0.7,0.4l0.7-0.6l0.3-0.7l0.7-0.2v-0.7l0.1-0.8v-0.7l0.7-0.7l0.7-0.5l0.8-0.5l0.2,0.3V157l0.1-0.5l0.7-0.4l0.8-0.4l0.6-0.8
			l0.7-0.6l0.6-0.7l0.1-0.1l0.8,0.2l0.7,0.2l0.7,0.2l0.7,0.2l0.7,0.1l0.8-0.1l0.7-0.1h0.1v0.1l-0.8,0.2l-0.8,0.1l-0.3-0.1l-0.1,0.3
			l0.1,0.7l-0.7-0.1l-0.4,0.7l0.7,0.4l0.2-0.7l0.4,0.7h0.1l0.7-0.3l0.3-0.8l0.3-0.6l0.3-0.6l0.1-0.1l0.4-0.8l-0.1-0.7l0.1-0.7
			l0.6-0.7l0.7-0.1l0.7-0.1l0.7,0.3l0.7,0.3h1.5l0.8-0.1h0.4l0.7-0.1l0.8-0.1l0.7-0.2l0.7-0.4l0.6-0.8l0.7-0.5l0.7-0.4l0.8-0.4
			l0.3-0.4l0.4-0.3l0.7-0.5l0.2-0.1l0.7-0.2l0.8-0.3l0.7-0.3l0.8-0.2l0.7-0.5l0.7-0.4l0.4-0.7l0.4-0.7l0.2-0.8l-0.2-0.7l0.7-0.1
			l0.7-0.1l0.4,0.1l-0.3,0.8l0.7-0.4l0.3-0.7l0.1-0.7l0.7,0.2l0.7-0.7l0.7-0.1l-0.7-0.1l0.8-0.2l0.7-0.1l0.8,0.3l0.7,0.2l0.7,0.3
			l0.7,0.4l0.1,0.1l0.4,0.7l0.4,0.7l0.1,0.8l-0.7,0.6l-0.7,0.4l-0.4,0.6l-0.5,0.8l-0.7,0.4l-0.7,0.1l-0.8,0.2l-0.7,0.1l-0.7,0.2
			l-0.8,0.3l-0.7,0.2l-0.3,0.8l0.1,0.7l0.2,0.7l0.4,0.8l0.5,0.7l0.7,0.7l0.7,0.3l-0.7,0.1l-0.2,0.2l0.4,0.7l0.2,0.7v0.1l0.4,0.6
			l0.1,0.1l0.1,0.1l0.4,0.7l-0.2,0.7v0.1l-0.2,0.8l-0.1,0.4l-0.8,0.6l-0.6,0.7l-0.4,0.7l-0.2,0.4l-0.1,0.1l-0.8,0.6l-0.4,0.7
			l-0.1,0.3l-0.4,0.8l-0.6,0.7l0.3,0.7l0.6,0.7l0.4,0.7l0.1,0.7l0.7,0.3l0.7,0.5v0.1l0.6,0.1v0.7l-0.8,0.6h0.4l0.1,0.8l0.8,0.6
			l0.6,0.1l0.8-0.1l0.7-0.3l0.7-0.2l0.6-0.2l0.6-0.5l0.1-0.3l0.6-0.7l0.7-0.4l0.1-0.3l-0.1-0.7v-0.2l-0.1-0.7l0.3-0.6l0.1-0.7
			l-0.2-0.7v-0.6l-0.1-0.2l-0.7-0.7l-0.4-0.2l-0.2-0.8l-0.5-0.7l-0.2-0.1l-0.1-0.1l-0.1-0.1l-0.4-0.6l-0.3-0.3l-0.5-0.8v-0.3
			L244,157l-0.3-0.4l0.1-0.7v-0.8l-0.3-0.2l-0.1-0.2h-0.1l0.8-0.1l0.5-0.7l0.2-0.2l-0.8-0.4l0.8-0.3l0.7,0.1l0.5-0.1l0.7-0.4
			l0.7-0.4l0.8-0.4l0.7-0.4l0.8-0.4l0.7-0.2l0.7-0.2l0.7-0.1l0.7-0.1l0.7-0.4l0.8-0.2l0.7-0.3l0.7-0.2l0.6-0.3l0.1-0.8l0.7,0.2
			l-0.4-0.7l-0.1-0.4l0.7,0.4l0.5,0.1l0.4,0.3l0.4,0.2l0.8,0.2l0.7-0.4l-0.1-0.7l-0.2-0.7l-0.7-0.3l-0.7,0.2l-0.5,0.1l-0.7,0.1
			l-0.6,0.2l-0.2,0.1H256v-0.7l0.1-0.4l-0.2-0.2l-0.5-0.8l0.1-0.7l0.4-0.7l0.2-0.7l0.8-0.2l0.7-0.5l0.4-0.1l0.8,0.4l0.5,0.7l0.3,0.8
			l0.1,0.7l0.1,0.8l0.4,0.7l0.2,0.7l0.4,0.8l0.7,0.6l0.7-0.4l0.8-0.1l0.7,0.1l0.7-0.4l0.7,0.1l0.7,0.1l0.8,0.4h0.7l0.7-0.1h0.5
			l0.8,0.6l0.7,0.1l0.8,0.6l0.7,0.4l0.8,0.4l0.6,0.8l0.1,0.1l0.4,0.8l0.2,0.7l-0.4,0.7l0.1,0.8l0.1,0.3l0.4,0.8v0.1l0.7,0.7l0.7,0.1
			h0.7l0.8,0.1h0.6l0.7-0.3l0.7-0.1l0.8-0.1l0.2-0.1l0.7-0.1l0.8-0.1h0.4l0.7-0.1l0.8-0.1l0.7-0.1l0.8-0.3l0.8-0.1l0.7-0.1l0.7-0.1
			l0.8-0.1l0.8-0.1h0.7l0.7-0.1l0.8,0.1l0.7,0.1l0.1-0.1l0.8-0.1l0.7,0.3l0.7,0.2l-0.4,0.7l0.3,0.3l0.7,0.5l0.2,0.1l0.7,0.5l0.7,0.8
			l0.8,0.1l-0.8-0.5l0.8,0.2l0.7,0.2l0.7,0.3l0.7,0.1l0.7,0.2l0.8,0.1l0.7,0.1l0.7,0.1l0.8,0.3l-0.6-0.1l0.7,0.3l0.7-0.2l0.8-0.3
			l0.8,0.1l0.7-0.1l0.4-0.6l0.7-0.6l0.8-0.1l0.2-0.1h0.7l0.7-0.4l-0.7-0.1l0.8-0.6l0.7-0.2l0.7-0.3l0.8-0.4l0.7,0.3l0.7-0.1l0.8,0.1
			h0.7l0.7-0.3l-0.7-0.5l-0.7-0.1l-0.8-0.3h-0.7l-0.8,0.1l-0.7,0.2l-0.7-0.6l0.8-0.2l0.8,0.1l0.7-0.3l0.7,0.1l0.7-0.1l0.8-0.6
			l0.7,0.4l0.8,0.1l0.7,0.1l0.7-0.2l0.7-0.1l0.8-0.1l0.7-0.1l0.7-0.4l0.8,0.1h0.7l0.7,0.1l0.7-0.2l0.8-0.1l0.7-0.1l0.7,0.1h0.7
			l0.8,0.1l0.7,0.1l0.7,0.1l0.8-0.1l0.7-0.1l0.7-0.1l0.8-0.1l0.7-0.1l-0.6,0.8l-0.8,0.1l-0.7,0.1l-0.8-0.1l-0.7,0.3l-0.8,0.6
			l-0.7-0.1H327l-0.8-0.1l-0.7-0.1l-0.7,0.1l-0.8,0.1l-0.7,0.1l-0.7,0.6l0.7-0.4l0.7-0.1l0.1,0.7l-0.7,0.1l-0.7,0.1l-0.1,0.7
			l0.4-0.7l0.7,0.2l0.8-0.2l0.7,0.7l0.4,0.7l0.3,0.8l-0.7,0.6h-0.7l-0.7,0.1l-0.8-0.4l-0.6,0.1l0.7,0.7l0.1,0.1h0.1l0.7-0.4l0.4,0.3
			h0.2l0.7-0.4l0.8-0.3l0.1-0.7l0.7-0.3l0.5,0.7l0.3,0.7l0.1,0.3v0.6l0.7,0.6l0.4,0.7l-0.1,0.5h0.1v0.1l0.1,0.1l0.5-0.8l0.2-0.7
			l-0.1-0.7l0.6,0.7l0.1,0.7l0.1,0.8l-0.4,0.6l0.3-0.1l0.2-0.7l-0.1-0.8l-0.1-0.7l0.8,0.1l0.6,0.1l-0.7-0.6l-0.8-0.1l-0.3-0.5h0.8
			l0.8,0.1l0.7,0.5l0.7,0.6l0.6,0.7l-0.1,0.8v0.2l0.4-0.8l0.4,0.1l0.2,0.7v0.4l0.1-0.8l-0.6-0.8l0.8-0.3l0.7,0.1h0.5l-0.6-0.7h0.8
			l0.7,0.5l0.4,0.7l0.7,0.6l0.8,0.6l0.4,0.1l0.1,0.1h0.7l0.8-0.1l0.7,0.4l0.7,0.6l0.7,0.7l0.1,0.7l-0.7,0.4l-0.7,0.4l-0.8,0.4
			l-0.1,0.1l-0.5,0.7l0.7-0.6l0.1,0.8l-0.8,0.6l-0.1,0.3l-0.1,0.5l0.1,0.1l-0.4,0.8l-0.4,0.7v0.7l-0.8,0.2l-0.7-0.1h-0.7l-0.8,0.1
			l-0.7-0.3h-0.4l-0.1,0.3l0.8,0.4l0.7,0.1l0.7,0.5l0.7,0.1l0.8,0.4l0.7-0.6l0.8-0.1l0.1,0.7l0.7-0.7l0.8-0.7h0.2l0.8-0.1l0.7-0.1
			l0.7,0.2l0.8,0.2l0.7,0.1l0.2,0.1l0.4-0.4l0.7-0.5l0.8,0.1l0.7,0.1l0.7,0.3l0.7,0.3l0.3,0.1l0.1,0.1l0.7,0.7l0.6,0.7l0.6,0.3
			l0.7,0.3l0.8,0.4l0.7,0.4l0.7,0.6l0.3,0.2l-0.7-0.7l-0.7-0.3l-0.8-0.5l-0.7-0.4l0.7-0.1l0.7,0.4l0.8,0.4l0.7,0.4l0.7,0.4l0.7,0.4
			l0.8,0.4l0.7,0.4l0.6,0.7l0.4,0.3l0.8,0.6l0.7,0.6l0.7,0.7l0.4,0.7l0.7,0.3l0.5,0.7l0.6,0.7l0.5,0.8l-0.1,0.7l0.1,0.7v0.2
			l-0.1,0.7l-0.3,0.6l-0.5,0.7l-0.3,0.8v0.8l-0.1,0.7l-0.1,0.7v0.6l-0.4,0.7l-0.1,0.1v0.1l0.7-0.3l0.2-0.4l0.1-0.8l0.1-0.7l0.4-0.7
			l0.5-0.8l0.7-0.6l0.7-0.1l0.4,0.1l0.7,0.4l0.2,0.2l0.7-0.1l0.7,0.1l0.8,0.6l0.1,0.2l0.7,0.6l0.8,0.7l1.4,1.2l0.3,0.7l0.4,0.7
			l0.8-0.4l0.7,0.4l0.7,0.5l0.7,0.7l0.4,0.7v0.6l0.1,0.1l0.1,0.7l-0.1,0.8l-0.2,0.7l0.1,0.7l-0.1,0.8l-0.5,0.7v-0.1l0.7-0.4l0.2-0.8
			l0.1-0.7l0.2-0.8l0.4-0.7l0.1-0.5l0.4-0.1l0.1-0.1l0.8-0.1l0.7,0.1l0.7,0.1l0.8,0.1l0.8,0.2l0.6-0.1l0.7,0.1l0.7,0.2l0.8,0.1
			l0.7,0.2l0.7,0.2l0.7,0.3l0.8,0.2l0.7,0.4v0.8l0.2-0.4l-0.2-0.8l0.1-0.4v-0.6l0.7-0.4h0.7l0.7-0.1l0.8,0.1l0.8,0.1l0.7,0.1
			l0.7,0.1l0.7,0.3l0.2,0.2l0.6-0.1l0.4,0.7l0.4-0.5l0.8,0.3l0.4,0.1l0.8-0.1l-0.5-0.2l-0.7,0.1l-0.7-0.3l-0.8-0.6l0.7-0.1h1.2
			l0.7,0.1l0.7,0.1l0.8,0.1l0.6,0.1l0.7,0.2l0.7,0.1l0.8,0.1l0.7,0.1l0.7,0.1l0.7,0.1l0.7,0.4l0.8,0.6l-0.1,0.7l-0.3,0.7v0.7
			l-0.6,0.8l-0.4,0.7h0.1l0.7-0.6l0.2-0.4l0.4-0.8v-0.7l0.4-0.7l0.8-0.3l0.6,0.1l0.7,0.1l0.8,0.5l0.7,0.4l0.8,0.6l0.2,0.1l0.7,0.2
			l0.8,0.2l0.8,0.2l0.7,0.1l0.4,0.1l0.8,0.4l0.4-0.2l0.8,0.5l0.8,0.7l0.6,0.7l0.7,0.6l0.6,0.7l0.8,0.6l0.7,0.4l0.4,0.7l0.1,0.1
			l0.1-0.2l0.7,0.4l-0.4,0.8l-0.3,0.7l0.2-0.2l0.3-0.6l0.7-0.3l0.6,0.7l0.7,0.4l0.6,0.8l0.2,0.7l0.1,0.7v0.7l-0.8,0.6l0.4-0.1
			l0.7-0.4v-1.6l0.3-0.7l0.7,0.4l0.4,0.7l0.1,0.7l0.6,0.7l-0.1,0.7l0.5,0.8l-0.1,0.8L427,213l0.6-0.6l0.5-0.7l0.4,0.8l0.4,0.7
			l0.4,0.8l-0.3-0.8l-0.4-0.8l-0.2-0.8l-0.3-0.7l0.3-0.8l0.8,0.6l0.7,0.6l0.8,0.7l0.6,0.8l0.4,0.7l0.1,0.7v0.9l-0.1,0.7l0.1,0.8
			l0.1-0.6l0.1-0.7l0.6-0.9l0.1,0.8l0.1,0.7l-0.1,0.8v0.7l0.1,0.8v0.7l0.1,0.8l0.3,0.8v0.8l0.3,0.8l0.4,0.8l0.3,0.7l0.1,0.7l0.4,0.7
			l0.3,0.8v0.8l0.5,0.7l0.1,0.8l0.3,0.7l0.3,0.8l-0.6,0.8l0.6-0.2l0.7,0.8l0.4,0.8l0.4,0.7l0.7,0.6h0.7l0.8,0.1l0.8,0.1l0.8,0.2
			l0.7,0.4l0.3,0.2l0.5,0.7l0.2,0.7l0.1,0.9l-0.1,0.7l-0.3,0.8l-0.8,0.4l-0.4,0.1l-0.7,0.3l0.4,0.1l0.7-0.1l0.9,0l-0.1,0.7l-0.7,0.5
			l-0.2,0.1l-0.7,0.7l-0.8,0.6l-0.7,0.4l-0.4,0.7l-0.7,0.7l-0.7,0.5l-0.4,0.8l-0.9,1.4l-0.8,0.8l-0.6,0.8l-0.7,0.3l-0.8,0.1
			l-0.8,0.6l-0.6,0.8l-0.3,0.4l-0.4,0.3l-0.8,0.3l-0.5,0.4l-0.6,0.9l-0.3,0.8l-0.7,0.7l-0.5,0.8l-0.7,0.6l-0.6,0.8l-0.6,0.7
			l-0.1,0.8v0.8l-0.2,0.8l-0.8,0.7l-0.7,0.2l-0.2,0.2l0.1,0.8l-0.4,0.8l-0.7,0.5l-0.8-0.1l-0.7-0.6l-0.8,0.4l-0.8,0.2l-0.8,0.4
			l-0.8,0.3l-0.7,0.1l-0.7,0.2l-0.1,0.2v0.1h0.2l0.8-0.1h0.8l0.8,0.1l0.7-0.2l0.7-0.1l0.4,0.7l-0.2,0.7l0.8-0.6l0.7-0.1l0.7-0.1
			l0.8-0.4l0.8-0.4l0.7-0.4l0.8-0.5l0.2-0.1l0.7-0.1l0.8-0.3l0.7-0.7h0.8l0.7-0.5l0.6-0.7l0.7-0.4l0.8-0.4l0.1-0.8l0.7-0.1l0.9,0.2
			l-0.1,0.8l0.1,0.7l0.1,0.8l-0.2,0.8l-0.1,0.7l0.2,0.8l0.4,0.7l0.7,0.8l0.1,0.8l-0.4,0.7l0.3,0.3l0.6-0.1l0.7,0.4l0.8,0.3l0.3,0.8
			l0.7-0.2l0.7-0.4l0.8-0.1l0.8-0.2l0.7-0.1l0.4,0.1l0.7,0.5l0.1,0.8l0.1,0.9v-0.8l0.6-0.7l0.8-0.1l0.8-0.1l0.8-0.5l0.7-0.4h0.7
			l0.7,0.4l-0.5,0.7l-0.4,0.8l-0.4,0.7l-0.1,0.7l-0.4,0.9l-0.4,0.7l0.2,0.8l0.1,0.7l-0.4,0.7l0.1,0.1l0.1,0.1l0.4-0.4l0.2-0.7
			l0.2-0.8l0.4-0.7l0.5-0.8l0.2-0.8l0.3-0.7l0.6-0.7l0.7-0.3l0.7-0.1l0.7-0.2l0.6-0.8l0.5-0.7l0.7-0.8l0.7-0.8h0.8l0.3,0.4l0.6,0.8
			l0.7,0.6l-0.1-0.7l0.1-0.8l0.7,0.1l0.7-0.1h0.8l-0.6-0.3h-0.8l-0.7,0.1l-0.7-0.4l0.1-0.7l0.7-0.2l0.7-0.1l0.2-0.7l-0.1-0.1
			l0.5-0.7l-0.4-0.8l0.1-0.7l0.6-0.8l0.7-0.2l0.5-0.8l0.7-0.4l0.7,0.6l0.7-0.6l0.7-0.4l0.7,0.4l0.3,0.5l0.8-0.6l0.7,0.2l0.3,0.8h0.8
			l-0.6-0.7l0.5-0.8l-0.1,0.8l0.8-0.6l0.2-0.1l0.8,0.4l-0.2,0.8l0.8-0.1l0.1,0.8l0.6-0.7l0.4,0.7l0.7-0.6l0.2,0.8l-0.2,0.7l0.5-0.8
			l0.8-0.4l-0.1,0.8l0.7,0.1l0.2,0.7l0.3-0.8l0.8,0.4l-0.7,0.8l0.7,0.5l0.8,0.1l0.8,0.1l0.7,0.1l0.7,0.3l0.1-0.7l0.7-0.5l-0.4,0.7
			v0.7l-0.3,0.7l0.8-0.3l0.7,0.1l-0.1,0.7l0.5-0.3l0.6-0.7l-0.3,0.7l0.4,0.7l0.8-0.4l-0.1,0.7l0.7-0.1l0.8-0.5l0.1,0.7L481,264h0.7
			l0.7-0.6l0.6,0.8l0.7-0.6l-0.6,0.7l-0.4,0.7l0.5,0.7V265l0.7-0.5l0.4-0.8l0.3,0.8l-0.5,0.7l0.1,0.7l-0.1,0.8l-0.1,0.7l0.8,0.1
			l0.4-0.6l-0.1-0.7l0.7-0.7h0.8l0.7,0.1v0.8l0.3,0.1v-0.2l0.4-0.7l0.7-0.4l-0.4,0.7l0.1,0.7l0.7,0.4l0.4,0.8l-0.3,0.7l0.7,0.1
			l0.8-0.4l-0.4,0.7l0.8-0.1l-0.2,0.7l0.7,0.2l0.1,0.8l-0.6,0.7l-0.4,0.7l-0.8,0.6l-0.7,0.2l0.7,0.5l0.1,0.7v-0.7l0.7-0.7l0.7-0.7
			l0.7,0.1l0.4,0.7l0.1,0.7l-0.6,0.8l-0.8,0.1l-0.5,0.7l-0.6,0.6l0.7-0.1l-0.5,0.7l-0.3,0.8l-0.1,0.7l-0.4,0.7l-0.1,0.7l0.5,0.7
			l-0.7,0.7l-0.7,0.6l-0.1,0.7l0.2,0.1l0.1-0.1l0.1-0.7l0.7-0.2l0.6-0.7l0.7-0.6l0.8-0.6l0.3-0.7l0.2-0.7l0.1-0.8l0.3-0.7v-0.7
			l0.6-0.1l0.2-0.4l0.7-0.1l0.8-0.4l0.7,0.2l-0.1,0.7l-0.6,0.7l-0.7,0.8l-0.8,0.2l-0.1,0.7l0.8-0.1l-0.1,0.7l0.6-0.3l0.7-0.2v-0.2
			l0.2-0.7l0.7-0.6l0.7,0.1l0.7-0.6l0.7-0.6l0.8,0.2l0.7,0.2l0.3-0.7l0.7,0.5v-0.1l0.4-0.7l0.8-0.1l0.7,0.2l0.7,0.1l0.8,0.4l0.7,0.4
			l0.8,0.3l0.7,0.4l0.7,0.3l0.8,0.6l0.7,0.6l0.7,0.1l0.5,0.7l0.7,0.3l0.7-0.1l0.6,0.6l0.8,0.1l1.4,0.4l0.2-0.3l-0.6-0.7l0.7,0.1
			l0.8,0.3h0.1l0.7,0.4l0.6,0.7h0.1l0.7,0.3l0.8,0.1h0.7l0.7,0.6l0.8,0.6v-0.5l-0.1-0.8l0.7,0.1l0.7,0.1h0.8l0.7,0.1l0.8-0.1
			l0.4,0.1l0.7-0.1h0.8l0.7-0.1l0.8-0.1l0.7,0.2l0.8,0.1l0.8,0.1l0.7,0.4l0.4-0.1l0.7,0.1l0.6,0.4l0.7,0.5l0.7,0.6l0.7,0.4l0.8,0.6
			l0.7,0.5l0.7,0.4l0.7,0.4l0.8,0.6l0.7,0.6l0.7,0.6l0.7,0.1l0.6,0.7l0.5,0.7l0.8,0.5l0.7,0.6l0.7,0.6l0.7,0.4l0.8,0.4l0.3,0.7
			l0.5,0.7l0.7,0.5l0.9,1.4l0.6,0.8l0.6,0.7l0.7,0.6l0.6,0.8l0.8,0.3l0.1,0.5l0.4,0.8l0.7,0.7l0.7,0.3l0.7,0.3l0.8,0.4l0.7,0.6
			l0.2,0.8l0.1,0.4l0.7,0.6h0.4l0.7,0.1l0.7,0.1l0.7,0.6l0.6,0.8l0.7,0.4h0.9l0.7,0.1l0.8,0.1l0.7,0.2l0.7,0.1l0.7,0.1l0.8-0.1
			l0.7-0.1l0.7,0.1l0.7,0.3l0.8,0.2l0.8,0.3l0.7,0.2l0.8,0.5l0.5,0.5l0.4,0.7l0.2,0.7l0.4,0.8l0.4,0.8l0.1,0.7l0.2,0.8v0.8l0.1,0.3
			l0.1,0.8l0.3,0.8l-0.1,0.8v0.7l-0.3,0.8l0.8,0.5v0.7l0.4,0.7v2.4l0.1,0.2l-0.1,0.8l0.1,0.8l0.4,0.8l-0.1,0.8l-0.4,0.7l0.8-0.6v0.7
			l0.2,0.7l-0.1,0.7l-0.1,0.7l-0.1,0.8l-0.1,0.7h-0.7l-0.1,0.1l0.7,0.3l-0.4,0.8l-0.2,0.8l-0.1,0.6l0.5,0.7l-0.1,0.8l-0.5,0.8
			l-0.1-0.1l-0.1,0.2v0.1l0.1,0.1l-0.3,0.7l-0.4,0.8l-0.1,0.7l-0.7,0.4l0.1,0.8l-0.4,0.7l-0.4,0.7l-0.2,0.7l-0.5,0.8l-0.2,0.7
			l-0.1,0.1l-0.6,0.8l-0.5,0.8l-0.5,0.7l-0.6,0.7l-0.7,0.4l-0.6,0.7l-0.6,0.7l-0.8,0.5l-0.5,0.7l-0.2-0.2l-0.6-0.5l-0.1,0.8
			l-0.8-0.4l0.5,0.7h0.4l-0.7,0.7l-0.6,0.7L563,351l-0.6,0.7l-0.8,0.6l-0.7,0.4l-0.7,0.8l-0.5,0.8l-0.6,0.7l-0.5,0.1l-0.7,0.1
			l-0.8,0.4l-0.7,0.3l-0.8,0.4l-0.7,0.4l-0.8,0.7l-0.7,0.2l-0.1-0.7l-0.7-0.6l-0.1,0.3v0.4l0.1,0.1l0.6,0.5l-0.3,0.8l-0.4,0.5
			l-0.7,0.2l-0.8-0.4l0.1,0.4l0.8,0.6l-0.4,0.8l-0.7,0.8l-0.4,0.7l-0.8-0.1l0.4-0.7l0.3-0.8l-0.4,0.8l-0.8,0.6l0.4,0.8l-0.7,0.4h0.3
			l0.8-0.2l-0.6,0.7l-0.4,0.8l-0.4,0.7l-0.3,0.4l-0.4,0.6l-0.4,0.7l-0.4,0.7l-0.4,0.7l-0.6,0.7l-0.6,0.8l-0.6,0.7l-0.7,0.7l-0.4,0.7
			l-0.6,0.7l-0.7,0.5l-0.7,0.8l-0.7,0.6l-0.7,0.6l-0.7,0.2l-0.8-0.2l0.3-0.8v-0.7l-0.3-0.8l-0.7-0.4l-0.7-0.6l-0.4,0.8l-0.3,0.7
			l-0.7,0.1l-0.5-0.8l0.1,0.4l0.4,0.7l0.1,0.1l0.7,0.1v0.7l-0.6,0.8h-0.1l-0.7,0.4l0.6,0.8L535,377l-0.6,0.7v0.8l-0.7-0.4l-0.2,0.7
			l-0.3,0.7l-0.1,0.8v0.1l0.2-0.7l0.7,0.1l-0.1,0.8l0.1,0.7l-0.7,0.6l-0.7-0.7l0.6,0.8l-0.1,0.7l0.2,0.7l0.3,0.7L533,385l0.7-0.6
			l0.5-0.8l-0.1,0.8l-0.1,0.7l-0.4,0.7l-0.3,0.7l0.1,0.4l-0.3,0.7l-0.2,0.7l-0.1,0.7l-0.4,0.8l-0.1,0.7l0.1,0.8l0.1,0.7l0.1,0.7v0.7
			l-0.1,0.7l-0.1,0.7v0.8l0.1,0.8v0.7l0.1,0.7v1.7l0.3,0.7l0.1,0.8l-0.3,0.5l-0.4,0.7l-0.3,0.7l-0.1,0.7l-0.5,0.8l-0.1,0.7l-0.5,0.7
			l-0.2,0.7l-0.2,0.8l-0.2,0.7l-0.4,0.7l-0.1,0.7l-0.1,0.8l-0.3,0.7L529,412l-0.4,0.8l-0.1,0.7l-0.1,0.8l0.1,0.7l-0.1,0.7l-0.1,0.8
			l0.3,0.7l-0.4,0.7l-0.7,0.6l-0.8,0.6l-0.7,0.1l-0.7,0.7l-0.6,0.7l-0.4,0.5l-0.5,0.7l-0.3,0.8l-0.3,0.6l-0.3,0.7l-0.2,0.8l-0.1,0.7
			l-0.1,0.8l-0.1,0.7l-0.1,0.8v3l-0.1,0.7l-0.1,0.7l-0.4,0.8l-0.4,0.7l-0.4,0.7l-0.2,0.1l-0.7,0.2l-0.7,0.4l-0.1,0.1l-0.5,0.7
			l-0.4,0.7l-0.6,0.7l-0.1,0.3l-0.2,0.7l-0.3,0.7l-0.5,0.7h-1.1l0.5,0.7l-0.4,0.7l-0.5,0.7l-0.5,0.8l-0.7,0.4l-0.7,0.7l-0.7,0.3
			l-0.7,0.2l-0.7,0.7l-0.1,0.8l-0.4,0.7l-0.8,0.7l-0.4,0.7v0.1l-0.1,0.7l-0.6,0.7l-0.4,0.8l0.4,0.7l-0.1,0.6l-0.1,0.8v0.8l0.1,0.7
			l-0.2,0.7l-0.7,0.3l-0.8,0.4l-0.7,0.3l-0.7,0.1l-0.7,0.1l-0.8,0.1l-0.7,0.1l-0.7,0.3l-0.7,0.4l-0.8,0.6l-0.7,0.7l-0.7,0.6
			l-0.1,0.7l0.1,0.7l0.7,0.4l-0.8,0.3L499,462l0.1,0.8l-0.6-0.4l-0.8-0.1l-0.7-0.1l-0.7-0.1l-0.8-0.1l-0.7-0.1H494l-0.4,0.1H493
			l-0.7-0.1h-0.8l-0.7-0.2l-0.6-0.8l0.2-0.3l0.4-0.8l0.4-0.7l-0.7,0.1l-0.7,0.1l-0.7,0.5l0.4,0.7v0.1l0.4,0.1l0.1,0.1l-0.4,0.7
			l-0.7,0.1h-1.5l-0.7,0.3l-0.8-0.2h-2.2l-0.7,0.2l0.3-0.6h0.7l0.7,0.3h0.7l0.8-0.1l-0.1-0.1l-0.7-0.5l-0.7-0.6h-0.7l-0.7,0.1
			l-0.7,0.4l-0.8,0.4l-0.7-0.4l-0.7-0.5l-0.8,0.4l-0.7,0.1l-0.7,0.1l-0.8,0.6l0.4,0.7l-0.1,0.7l0.7-0.4v0.8l-0.7,0.1l-0.7,0.1
			l-0.1,0.1l-0.8,0.1l-0.7-0.4l-0.7,0.5l-0.8,0.7l-0.7,0.3l-0.8,0.5l-0.7,0.1l-0.7,0.4l0.1,0.7l-0.1,0.7l-0.7,0.1L469,467l-0.8-0.2
			l-0.8-0.1l-0.7-0.1l-0.7,0.1l-0.8,0.3l-0.7,0.2l-0.7,0.6l0.7-0.2l-0.7,0.8l-0.7,0.3l0.1-0.3l-0.2-0.7l-0.7-0.1v0.1l-0.2,0.4
			l0.1,0.1l0.1,0.2l-0.7,0.1l-1.4,0.6l-0.8,0.4l-0.7,0.3l-0.8,0.4l-0.7,0.7l-0.4,0.7l-0.8,0.4l-0.7,0.6l-0.7,0.4l-0.7,0.4h-0.1
			l-0.8,0.3l-0.7,0.2l-0.6,0.4l-0.8,0.5l-0.7,0.5l-0.7,0.7l-0.6,0.7l-0.2,0.1l0.7,0.1l-0.3,0.7l-0.7,0.5l-0.1,0.1l-0.6,0.7l-0.7,0.5
			l-0.6,0.7l0.1-0.7l0.5-0.7l-0.7,0.1l-0.7-0.1l-0.8-0.3v0.7l-0.1,0.8l-0.7,0.1h-0.7l-0.7-0.5v0.8l0.7,0.3h0.7l0.4,0.6l0.7,0.2
			l-0.7,0.7l-0.4,0.7l-0.4,0.7l-0.8-0.1l-0.7,0.3l0.7,0.1l0.7,0.2l-0.3,0.7l-0.2,0.4l0.1,0.7l-0.4,0.8l-0.7,0.1l-0.2-0.7l-0.3-0.7
			l0.1,0.7l0.1,0.7l-0.1,0.7l0.7,0.6l0.1,0.1l0.4,0.6l-0.4,0.7l-0.4,0.8l-0.1,0.5l0.1,0.7l0.7,0.4l-0.5,0.7v0.7l0.3,0.8l-0.4,0.7
			l0.6,0.8l-0.7,0.3v0.7l0.1,0.8l-0.6,0.7l0.3,0.7l-0.4,0.8l0.1,0.7l0.2,0.7l0.1,0.8l-0.4,0.7l0.1,0.7l-0.4,0.8l-0.2,0.7l-0.4,0.7
			l-0.4,0.8l-0.3,0.7l-0.4-0.3v-0.1l-0.4-0.7l0.2,0.8v0.5l0.2,0.7l-0.7,0.4l-0.7,0.3l-0.7,0.5l-0.7,0.4l-0.8,0.5l-0.7,0.6l-0.7,0.6
			l-0.7,0.7l-0.7,0.8l-0.6,0.7l-0.5,0.7l-0.2,0.2l-0.6,0.7l-0.5,0.7l-0.5,0.7l-0.4,0.8l-0.4,0.7l-0.4,0.5l-0.4,0.7l-0.3,0.7
			l-0.3,0.6l-0.4,0.7l-0.3,0.8l-0.3,0.7l-0.4,0.7l-0.4,0.7l-0.5,0.8l-0.6,0.7l-0.4,0.7l-0.6,0.8l-0.6,0.7l-0.1,0.2l-0.4,0.7
			l-0.6,0.7l-0.6,0.7l-0.7,0.7l-0.7,0.8l-0.7,0.6l-0.8,0.6l-0.7,0.6l-0.8,0.6L416,535l-0.7,0.4l-0.7,0.4l-0.7,0.4l-0.7,0.4l-0.7,0.7
			l-0.6,0.7l-0.7,0.7l0.3-0.7v-0.7l0.1-0.8l-0.4-0.7l0.7-0.1l0.7,0.6l0.8-0.7l0.7,0.1l0.7-0.6l0.6-0.7l0.8-0.4l0.1-0.7l0.7,0.1
			l0.8-0.4l0.6-0.7l0.2-0.8l0.1-0.7v-0.8l0.7-0.4l0.8-0.1l0.2-0.7l0.3-0.7l0.8-0.4l0.7-0.3l0.4-0.7l0.2-0.8V524l0.3-0.7l0.7,0.6
			v-0.3l0.3-0.7l-0.1-0.8l-0.8-0.4l-0.6,0.7l-0.7,0.3l-0.7-0.2l-0.6,0.7l-0.2-0.7l-0.5-0.7l-0.7-0.4l-0.3-0.8v-0.7l-0.6,0.2
			l-0.1,0.7l0.2,0.7l0.6,0.8l0.2,0.8l-0.7,0.6l-0.3,0.7l-0.2,0.7l0.1,0.7l-0.1,0.8V526l-0.4-0.7l-0.2,0.7v0.8l-0.1,0.7l-0.8,0.3
			l-0.1,0.7l0.1,0.7l-0.8,0.2l-0.7,0.5l-0.1,0.8l-0.7,0.1l-0.4-0.1l-0.7,0.4l-0.8,0.6l-0.2,0.7l-0.1,0.8l-0.4,0.7l-0.7,0.6l-0.7,0.6
			l-0.3,0.7l0.7,0.8l-0.8,0.5l0.4,0.7l0.7,0.1l-0.1,0.7l-0.7,0.5l-0.7,0.7l-0.4,0.7l-0.4,0.8l-0.3,0.7l-0.3,0.7l-0.2,0.8l-0.6,1.4
			l-0.4,0.8l-0.4,0.7l-0.4,0.7l-0.6,0.8l-0.7,0.6l-0.8,0.6l-0.7,0.6l-0.7,0.6l-0.7,0.7l-0.7,0.6l-0.8,0.5l-0.7,0.6l-0.3,0.8
			l-0.2,0.7l-0.2,0.7l-0.7,0.7l-0.8,0.7l-0.3,0.7l-0.2,0.7l-0.7,0.4l-0.8,0.4l-0.7,0.7l-0.5,0.7l-0.7-0.1l-0.1-0.7l-0.7,0.5v0.8
			l-0.7,0.4l-0.8,0.4l-0.6,0.2l-0.7,0.2l-0.7,0.4l-0.8,0.2l-0.7-0.2l-0.6-0.4l-0.7,0.1l-0.7-0.1l-0.6-0.7l-0.6-0.1l-0.7-0.1
			l-0.7-0.2l-0.7,0.1l-0.7,0.1l-0.8,0.3l-0.7,0.4h-0.1l-0.8,0.3l-0.7-0.2l-0.7-0.3l-0.1-0.7l-0.2-0.1l-0.7-0.2l-0.8-0.1l-0.7-0.3
			l-0.7-0.2l-0.8-0.4l-0.6-0.8l-0.7-0.7l-0.7-0.4l-0.4-0.1l-0.7,0.1l-0.8-0.1l-0.7,0.1l-0.8-0.1l-0.8,0.2l-0.7,0.1l-0.1-0.2
			l-0.3-0.4l-0.4-0.7l-0.6-0.8l-0.7-0.7l-0.8-0.5l-0.5-0.8l-0.6-0.7l-0.3-0.7L362,552v-2.2l0.2-0.7l0.1-0.7l-0.1-0.6l0.4-0.7
			l-0.1-0.7l0.5-0.8l0.7,0.1l0.7-0.4l0.3-0.7l0.2-0.8l-0.6-0.7l-0.1-0.7v-0.8l-0.1-0.7l-0.2-0.7l-0.1-0.4l-0.1,0.6v0.8l0.1,0.7
			l0.1,0.7l0.1,0.8l0.2,0.7l-0.1,0.8l-0.5,0.7l-0.8-0.1h-0.7l-0.1,1.4l-0.2,0.8l-0.4,0.7l-0.2,0.8v0.7l-0.1,0.8l0.1,0.7l0.4,0.7
			l0.2,0.6v0.9l0.5,0.6l-0.1,0.7l-0.1,0.4l-0.1,0.4l-0.4,0.3l-0.8,0.1l0.1,0.1l0.5,0.7l-0.1,0.8l0.4,0.7l0.7,0.4l0.4,0.6l0.7,0.6
			l0.8,0.3l0.7,0.3l0.8,0.4l0.8,0.4l0.7,0.5l0.7,0.6l0.6,0.4l0.7,0.6l0.7,0.6l0.5,0.8l0.5,0.7l0.4,0.7l-0.2,0.7l-1.2,1.4l-0.4,0.8
			v0.1l-0.2,0.4v0.7l0.1,0.8l0.4,0.7l0.4,0.8l0.6,0.7l0.7,0.7l0.8,0.4l0.7,0.1l0.8-0.4l0.2,0.3v0.1l0.3,0.8l-0.1,0.7l0.1,0.7v2.2
			l-0.1,0.8l-0.6,0.7l-1,1.4l-0.4,0.7l-0.5,0.8l-0.4,0.7l-0.6,0.8l-0.7,0.7l-0.7,0.7l-0.6,0.7l-0.5,0.8l-0.3,0.7l-0.1,0.7v0.7
			l-0.7,0.7l-0.8,0.5l-0.7,0.5l-0.7,0.3l-0.6,0.4l-0.7,0.4l-0.7,0.3l-0.8,0.4l-0.7,0.1l-0.7,0.4l-0.8,0.2l-0.7,0.1l-0.7,0.3
			l-0.8,0.3l-0.7,0.4l-0.8,0.1l-0.7,0.1l-0.7,0.1l-0.8,0.2l-0.7,0.1l-0.7,0.3l-0.8,0.3h-0.7l-0.7,0.1l-0.1,0.1l-0.7,0.1l-0.7,0.1
			l-0.8,0.1l-0.7,0.1l-0.8,0.1l-0.7,0.1l-1.4,0.3l-0.8,0.1h-0.7l-0.7,0.1l-0.8-0.1l-0.7-0.1l-0.8,0.2l-0.7,0.1l-0.7-0.1h-0.8
			l-0.7-0.2l-0.7-0.1l-0.7-0.4l-0.6-0.8H334l-0.8,0.3l0.5,0.7l0.2,0.8l-0.4,0.7l0.1,0.7l0.1,0.8l0.7,0.1l0.8,0.2l0.7,0.7l-0.7-0.1
			l-0.8-0.2l0.6,0.8l0.5,0.7l-0.1,0.7l-0.1,1.4l-0.3,0.7l-0.3,0.1l-0.8-0.2v0.7l-0.1,0.8l-0.1,0.1v1.5l-0.7,0.7l-0.1,0.7l0.2,0.8
			l0.7,0.6l0.6,0.7l-0.2,0.8l0.7-0.3l-0.4,0.7l-0.3,0.7l-0.4,0.7l-0.7,0.4l-0.7,0.4l-0.8,0.5l-0.7,0.3l-1.2,0.6l-0.7,0.4l-0.8,0.1
			h-0.7l-0.7,0.1l-0.8-0.1l-0.8,0.1h-1.4l-0.8-0.6l-0.7-0.4l-0.7-0.2l-0.8-0.4l-0.7-0.3l-0.8-0.4l-0.7-0.1l-0.7-0.3l-0.8-0.1
			l-0.7-0.3l0.7,0.1l-0.2-0.7l-0.8,0.4l-0.7,0.1l-0.8,0.6l-0.3,1.4l0.3,1.4l0.2,0.7l0.2,0.8l0.2,0.7l0.6,0.8l-0.1,0.7l-0.1,0.7
			l0.3,0.8l-0.1,0.8l-0.3,0.7l0.1,0.7l0.3,0.5l0.3,0.4l0.7,0.6l0.7,0.1l0.7,0.2l0.7,0.1l0.8,0.1l-0.6,0.7l-0.2,0.8l0.7-0.1l0.8,0.1
			l0.7-0.2l0.7,0.1l0.7-0.4v-0.7l-0.7-0.4l-0.7-0.2l0.7-0.2l0.8-0.4l0.7-0.4l0.7-0.4l0.7,0.4l0.4,0.7l0.5,0.8v0.7l0.1,0.7l0.1,0.8
			l-0.1,0.8l-0.1,0.7l-0.4,0.7l-0.8,0.2l-0.7,0.2l-0.7,0.1l-0.7,0.1l-0.6-0.7l-0.1-0.7l0.1-0.8l-0.7-0.6l-0.8-0.4h-0.7l-0.7,0.1
			l-0.8,0.5l-0.7,0.6l-0.7,0.6v0.8l0.7,0.1l0.7,0.4l0.7,0.4l0.8,0.2l0.7,0.2l0.7,0.4l-0.7,0.4l-0.7,0.4l-0.7,0.3l-0.8,0.3l-0.7,0.6
			l-0.8,0.7l-0.1,0.2l-0.1,0.8l-0.6,0.7l-0.6,0.7l-0.4,0.7l-0.1,0.8l0.1,0.7l0.4,0.7l0.3,0.8l0.1,0.7l-0.4,0.7l0.3,0.8l0.3,0.7
			l-0.6,0.7l0.1,0.8l-0.8,0.4l-0.7,0.6l-0.6,0.7l-0.2,0.7l0.4,0.7l0.7,0.6l-0.3,0.7v0.1l-0.7,0.1l-0.7-0.2h-0.4l0.1,0.1l-0.7-0.1
			l-0.2-0.2l-0.7-0.1l-0.7,0.4l-0.6,0.3l-0.8,0.4l-0.3,0.7l-0.7,0.5l-0.8,0.1l-0.7,0.1l-0.7,0.5l-0.4,0.7l-0.4,0.8l-0.4,0.7
			l-0.6,0.7l-0.3,0.7v0.8l-0.4,0.7l-0.6,0.8l-0.3,0.7l-0.1,0.1l-0.1,0.8l0.1,0.7l0.2,0.8l0.3,0.7l0.3,0.7l0.6,0.7l0.6,0.8l0.8,0.4
			l0.7,0.5l0.6,0.7l0.7,0.6l0.7,0.7l0.7,0.6l0.8,0.1l0.7-0.1l0.7,0.1l0.8,0.1h0.8l0.7-0.2l0.7,0.2l0.8,0.7l0.2,0.7l0.3,0.8v1.4
			l-0.1,0.7l-0.3,0.8l-0.4,0.8l-0.8-0.1l-0.7,0.6l-0.7,0.4l-0.7,0.1l0.6,0.1l0.7-0.4l0.8-0.4l0.7-0.1l0.3,0.8l0.4,0.7l-0.7,0.4
			l-0.1,0.7l-0.8,0.2l-0.4,0.8l-0.8,0.6l-0.4,0.7l-0.8,0.6l-0.7,0.3l-0.6,0.7l-0.7,0.6l-0.8,0.4l-0.7,0.6l-0.3,0.7l-0.6,0.7
			l-0.7,0.7l-1,1.4v0.7l-0.2,0.8l-0.5,0.7l-0.3,0.7l0.7-0.6l0.4-0.7v0.7l-0.1,0.8l-0.1,0.8l-0.1,0.7v1.4l-0.1,0.7l-0.1,0.8l-0.6,0.7
			l-0.4,0.4l-0.8,0.5l-0.7,0.4l-0.7-0.3l-0.7-0.7l-0.4-0.6l-0.6-0.7l-0.2-0.6l-0.6-0.3l0.5,0.3l0.2,0.6l0.2,0.2l-0.1,0.8l-0.7,0.1
			l-0.7,0.1l-0.4,0.1l-0.3,0.1l-0.1,0.1l0.5-0.1l0.1-0.1l0.1-0.1l0.4-0.1h1.6l0.4,0.7l0.7,0.4l-0.6,0.7l-0.8,0.3L298,700l-0.7,0.6
			l-0.4,0.7l-0.4,0.7l-0.1,0.7l-0.1,0.8l-0.1,0.7l0.1,0.7l-0.3,0.8l-0.6,0.7l-0.4,0.7l0.1-0.1l0.7-0.7l0.7,0.4l0.1,0.7l0.4,0.7
			l0.3,0.8l0.3,0.7l0.4,0.7l0.1,0.7l-0.7,0.4h-0.8l-0.7-0.2l-0.7,0.2l-0.8,0.5l0.2-0.1l0.7-0.2l0.7-0.1l0.7,0.7l0.7-0.5l0.7,0.1
			l0.6,0.8l0.4,0.7l0.4,0.7l0.5,0.7l0.6,0.8l0.7,0.7l0.6,0.7v0.8l-0.1,0.1l-0.2-0.4l-0.3-0.2l-0.5,0.1l-0.6-0.1h-0.9l-0.7-0.1
			l-0.7-0.4l-0.4-0.1l-0.8,0.2l-0.7,0.4l-0.1,0.8l-0.3,0.7v0.3l-0.1,0.1l-0.1,0.1l-0.7,0.4l-0.8-0.3l-0.7,0.6l-0.2,0.1l-0.7,0.4
			l-0.7,0.5l-0.7,0.5l-0.7,0.1l-0.8,0.2l-0.7,0.4l0.7,0.3l-0.4,0.7l0.1,0.8l-0.1,0.7l-0.1,0.7l-0.3,0.7l0.1,0.7l-0.1,0.8l0.1,0.7
			l0.3,0.8l0.1,0.7l-0.1,0.8l-0.1,0.7l-0.7,0.6l-0.7,0.4l-0.8-0.3l-0.8-0.1l-0.7-0.1l-0.8-0.4l-0.7-0.2l-0.7-0.2l-0.8-0.5l-0.7-0.6
			l-0.7-0.6l-0.1-0.7l0.1-0.7l0.7-0.5l0.8,0.2l0.2,0.7l-0.6,0.7l0.8-0.5l0.1-0.7l0.2-0.8l0.8,0.4l0.1,0.7l0.1,0.8l-0.4,0.7l0.7-0.6
			l-0.1-0.8l-0.1-0.7l0.1-0.7l0.7-0.5l0.7-0.4l0.8-0.6l0.2-0.8l0.4-0.7l-0.1-0.7l-0.7-0.2l-0.7-0.4v0.6l-0.7,0.6l-0.7,0.6l-0.8,0.6
			l-0.4,0.7l-0.6,0.7l-0.7-0.5h-0.7l-0.7,0.2l0.7,0.3l0.5,0.7l-0.8,0.1h-0.7l0.3,0.8v0.7l-0.7-0.4l0.6,0.8l0.7,0.2l0.3,0.7h-0.8
			l-0.7-0.4l-0.8-0.3l-0.7-0.5l-0.7-0.3l-0.7-0.4l-0.5-0.7l0.7-0.1l0.7-0.1l0.8,0.4l0.7,0.6l-0.4-0.7l-0.2-0.7l-0.7-0.4l-0.3-0.7
			l-0.1-0.8l0.1-0.7l0.8-0.6h0.7l-0.3,0.7l0.7-0.2l0.7-0.4l0.6-0.7l0.6-0.7l0.8,0.2h1.4l0.8-0.2l0.8-0.4l-0.6-0.6h-1.5l-0.7,0.1
			l-0.7-0.1l-0.7,0.1l-0.8,0.5l-0.2,0.7l-0.8-0.4l0.4-0.7l-0.7,0.4h-0.8l-0.7-0.1l-0.1,0.7v0.7l0.5-0.7l0.7,0.6l-0.6,0.7l-0.8,0.7
			l0.2,0.7l0.3,0.8l-0.6,0.7l-0.7-0.4l0.1,0.7l-0.7-0.1l-0.4-0.7l0.3-0.8l-0.8-0.5l-0.7-0.5l0.7,0.2l0.3-0.7l0.4-0.7l0.4-0.7
			l0.4-0.8h0.7l-0.7-0.1l-0.8,0.4l0.1,0.8l-0.4,0.7l-0.7-0.5l-0.6,0.7h-0.8l-0.1-0.7l0.2-0.7l0.1-0.7l-0.7-0.1l0.4-0.8l-0.2-0.7
			l-0.6-0.8l-0.1-0.7l0.6,0.7l0.7-0.1l0.7,0.6l0.7-0.4l0.5-0.8l0.7,0.1l0.4,0.7l0.7-0.1l-0.1-0.8l-0.4,0.8l-0.3-0.7l0.2-0.7l0.3-0.8
			l0.7,0.6l0.4,0.8l0.7,0.6v0.7L278,720l-0.7,0.4l-0.6,0.7l0.7-0.4h0.7l0.8,0.1l-0.4-0.7l0.2-0.8l-0.1-0.7l-0.4-0.4l-0.7-0.7
			l0.2-0.7l0.6-0.7l-0.1-0.7l-0.4-0.7l-0.7-0.4l-0.7-0.7l-0.8-0.1l-0.7-0.4l-0.7-0.6l-0.2,0.2l-0.7,0.6l0.7-0.1l0.8,0.3l0.7,0.3
			l0.7,0.1l0.7,0.8l0.8,0.4l-0.5,0.7l-0.7-0.1l-0.7-0.3l-0.8-0.4l-0.7-0.1l-0.8-0.5l0.6,0.7l0.8,0.4l-0.1,0.8h0.7l-0.7,0.4l-0.1,0.7
			l-0.4,0.7l-0.2-0.7l-0.3-0.7l-0.1-0.7l-0.4-0.8l0.2,0.7l0.2,0.7l0.1,0.8l0.3,0.8l-0.1,0.7l-0.7-0.5l-0.8-0.4l-0.3-0.7l0.1-0.7
			l0.7,0.6l-0.3-0.8l-0.7-0.7l0.4-0.8l-0.8,0.3l-0.7,0.3l-0.3-0.7l-0.7-0.1l0.4-0.7l-0.8-0.7l0.1-0.7l0.8,0.5l0.7,0.7l0.6,0.7
			l-0.3-0.8l-0.4-0.7l-0.4-0.8l0.1-0.7l-0.7-0.7l-0.7,0.6l-0.6-0.8l-0.7,0.2l-0.3-0.7l0.1-0.7l-0.7,0.1l0.1-0.7l0.7-0.3l0.8,0.1
			l0.7-0.2l0.1-0.7l-0.1-0.7l0.6-0.7l0.7,0.5l-0.3-0.7l-0.7-0.2v-0.7l0.1-0.7l-0.5,0.6l-0.2,0.7l-0.1,0.7l0.1,0.8l-0.6,0.7l-0.7,0.1
			l-0.7-0.7l-0.4-0.7l-0.1-0.8l-0.2-0.7l0.6,0.7l-0.2-0.7l0.7,0.4l0.8-0.1l-0.8-0.2l-0.7-0.4l0.3-0.8l-0.7,0.6l-0.8-0.3l-0.1-0.7
			l-0.1,0.7l-0.8-0.2l-0.7-0.7l-0.8-0.4l0.6-0.8l0.7-0.1h0.8l0.7,0.6l0.7,0.2l0.8,0.4l0.7-0.1l-0.7-0.1l-0.8-0.5l-0.7-0.1l-0.4-0.7
			l-0.8-0.6l0.5-0.6l0.7,0.5l0.1,0.1l0.7,0.1l0.8-0.1l-0.7-0.2l-0.1-0.2l0.3-0.7l-0.7,0.7l-0.7-0.5h-0.8l-0.4-0.8l0.7-0.4l0.7-0.4
			l-0.7,0.2l-0.7-0.2l-0.1-0.8l0.8-0.5l0.7-0.2l0.7,0.3l0.8,0.7l0.8,0.6l-0.4-0.7l-0.7-0.4l-0.2-0.7h-0.8l-0.7-0.6L265,695l0.4-0.8
			l0.8,0.4l-0.6-0.4l-0.2-0.8l-0.3-0.7l0.2-0.7l0.8-0.1l-0.7-0.1l-0.5,0.7l0.1,0.7l-0.5,0.8l0.1,0.7l-0.1,0.7l-0.5,0.8l-0.7-0.6
			l-0.1-0.7l-0.2-0.8l-0.1-0.7l-0.5-0.7l0.1-0.7l-0.1-0.7l-0.4-0.7l0.7-0.8l0.7-0.3l0.8,0.1l-0.1-0.1l-0.7-0.1l-0.7,0.2l-0.5-0.8
			l0.2-0.7l0.7-0.7l0.7,0.4l0.8,0.3l-0.5-0.7l0.1-0.7l-0.7-0.1l-0.4-0.7l-0.7,0.1l-0.6-0.8l-0.7-0.3l-0.7-0.7l-0.8-0.4l0.7-0.7
			l0.7,0.2l0.8,0.7l0.6,0.7L262,684l-0.3-0.7l0.7-0.1l0.8-0.1l0.7,0.4l0.7,0.1l0.7,0.1l0.8,0.2l0.1,0.8l0.8-0.4l0.7,0.4l0.1-0.7
			l-0.7,0.1l-0.7-0.6l-0.7-0.6v-0.8l0.7,0.6h0.8l0.7-0.1h-0.8l-0.8-0.5l-0.4-0.7l-0.6-0.1l-0.7-0.7l0.1-0.7l-0.4-0.8l0.2,0.7
			l-0.2,0.8l0.1,0.7l-0.7,0.5l-0.7,0.1l-0.7-0.4l-0.7,0.1l-0.8-0.2l-0.7,0.3l-0.8,0.1l-0.7-0.3l0.2-0.7h0.7l-0.4-0.7l0.7-0.2
			l0.8,0.3l-0.1,0.8l0.7,0.2l0.7,0.1l-0.7-0.4l0.6-0.8l0.8-0.1l-0.8-0.1l-0.7,0.2l-0.7-0.6l-0.1-0.7l-0.7,0.1l0.1-0.8l0.6-0.7
			l0.6-0.7l0.7,0.4l0.1-0.7l0.7-0.1l-0.2-0.7l0.3-0.7l-0.7-0.4H261l-0.7-0.7l-0.5-0.7h-0.7l-0.8-0.1l-0.1,0.7l0.7,0.5h-0.7l-0.7-0.1
			l-0.7-0.6l-0.7-0.1l-0.8-0.4l-0.5-0.7l0.3-0.7l0.1-0.8l-0.4,0.7L254,672l-0.7,0.1l-0.8,0.3l-0.8,0.4l-0.1,0.7l0.7-0.7l0.8,0.6
			l0.4,0.7l-0.7,0.8l-0.7-0.2l-0.6-0.8l-0.5-0.7l-0.1-0.8l0.4-0.7l0.7-0.6l0.7-0.4l0.1-0.7l0.7,0.1l0.4-0.7h0.7l-0.7-0.4l0.3-0.8
			l0.7-0.1l0.7-0.8l0.1-0.7v-0.8l-0.5,0.8l-0.7,0.6l-0.7-0.6l0.7-0.4l-0.8-0.2l-0.3-0.7h0.7l0.8-0.3l0.7-0.6l0.7,0.1l0.7,0.6
			l0.8,0.4l-0.4-0.7l0.5-0.8l0.7,0.1l0.7-0.1v0.7l0.7,0.4l-0.6,0.8l0.7,0.4v-0.7l0.6,0.7l-0.3,0.7l-0.7,0.6l-0.8,0.3l-0.7,0.1h0.7
			l0.7-0.2l0.8-0.4l0.6,0.7l0.7,0.1l-0.7-0.7l-0.1-0.8l0.7,0.3l0.7,0.7v0.7l-0.4,0.7l-0.4,0.7l0.1,0.7l0.7-0.4l0.2-0.8l0.2-0.7
			l0.7-0.7l0.1-0.7l0.1-0.7l0.2-0.8l-0.4,0.7l-0.3,0.7l-0.5,0.8l0.1-0.7l0.1-0.8l-0.1-0.7l-0.3-0.7l0.3-0.7l0.1-0.7l0.5-0.7l0.8-0.6
			l0.7-0.2l-0.8-0.2l-0.7,0.4l-0.7,0.5l-0.1-0.7l0.1-0.7v-0.8l0.6-0.8l0.6-0.7l0.8,0.2l0.7,0.4l0.7,0.4h0.8l0.1-0.4l-0.6-0.1
			l-0.7-0.1l-0.8-0.6l-0.7-0.5l-0.7,0.5l-0.8-0.4l0.7-0.8l-0.3-0.7l-0.4-0.7l0.6-0.4l0.7-0.1l0.8-0.4l0.7-0.5l0.6-0.8l0.7-0.6
			l-0.1-0.7l0.1-0.7l0.4-0.8l-0.3-0.7l-0.1,0.7l-0.7-0.2l-0.8-0.4l-0.6-0.7l-0.7-0.1l-0.8-0.4l-0.3-0.2l-0.2-0.7l0.7-0.6l-0.2-0.8
			l0.4-0.7l0.4-0.7l0.2-0.1l0.7-0.2l-0.7-0.2l-0.7-0.1l0.2-0.5l0.3-0.8l-0.2,0.1l-0.7-0.6l-0.4-0.7l0.1-0.8l0.4-0.7l0.6-0.7
			l-0.3-0.8l0.3-0.7l0.7-0.2v-0.9l-0.8-0.6l-0.2-0.7l0.1-0.8l-0.4-0.7l0.3-0.7l0.7-0.1l0.8,0.4l0.2-0.3l-0.6-0.1l-0.6-0.7l-0.6-0.7
			l-0.1-0.8l0.7-0.3l0.7-0.2l0.4,0.8l0.4,0.7l0.4,0.7h0.1l-0.1-0.5l-0.4-0.8l-0.1-0.7l-0.1-0.8l-0.1-0.1l-0.1-0.7l-0.4-0.8l-0.7,0.6
			l-0.7,0.1l-0.7-0.4v-0.8l0.5-0.7l0.6-0.7l0.7-0.1l0.8-0.4l0.3-0.7l0.1-0.8l-0.4-0.8v0.8l-0.1,0.7l-0.5,0.8l-0.7,0.4l-0.7-0.3
			l-0.5-0.7l-0.6-0.6l-0.8-0.1l-0.7,0.7l-0.1,0.7l-0.1,0.7l-0.6,0.8l-0.7-0.1l-0.8,0.3l-0.7,0.1h-0.1l-0.7-0.2l-0.7-0.6l0.4-0.7
			l0.7-0.3l0.1-0.7l-0.4,0.8h-0.6l-0.8-0.1l-0.7-0.7v-0.7l-0.2-0.7l-0.4-0.8l-0.4-0.7l-0.3-0.7l-0.2-0.8l0.6-0.7l-0.2-0.7l0.1-0.7
			l0.1-0.3l0.1-0.8l0.3-0.7l-0.1-0.7l-0.1-0.7v-0.8l0.1-0.7l-0.1-0.4l0.3-0.7l-0.4-0.7l0.6-0.7l0.7-0.6l0.8-0.4l-0.1-0.4l-0.2-0.8
			l0.4-0.7l0.3-0.7l0.1-0.7l-0.1-0.8l0.1-0.2l-0.1-0.8l-0.1-0.7l-0.1,0.4l-0.2-0.7l-0.4-0.8l-0.4-0.7l-0.4-0.7l-0.4-0.8l-0.2-0.6
			h-0.2l-0.3-0.7l-0.3-0.7l-0.2-0.8l-0.2-0.4v-0.8l-0.1-0.7l0.3-0.8v-0.7l-0.1-0.7l-0.4-0.8l-0.5-0.7l-0.6-0.7l-0.4-0.8l-0.2-0.7
			l0.5-0.7l-0.1-0.7l-0.6-0.8l0.1-0.7l0.5-0.8l0.8,0.5l0.7-0.1l0.7-0.3l0.4-0.7l0.1-0.7l-0.1-0.8V584l-0.2-0.8l-0.2-0.1l0.2-0.8
			l0.4-0.7l0.1,0.7l0.7-0.1v-0.8l0.3-1.4l0.1-0.8l0.2-0.6l-0.1-0.7v-0.7l0.1-0.8v-0.8l0.6-0.8l0.6-0.7v-0.7l-0.4-0.8l-0.1-0.7
			l0.8-0.6l0.1-0.7l0.4-0.8v-0.2l0.1-0.4l0.6-0.8l0.6-0.7l0.1-0.7v-0.9l0.2-0.8l0.3-0.7l0.1-0.4l0.1-0.8l-0.1-0.7v-1.5l0.4-0.5
			l-0.1-0.7l-0.3-0.8l0.3-0.7l0.4-0.7l0.1-0.8l0.1-0.1l0.1-0.7l0.4-0.7l0.8-0.6l0.1-0.8l0.1-0.8l-0.6-0.7l-0.1-0.8v-0.7l-0.4-0.7
			l-0.4-0.7l0.6-0.8l0.7-0.4l0.1-0.8l0.1-0.6l0.1-0.7l0.3-0.8l-0.1-0.7l-0.2-0.7l0.2-0.7v-0.7l-0.5-0.7l-0.5-0.8v-0.1l-0.1-0.7
			l0.1-0.8l-0.1-0.7V537l-0.4-0.7l-0.3-0.7V535l-0.3-0.7l-0.3-0.7l-0.1-0.8L260,532l-0.2-0.8v-0.7l-0.1-0.7l-0.3-0.7l-0.2-0.7
			l-0.1-0.7l-0.1-0.2l-0.1-0.7V526l0.1-0.8l-0.1-0.8l0.6-0.7l0.8-0.4l0.7-0.7l0.1-0.8l-0.4-0.7l0.4-0.4l0.5-0.7l-0.1-0.4l-0.4-0.8
			l0.1-0.7l0.1-0.7l-0.4-0.7l0.1-0.8l-0.3-0.7l-0.6-0.7l-0.7-0.5l-0.1-0.4l-0.1-0.7V512l-0.2-0.8l0.4-0.7l0.6-0.7l0.5-0.8v-0.7
			l0.3-0.7l0.3-0.8l0.1-0.3l0.1-0.6l-0.1-0.7l0.1-0.8l-0.1-0.7l0.1-0.3v-1.5l0.3-0.7l0.2-0.8l0.1-0.7l0.7-0.2l0.1-0.7l0.1-0.7
			l-0.4-0.7l-0.1-0.7l-0.1-0.3l-0.1-0.7l-0.1-0.7l0.7-0.6l0.4-0.7l-0.2-0.8v-0.8l0.4-0.7l0.3-1.4l-0.1-0.7l0.1-0.7l0.2-0.7l-0.1-0.7
			l-0.1-0.8v-0.7l0.2-0.7l-0.3-0.8l-0.5-0.7l-0.1-0.7l0.1-0.7l0.4-0.8l-0.1-0.7l0.7-0.5l0.3-0.7l0.5-0.7l0.1-0.7l-0.2-0.8l-0.4-0.7
			l0.2-0.7l-0.5-0.8l-0.3-0.7l-0.1-0.7l-0.2-0.8l0.1-0.7l-0.1-0.7l0.1-0.8l-0.1-0.8l0.1-0.7l0.2-0.7l-0.1-0.7l-0.2-0.8l0.1-0.7v-0.8
			l-0.1-0.5l0.5-0.7l0.2-0.8V462l-0.6-0.7l-0.7,0.6l-0.4-0.7l-0.1-0.8l-0.1-0.7l0.1-0.7l0.1-0.8l0.2-0.7l0.7,0.4h0.1l0.7-0.6
			l0.2-0.8v-0.7l-0.1-0.7l0.1-0.8v-0.8l0.1-0.7l-0.1-0.7v-0.8l0.1-0.7l0.1-0.8l0.1-0.7l0.1-0.7l0.1-0.8l0.1-0.7l-0.1-0.8l-0.1-0.7
			l0.2-0.7l0.3-0.8l0.1-0.7v-0.2l-0.1-0.2l-0.3-1.4l-0.3-0.8l-0.2-0.7l-0.3-0.8l0.1-0.7l-0.4-0.7l-0.1-0.7v-0.8L264,435l0.1-0.8
			l-0.1-0.7l0.1-0.8l0-0.7l-0.1-0.7l0.1-0.8v-0.7l-0.1-0.4l-0.1-0.7l-0.2-0.7v-0.8l-0.4-0.7l-0.1-0.7l-0.1-0.1v-0.7l-0.4-0.7
			l-0.4-0.8l0.1-0.7l-0.1-0.8l-0.3-0.7l-0.1-0.8l-0.1-0.7l-0.3-0.8l0.1-0.7l-0.1-0.7l0.1-0.7l0.1-0.7l-0.1-0.4L261,415l-0.3-0.2
			l-0.7-0.6l-0.8-0.4l-0.7-0.5l-0.8-0.6l-0.7-0.4l-0.6-0.7l-0.7-0.4l-0.1-0.1l-0.8-0.2l-0.7-0.5l-0.1-0.2l-0.8-0.4l-0.7-0.6
			l-0.1-0.8l-0.2-0.8l-0.3-0.7l-0.7-0.6l-0.3-0.3l-0.7-0.2l-0.7-0.3l-0.7-0.1l-0.7-0.3h-0.1l-0.8-0.7l-0.7-0.4l-0.7-0.1l-0.3-0.5
			l-0.7-0.5l-0.7-0.5l-0.6-0.7l-0.7-0.4l-0.7-0.2l-0.8-0.2h-0.7l-0.8-0.1l-0.3-0.2l-0.5-0.4l-0.7-0.2l-0.7-0.3l-0.8-0.4l-0.3-0.2
			l-0.7-0.1l-0.8-0.6l-0.7-0.2l-0.7-0.1l-0.7-0.2l-0.7-0.1l-0.7-0.2l-0.8-0.3l-0.7-0.4l-0.7-0.5l-0.7-0.7l-0.7-0.3l-0.8-0.2
			l-0.7-0.3l-0.7-0.1l-0.7-0.7l-0.8-0.4l-0.2-0.1l-0.7-0.1l-0.8-0.4l-0.7-0.2l-0.8-0.5l-0.7-0.2l-0.7-0.3l-0.1-0.1l-0.8-0.4
			l-0.1-0.6l-0.6-0.7l-0.7-0.6l-0.7-0.4l-0.5-0.7l-0.1-0.1l-0.6-0.7l-0.7-0.4l-0.7-0.3l-0.8-0.4l-0.7-0.4l-0.7-0.5l-0.2-0.7
			l-0.4-0.7l-0.7-0.8l-0.7-0.7l-0.1-0.7l-0.7-0.6l-0.7-0.1l0.1-0.8l-0.1-0.7l-0.3-0.7l-0.8-0.1l0.4-0.7l0.8,0.4l0.1-0.8l0.1-0.7
			l0.1-0.2l0.1-0.8v-0.8l-0.2-0.7l-0.5-0.7l-0.1-0.2l-0.7-0.7l-0.6-0.7l-0.6-0.6l-0.4-0.7l-0.1-0.8l-0.5-0.7l-0.7-0.7l-0.4-0.8
			l-0.6-0.7l-0.4-0.7l-0.3-0.8l-0.7-0.6l-0.7-0.4l-0.7-0.4l-0.4-0.7l-0.8-0.3l0.1-0.2l0.1-0.4l-0.1-0.7l-0.4-0.8l0.1-0.7L198,359
			l-1.4-1.4l-1.4-0.9l-0.8-0.2l-0.6-0.8l0.4-0.7l-0.4-0.7l-0.1-0.4l-0.3-0.7l-0.4-0.8l-0.4-0.7L192,351l-0.7-0.8v-0.1l-0.5-0.7
			l-0.6-0.8l-0.4-0.7l-0.6-0.7l-0.5-0.8l-0.2-0.7l-0.3-0.7l-0.4-0.7l-0.1-0.7l-0.4-0.7l-0.6-0.8l-0.4-0.7l-0.1-0.7l-0.4-0.8
			l-0.2-0.7l-0.7-0.5l0.1-0.8l-0.7-0.1l-0.1-0.7l-0.4-0.6l-0.1-0.3v-0.4l-0.6-0.8l-0.6-0.7l0.1-0.8l-0.2-0.7l-1.4-1.4l-0.3-0.7
			l-0.4-0.8l-0.7-0.7l-0.7-0.6l-0.8-0.6l-0.7-0.5l-0.7-0.7l-0.5-0.7l-0.3-0.8l-0.4-0.8l-0.6-0.7l-0.3-0.7l-0.2-0.7l-0.2-0.5
			l-0.8-0.8v-0.1l-0.3-0.7l-0.7-0.7l-0.8-0.6l-0.6-0.6v-0.1l-0.4-0.7l-0.3-0.2l-0.8-0.6l-0.7-0.3l-1.6-0.6l-0.7-0.4l-0.8-0.4
			l-0.8-0.6l-0.6-0.3l-0.8-0.1l-0.7-0.3l-0.8-0.3l-0.7-0.2l-0.8-0.3l-0.7-0.1v-0.7l-0.2-0.7l0.2-0.8l0.8-0.5l0.7,0.4l0.8-0.6
			l0.1-0.7v-0.8l-0.4-0.9l-0.4-0.7l-0.7-0.7l-0.7-0.6l-0.8-0.6l-0.1-0.7V303l0.7-0.2l-0.1-0.8l-0.8-0.6l-0.6-0.7l-0.7-0.6l-0.1-0.7
			l0.1-0.8l-0.1-0.6l0.2-0.6l0.1-0.4l-0.1-0.8l0.2-0.4l0.4-0.3l0.4-0.4l0.4-0.6l0.6-0.4l0.3-0.6l0.6-0.8l0.8-0.6l0.1-0.8l0.7-0.8
			l0.8-0.5l0.7-0.7l0.4-0.7l0.7-0.3l0.8-0.3l0.2-0.8v-0.1l0.1-0.1l0.7-0.4l0.5-0.1l0.5-0.1l0.1-0.2l0.7-0.4l0.2-0.3l0.1-0.1l0.4-0.3
			l0.1-0.7l0.4-0.7l0.1-0.3l0.1-0.8l0.4-1.6l0.3-0.7l0.4-0.9v-0.7l-0.8-0.7l-0.4-0.8l-0.1-0.8l-0.2-0.8v-0.1l0.5-0.7l0.4-0.7
			l-0.5,0.4L169,275l-0.1,0.6v0.3l0.1,0.2l0.2,0.8l0.1,0.8l-0.1,0.8l-0.4,0.8l-0.2,0.1l-0.4,0.3l-0.6-0.4l0.6-0.9l0.4,0.1l0.3-0.1
			l-0.6-0.1l-0.2-0.3l0.1-0.1l0.1-0.4V277l-0.4,0.3l-0.2,0.7l-0.4,0.8l-0.7,0.8l-0.8,0.5l-0.3,0.7l-0.8-0.6l-0.8-0.4l-0.7-0.6
			l-0.8-0.7l-0.7-0.4h-0.8l-0.4-0.2l-0.6-0.5l-0.2-0.8l0.3,0.1l0.5-0.3l0.8-0.8l0.1-0.8l0.1-0.7l-0.2-0.8l-0.2-0.7l-0.5-0.8v-0.1
			l-0.3-0.8l0.2-0.7l0.4-0.7l0.1-0.8l-0.4-0.7l-0.6-0.7l-0.4-0.7l0.1-0.7l0.6-0.8l0.7-0.1l0.8-0.1l0.7-0.4l0.3-0.7l0.1-0.7l0.4-0.7
			l0.4-0.8l0.7,0.5l0.7-0.1l-0.2-0.1l-0.8-0.1l-0.4-0.8l-0.5-0.7l0.2-0.7l0.6-0.7l0.4-0.8l0.7-0.4l0.6-0.7l0.7-0.7l0.1-0.2l0.4-0.8
			l0.1-0.7l-0.1-0.7l0.4-0.8h0.1v-0.4l-0.4-0.5l0.1-0.7l-0.1-0.7l-0.1-0.1l-0.6-0.8l0.2-0.7l0.7-0.4h0.1l0.7-0.4l0.7-0.4l0.7-0.7
			l0.8,0.1l0.2,0.7l0.1,0.2l-0.1-0.3l-0.2-0.2l0.4-0.8l0.7-0.4l0.7-0.6l0.7-0.1l0.8-0.1l0.7-0.1l0.7-0.7l0.7-0.4l0.4,0.7l0.1-0.1
			l0.1-0.8l0.7-0.7l0.1-0.7l0.4-0.7l-0.4-0.7l-0.7-0.5h-0.4l-0.7-0.4l0.5-0.7l0.6-0.8l0.8-0.4l0.7,0.1l0.8-0.1l0.7,0.1l0.2-0.7
			l-0.4-0.7l-0.1-0.7l-0.5-0.8l-0.2-0.7l0.4-0.9l0.4-0.8l0.7-0.6l0.6-0.7l0.7,0.4l1.4-0.9l0.8,0.4l0.7-0.6l0.7-0.1l0.1-0.5l0.7,0.4
			l0.8-0.2v-0.8l-0.4-0.7l0.6-0.4l0.7-0.7l0.4-0.7l-0.7-0.4l0.7-0.6l0.6-0.1l0.4-0.8l0.1-0.7l0.7-0.4l0.1-0.3l0.1-0.7l0.7,0.4
			l-0.4-0.7l0.4-0.8l0.4-0.7l0.6-0.4l0.7-0.6l-0.6-0.7l0.7-0.4l0.5-0.8l-0.7,0.1l-0.8,0.4l-0.7-0.4l0.1-0.8h0.7l0.1-0.7l-0.7-0.1
			l-0.5,0.8l-0.7,0.1l-0.2-0.7l-0.1-0.7l0.7-0.7h0.7l0.4-0.4h-0.8l-0.5-0.7l0.3-0.7l0.1-0.8l0.1-0.7l0.2-0.8v-0.7l-0.5-0.8l-0.1-0.7
			v-0.5l-0.1-0.7v-0.8l0.1-0.7l-0.1-0.8l-0.2-0.7l-0.7-0.7l-0.2-0.7l0.7-0.4l0.8,0.1l0.6-0.8l0.2-0.7l-0.4-0.7l-0.4-0.7l-0.5-0.8
			l-0.6-0.7l-0.3-0.8v-0.7l0.7,0.4l0.4-1.4l-0.1-0.7l0.2-0.8l-0.6-0.7L189,194l-0.6-0.7l-0.8-0.6l-0.3-0.7l0.1-0.7l-0.7-0.6
			l-0.1-0.1l-1.1-0.9l-0.1-0.1l0.8-2.1l0.5-0.5l0.1-1.7l1.5,1.2l2-1.5l0.5-1.8l1.2-0.3l-2.7-5.3L190.2,176.5z M307.9,143.9l-0.4-0.8
			L307.9,143.9L307.9,143.9 M288.7,144.7l0.7-0.1L288.7,144.7 M342.8,149.3l0.3-0.8l0.7-0.6l0.7-0.2l0.8-0.2v0.7l-0.7,0.3l-0.8,0.2
			l-0.7,0.4L342.8,149.3 M301.4,152.1l-0.7-0.1l0.7-0.6l0.7,0.4L301.4,152.1 M312.7,152.1l-0.6-0.7l-0.7,0.1l-0.8-0.1l-0.7-0.1
			l-0.1-0.7l0.7-0.2l0.7-0.1l0.8,0.6l0.7,0.2l0.6-0.7l0.7-0.7l0.7,0.6l0.5,0.7l-0.8,0.4l-0.8,0.4l-0.7,0.2L312.7,152.1 M314.1,153.1
			l-0.8-0.3l0.7-0.1L314.1,153.1"/>
		<path id="path203" fill="none" stroke="#FFFFFF" stroke-miterlimit="1" d="M363.2,555l-0.2-0.3l-0.4-0.8l-0.4-0.7l-0.2-0.7
			l-0.1-0.7V551l-0.1-0.7v-0.7l0.4-0.7l-0.1-0.8l0.4-0.7v-0.7l0.1-0.7l0.7-0.4l0.7,0.1l0.5-0.7V544l0.1-0.7l-0.2-0.7v-0.8l-0.1-0.7
			l-0.2-0.8l-0.1-0.7l0.1-0.3l0.6-0.8v-0.7l-0.3-0.2l-0.2-0.4l0.1-0.7l0.1-0.2l0.1-0.7l-0.4-0.8l0.6-0.7l0.7-0.7l0.4-1.4l-0.4-0.7
			l-0.4-0.4l0.7-0.6l0.1-0.4l0.4-0.7V529l0.1-0.7l0.2-0.7l0.1-0.7l-0.1-1l0.7-0.4v-0.7l-0.1-0.4l-0.1-0.4l-0.4-0.7l-0.1-0.7l0.3-0.5
			l0.7-0.5l0.7-0.6l0.4-0.8v-0.7h0.1 M400.3,552.3l-0.4-0.5l-0.7-0.1l0.1-0.7l0.1-0.7l0.1-0.8v-0.7l-0.1-0.7v-0.8l0.3-0.7l0.7-0.6
			l0.7-0.4l0.3-0.7l0.8-0.6l0.7-0.7l-0.4-0.7l-0.1-0.1l-0.8-0.5l-0.6-0.3h-0.1l-0.7-0.7l-0.7-0.8l-0.4-0.8l-0.1-0.7l-0.4-0.8
			l-0.2-0.8l-0.8-0.5l-0.6-0.8h-0.1l-0.7-0.4l-0.8,0.1l-0.7-0.6l-0.7-0.6l-0.6-0.8l-0.4-0.1v-0.8l-0.6-0.7l-0.8-0.5l-0.7-0.2
			l-0.8-0.2l-0.7-0.7l-0.4-0.5l-0.7,0.4l-0.7-0.6l-0.6-0.7l-0.5-0.7l-0.3-0.7l-0.7-0.7l-0.5-0.6l-0.7-0.3l-0.1,0.7l-0.8,0.2
			l-0.6,0.7l-0.8,0.3h-0.7l0.1-0.9l0.1-0.7l0.1-0.7l-0.7-0.8l-0.4-0.8l-0.6-0.7l-0.8-0.6l-0.6-0.7l-0.5-0.4l-0.6-0.8l-0.6-0.7
			l-0.8-0.5l-0.7-0.6l-0.7-0.1l-0.8,0.2l-0.7,0.4l-0.3,0.7l-0.8,0.2l-0.8-0.1l-0.7-0.1h-0.7l-0.1-0.4l-0.4-0.4"/>
		<path id="path205" fill="none" stroke="#FFFFFF" stroke-miterlimit="1" d="M394.3,478.3L394.3,478.3l-0.4,0.8l0.1,0.7l0.3,0.7
			l-0.3,0.8l-0.4,0.7l0.1,0.7l-0.1,0.7l-0.1,0.8l-0.1,0.7l-0.2,0.8l-0.6,0.7l-0.2,0.7l-0.2,0.8h-0.7l-0.4,0.7l-0.5,0.4l-0.7,0.4
			l-0.3,0.8l-0.7,0.2l-0.2-0.1l-0.7,0.1l-0.8,0.2l-0.2,0.8l-0.7,0.2l-0.5,0.8l0.1,0.7l-0.2,0.7l-0.8,0.5l-0.6,0.2l-0.6-0.8l-0.8-0.1
			l-0.3-0.1l-0.7-0.1l-0.7,0.3l-0.7,0.7l-0.4,0.7l-0.5,0.7l-0.7-0.5l-0.6-0.7h-0.7l-0.3,0.1l-0.7,0.4l-0.7-0.6l-0.7-0.1l-0.7,0.4
			l-0.7,0.1l-0.8-0.2l-0.7-0.4h-0.7l-0.7-0.4l-0.8-0.1l-0.8-0.4l-0.7-0.4l-0.7-0.1l-0.7-0.1l-0.8,0.1l-0.7-0.1l-0.7-0.1l-0.7,0.2
			l-0.8-0.1l-0.7,0.1l-0.8,0.2l0.1-0.1v-0.5l-0.4-0.8l0.7-0.6l0.6-0.7l0.4-0.7l0.7-0.4l0.1-0.6l0.7-0.4l0.1-0.7l0.6-0.7l-0.4-0.6
			l0.2-0.8l0.1-0.7l0.1-0.8l1-1.4l0.8-0.5l0.7-0.4l0.1-0.7l0.4-0.8l0.1-0.2l0.4-0.7l0.4-0.8l0.8-0.4l0.4-0.8l0.1-0.7l-0.7-0.6
			l-0.2-0.7l-0.3-0.2l-0.1-0.2l-0.3-0.8l-0.8-0.6l-0.7-0.2l-0.8-0.3l-0.7-0.4L365,472l-0.7,0.2l-0.8-0.4l-0.5-0.7l-0.7-0.3l-0.8-0.1
			l-0.7-0.4l-0.8-0.1l-0.7-0.6l-0.7-0.6l-0.7-0.5l-0.7-0.2l-0.8-0.5l-0.1-0.1l-0.7-0.6l-0.7-0.7l-0.8-0.6l-0.7-0.6l-0.7-0.4
			l-0.8-0.5l-0.7-0.5l-0.7-0.5l-0.4-0.1l-0.8,0.2h-0.7l-0.7-0.1h-0.2l-0.8-0.3l-0.7-0.3l-0.8-0.5l-0.7-0.1l-0.7-0.1h-0.4l-0.8-0.5
			l-0.7-0.3l-0.1-0.2l-0.6-0.7l-0.2-0.8l-0.3-0.1l-0.7-0.4l-0.7-0.6l-0.7-0.3l-0.7-0.3l-0.5-0.7l-0.7-0.4l-0.8-0.5l-0.5-0.8
			l-0.7-0.6l-0.7-0.5l-0.3-0.7l-0.5-0.7l-0.5-0.8l-0.4-0.7l-0.6-0.7V450l-0.7-0.4l-0.4-0.1h-0.1l-0.7-0.7l-0.7-0.5l-0.7-0.7
			 M368.9,519.3l0.7-0.3l0.6-0.7l0.7-0.6l0.2-0.7l0.1-0.7l0.8-0.5l0.7-0.1l0.3-0.2l0.3-0.4l0.6-0.8l0.6-0.7l0.6-0.7l0.3-0.4l0.7-0.7
			l0.3-0.7l0.3-0.7l0.7-0.6l0.8-0.2l0.2-0.7l0.7-0.6l0.1-0.7l0.8-0.6l0.6-0.7l0.7-0.6l0.1-0.7l0.7-0.5l0.3-0.7l0.7-0.4l0.7,0.4
			l0.4-0.7l-0.8-0.5l0.8-0.5l0.4-0.5l0.3-0.2l0.7-0.4l0.7-0.2l0.6-0.8l0.5-0.3l0.7-0.6l0.7-0.1l0.8-0.5h0.1l0.7-0.7l0.4-0.8l0.4-0.7
			l0.7,0.2l0.7-0.2l0.4-0.7l0.7,0.3l0.7-0.6l0.8,0.2l0.7-0.6l0.3-0.7l0.7,0.1l0.7-0.6l0.7-0.4l0.7,0.1l0.4-0.6l0.4-0.8l0.4-0.7
			l0.1-0.7l-0.3-0.8l0.2-0.7v-0.8l0.1-0.7l0.1-0.7l0.1-0.8l0.5-0.8v-0.2l-0.4-0.7l-0.3-0.8l-0.4-0.7l-0.2-0.8l-0.1-0.7l-0.2-0.7
			l-0.1-0.7l-0.6-0.8l-0.7-0.3l-0.8-0.3l-0.7,0.6l-0.7-0.3l-0.7,0.6l-0.8-0.3l-0.5-0.3h-0.1"/>
		<path id="path207" fill="none" stroke="#FFFFFF" stroke-miterlimit="1" d="M365.8,428.7l0.2-0.7V427l-0.2-0.7v-0.7l-1.8-1.2
			l-1.2-0.7l-1.3-0.8l-0.9-0.6l-0.4-0.2l-2-1.3l-0.1-0.1l-1,0.1h-4.2l-2.2,0.1h-0.5l-0.5,0.1l-0.8,0.2l-2.4,0.6l-0.8,0.2l-0.8,0.2
			l-0.3,0.1l-0.8,0.1l-0.8,0.1l-0.8,0.1l-0.7,0.1l-0.8,0.1l-0.8,0.1l-0.7,0.1l-0.8,0.1l-0.8,0.1l-0.8,0.1l-0.8,0.1l-0.8,0.2
			l-0.3,0.8l-0.3,0.7l-0.3,0.8l-0.3,0.8l-0.2,0.7v0.1l-0.4,0.5l-0.5,0.7l-0.5,0.8l-0.5,0.7l-0.5,0.8l-0.1,0.1l-0.5,0.7v1.7l0.1,0.8
			v2.3l-0.2,0.8l-0.2,0.8l-0.2,0.7l-0.4,1.6l-0.3,0.7l-0.2,0.9l-0.1,0.4l-0.2,0.7l-0.2,0.8l-0.2,0.8l-0.2,0.7l-0.2,0.8l-0.3,0.8
			 M394.3,478.3v-0.6l-0.1-0.3l0.1-0.5l0.1-0.1l0.4-0.7l0.5-0.7l0.4-0.7l-0.1-0.8l0.1-0.7l0.3-0.7l0.1-0.8l0.5-0.9l0.1-0.4l0.2-0.7
			l-0.1-0.7l0.2-0.7l0.5-0.8l-0.1-0.7L397,466l-0.1-0.8l0.8-0.6l-0.6-0.4l-0.6-0.6l-0.7-0.6l-0.7-0.4l-0.7-0.1l-0.7,0.3l-0.8,0.3
			l-0.7,0.6l-0.7,0.1l-0.4,0.1l-0.8,0.1l-0.7-0.1l-0.7-0.1l-0.8-0.6v-0.7l-0.1-0.8l-0.1-0.7l-0.6-0.7v-0.7l-0.1-0.3l0.2-0.7
			l-0.3-0.8l0.2-0.7l-0.1-0.5l-0.4-0.7l-0.1-0.8l-0.1-0.7l-0.1-0.7l0.1-0.8l0.2-0.7l-0.2-0.7l-0.7-0.7l-0.1-0.8l-0.2-0.7l-0.8-0.6
			l-0.5-0.1l-0.7-0.1l-0.7,0.1l-0.7-0.2l-0.7-0.5l-0.8-0.6l-0.2-0.8l-0.8,0.1l-0.3,0.3l-0.4,0.7l-0.8,0.5l-0.7-0.1l-0.8,0.5
			l-0.7-0.4l-0.6-0.1h-0.7l-0.7-0.2h-0.7l-0.8-0.1l-0.7-0.2l-0.7-0.1l-0.2-0.1l-0.7-0.4l-0.7-0.3l-0.7,0.4l-0.7-0.1l-0.7-0.4V446
			l0.2-0.7l0.3-0.8l-0.1-0.7v-0.5l0.4-0.6l-0.1-0.2l-0.1-0.7l0.1-0.1l-0.4-0.8l0.4-0.7l0.4-0.7l-0.1-0.8l0.3-0.7V437l0.1-0.8
			l-0.6-0.7l0.4-0.7l-0.7-0.4l0.5-0.7l-0.7-0.6l-0.2-0.7l-0.1-0.7l-0.3-0.7l-0.4-0.7l-0.6-0.8l0.1-0.7"/>
		<polyline id="polyline209" fill="none" stroke="#FFFFFF" stroke-miterlimit="1" points="365.8,428.7 366,428.6 366.8,428.1 
			367.5,427.5 368.3,427.2 368.4,427 367.9,426.5 367.1,425.7 366.3,425 366.6,424.1 366.8,423.4 367.2,422.6 367.6,421.9 
			367.9,421.1 368.3,420.4 368.6,419.7 369,418.9 369.8,418.3 369.7,418.1 369.7,417.4 369.4,417 369.6,416.2 369.9,415.5 
			370.1,414.7 370.4,414 370.6,413.3 370.8,412.5 371.1,411.8 371.5,411 371.1,410.3 370.8,409.6 370.2,408.3 370.2,407.5 
			369.9,406.7 369.7,406.6 369.3,405.9 369.5,405.4 369.2,405.1 368.5,404.5 368.3,404.3 367.6,404.6 367.1,404.5 366.4,403.8 
			365.6,403.3 364.9,402.8 364.2,402.5 363.9,401.8 364,401 363.8,400.2 363.6,399.5 363.5,398.7 363.5,398.6 363.4,397.9 
			363.4,397.1 363.7,396.5 364.4,395.7 364.4,395 364.7,394.2 364.7,393.5 363.7,394 363,394 362.8,393.9 362.1,393.9 361.4,393.8 
			359.9,393.8 359.1,393.8 358.6,393.8 357.8,393.7 357.1,393.7 356.3,393.6 355.5,393.6 354.9,393.5 353.4,393.5 353.2,393.5 
			351.7,393.5 350.9,393.4 350.2,393.4 349.6,393.3 348.8,393.3 348.7,392.5 348.6,391.8 348.6,391.1 348.6,390.3 348.5,389.6 
			348.4,388.8 348.3,387.4 348.2,386.6 347.8,385.8 347.2,385.1 346.5,384.3 345.9,383.6 345.8,382.7 347.9,382.7 347.9,381.9 
			347.8,381.1 347.8,379.9 347.8,378.8 347.1,377.8 347.2,377.3 346.8,376.6 346.5,375.8 346.2,375.1 346,374.4 346.3,373.7 
			346.8,373 346.5,372.6 346.3,371.8 345.9,371.1 345.1,370.9 344.4,370.6 343.7,370 343.6,370 342.8,369.7 342.1,369.3 
			341.4,368.8 340.6,368.3 339.8,368.6 339.1,368.6 338.4,368.3 337.6,368.7 336.9,368.9 336.1,368.5 335.7,368.6 334.9,368.8 
			334.2,368.9 333.9,368.7 333.7,368 332.9,367.4 332.1,366.8 331.5,366 331.5,365.3 330.8,365.1 330.1,365.3 329.3,365.3 
			328.5,364.8 327.8,364.7 327.1,364.4 326.3,363.7 325.6,364.1 324.9,363.5 324.3,362.7 323.6,362.3 323.3,361.6 322.6,360.9 
			321.8,361.1 321.1,361.4 320.3,361.1 319.6,360.6 318.8,360.1 318.1,359.7 317.3,359.4 316.6,359.3 315.9,359.7 315.1,360 
			314.4,359.9 313.6,359.8 312.9,359.6 312.2,359.6 311.9,359.5 311.2,359.4 310.8,358.9 310.5,358.2 310.4,357.4 309.7,357.3 
			309.5,357.3 308.7,357 308,356.3 307.3,355.6 306.6,355.5 305.9,355.5 305.8,354.9 305.9,354.7 305.8,354.6 305.4,353.9 
			304.8,353.1 304.1,353.2 304.1,352.5 303.8,351.8 303.5,351.1 302.8,350.5 302.6,349.8 302.3,349.1 302.2,348.3 302.5,347.6 
			302.6,346.8 302.8,346.1 302.8,345.4 302.8,345.2 302,344.8 302.2,344 301.8,343.3 301.7,342.6 301.5,341.9 302,341.1 
			302.3,340.6 302.8,339.8 302.8,339 302.7,338.3 302.5,337.5 302.5,337.4 302.5,336.6 302.6,335.9 302.2,335.2 301.5,334.7 
			301,335 300.5,335.7 299.7,335.9 298.9,335.4 298.2,335.7 297.5,335.6 296.8,335.7 296,335.9 295.3,335.9 294.6,336.2 
			293.8,336.4 293,336.7 292.3,336.8 291.5,336.9 290.8,337.2 290.4,337.5 289.7,338 289,338.5 288.3,339.1 287.6,339.8 
			286.9,340.6 286.1,341 286,341 285.3,340.9 284.5,341.6 283.8,342.1 283,342.5 282.3,343 281.7,343.7 281.7,343.8 281.5,344.5 
			281.1,344.7 280.4,344.3 278.9,344.3 278.1,344.7 277.7,345.4 277.1,346.1 276.8,346.9 276,347.6 275.3,348 274.5,348 
			273.8,348.6 273.6,348.7 272.8,348.9 272.1,348.5 272.3,347.8 271.7,347.8 270.9,347.9 270.2,347.8 269.5,347.5 268.8,347.5 
			268.1,347.5 267.3,347.5 266.5,347.3 265.8,347.6 265,347.6 		"/>
		<path id="path211" fill="none" stroke="#FFFFFF" stroke-miterlimit="1" d="M290.4,454l-0.8,0.2l-0.8,0.2l-0.8,0.2l-0.8,0.2h-0.7
			l-0.8-0.1l-0.8-0.3l-0.4-0.8v-0.7l0.1-0.7l-0.1-0.8l-0.1-0.7l-0.4-0.7l0.1-0.7l-0.3-0.7v-0.8l-0.8-0.7l-0.5-0.7v-0.8l-0.1-0.7
			L282,444l-0.6-0.8v-0.8l-0.1-0.7v-0.8l-0.4-0.8l-0.1-0.1l-0.1-0.1l-0.1-0.1l-0.2-0.4l-0.5-0.8l-0.6-0.8l-0.7-0.4l-0.5-0.1
			l-0.3-0.8l-0.1-0.8l0.4-0.7l-0.1-0.7l-0.7-0.4l-0.7-0.4l-0.6-0.7l0.2-0.7v-1.7l-0.5-0.7l0.7-0.2l0.7-0.1l0.3-0.5V429l0.2-0.7
			l-0.4-0.7l-0.4-0.3l-0.8-0.6l0.6-0.7l0.4-0.8l0.2-0.3l0.5-0.8l-0.1-0.7l-0.8-0.5l-0.7-0.4l-0.6-0.7l-0.8-0.7l-0.8-0.4l-0.1-0.2
			l-0.6-0.7l0.1-1l-0.4-0.7l-0.2-0.8l-0.1-0.7l-0.1-0.5l-0.1-0.7l-0.4-0.8l-0.1-0.7l-0.3-0.8l-0.1-0.7l0.4-0.7l-0.6-0.1l-0.7-0.3
			l-0.8-0.4l-0.1-0.8l-0.2-0.7l-0.7-0.7l-0.7-0.8l-0.1-0.6v-0.3 M328,447.5L328,447.5l-0.8-0.7l-0.4-0.7l-0.1-0.7h-1.3l-0.8,0.1
			h-2.4l-0.7,0.1h-1.9l-0.3,0.2l-0.2,0.1L319,446l-0.1,0.1l-1-0.4l-0.8,0.2l-0.4,0.7l-0.3,0.7l-0.4,0.7l-0.4,0.7l-0.1,0.8l-0.6,0.8
			l-0.3,0.7l-0.2,0.8v0.7l-0.1,0.7l-0.1,0.4l-0.3-0.7l-0.4-0.7l-0.1-0.3l-0.4-0.4l0.2-0.8l-0.6-0.7l-0.4-0.8l-0.1-0.7l-0.3-0.7
			l-0.8-0.4h-0.6l-0.7-0.3L309,447l-0.7-0.3l-0.6,0l-0.8,0.1h-1.1l-0.8,0.1h-1.6l-0.1,0.1l-0.7,0.1h-0.7l-0.7-0.6l-0.9-0.9l-0.8-0.1
			l-0.7-0.8l-0.9-0.3l-0.1,0.1l-0.1,0.8l-0.2,0.7l-0.1,0.8l-0.4,0.7l-0.6,0.1l-0.7,0.3l-0.8,0.3l-0.8,0.1l-0.4,0.7l-0.1,0.8v0.1
			l-0.5,0.7l-0.9,0.4l-0.6,0.8l-0.1,0.9l-0.7,0.7l-0.4,0.7"/>
		<path id="path213" fill="none" stroke="#FFFFFF" stroke-miterlimit="1" d="M265,347.6h-0.1l-0.7,0.1h-0.8l-0.7-0.1l-0.7-0.1
			l-0.7,0.4l-0.4,0.2l-0.7,0.4l-0.7,0.4l-0.8,0.2h-0.7l-0.7-0.4l-0.7-0.6l-0.1,0.1l-0.7,0.1l-0.1-0.7v-1.5l-0.1-0.3v-1.5l-0.1-0.7
			v-0.8l-0.1-0.7v-0.8l-0.1-0.7v-1.8l0.1-0.7l0.7-0.7l-0.4-0.7l-0.4-0.7l0.4-0.5l0.4-0.8l-0.4,0.1l-0.7,0.5l-0.7,0.7l-0.7,0.7
			l-0.8,0.6l-0.6,0.7l-0.7,0.5l-0.7,0.4l-0.4,0.7l-0.7,0.4l-0.8,0.2l-0.6,0.1l-0.7,0.1h-0.8l-0.7,0.1l-0.8,0.1h-0.7l-0.7,0.1
			l-0.8,0.1h-0.7l-0.7,0.1l0.1-0.5v-0.7l-0.6-0.8l-0.3-0.7l-0.3-0.7l-0.2-0.7l-0.8-0.4h-0.7l-0.8-0.1l-0.7-0.2l-0.8-0.1h-0.4
			l-0.7,0.1h-0.8l-0.7,0.1h-0.8l-0.7-0.2l1.3-1.4l0.5-0.7l0.2-0.8l-0.1-0.7l-0.8-0.6l-0.5-0.8l-0.5-0.7l-0.7-0.5l-0.7-0.4l-0.4-0.8
			l-0.3-0.7l-0.8-0.4l-0.7-0.5l-0.1-0.8l-0.4-0.7l-0.3-0.8l-0.6-0.7l-0.7-0.3l0.4-0.8l0.2-0.7l-0.7-0.4l-0.7-0.4l-0.7-0.7l-0.6-0.7
			l0.3-0.1l0.1-0.7l-0.2-0.8l0.8,0.1l1.4-0.7l-0.4-0.8l-0.5-0.7l0.1-0.8l0.1-0.7l0.1-0.7l0.6-0.8l0.7-0.6l0.7-0.4l0.7-0.6l0.9-0.5
			l0.8-0.1l0.7-0.7l0.2-0.8l-0.2-0.7l-0.3-0.9l-0.5-0.8v-0.8l0.3-0.4l0.3-0.8l0.5-0.8l0.5-0.7l0.4-0.7l0.2-0.8l0.1-0.7l-0.1-0.8
			l0.4-0.8l0.2-0.8l-0.1-0.7l-0.2-0.2l0.1-0.1l0.1-0.1l0.8-0.4l0.9-0.4l0.7-0.1l0.3-0.5l0.7-0.5l0.8-0.6l0.4-0.7l0.7-0.6l0.8-0.2
			l0.7-0.4l0.6-0.7l0.8-0.4l0.7-0.6l0.7-0.1l0.8-0.1l0.3-0.1l0.8-0.1h0.8l0.7-0.4l0.3-0.1h0.8l0.7-0.6l0.8-0.1h0.8l0.7-0.3l0.8-0.3
			l0.6-0.7l0.4-0.7h0.7l0.8-0.4l0.8,0.1h0.7l0.8,0.1l0.6,0.7l0.7,0.4l0.3,0.4l0.6-0.8l0.8,0.6h0.1l0.4-0.1l0.2-0.2l0.1-0.6
			 M268.3,406.9v-0.3l-0.1-0.8l-0.6-0.6l-0.7-0.2l0.2-0.5l0.5-0.7l0.7-0.6l0.8-0.4l0.4-0.7l0.4-0.8l0.6-0.7l0.3-0.7l0.7-0.3l0.7-0.6
			l-0.4-0.6v-1l0.9-0.7l0.7-0.4l-0.3-0.7l-0.7-0.6h-0.2l-0.7,0.2h-0.6l-0.7-0.5l-0.3-0.8l-0.4-0.7l-0.3-0.7l-0.2-0.5l-0.3-0.7
			l-0.4-0.7l-0.2-0.8l0.4-0.8l0.1-0.4v-0.1l0.5-0.7l0.4-0.8l0.7-0.7l-0.6-0.7l-0.7-0.5l-0.6-0.8l-0.3-0.5l0.1-0.7l0.1-0.7l0.7-0.4
			l0.1-0.7l0.1-0.8l0.6-0.7l0.7-0.6l0.7-0.6l-0.2-0.7l0.6-0.7l0.7-0.4l-0.3-0.8l-0.3-0.7l-0.6-0.7l-0.2-0.7l-0.1-0.7l-0.6-0.8
			l0.5-0.8l0.4-0.7v-1.5l-0.1-0.7l-0.1-0.8v-1.4l-0.1-0.6l-0.1-0.8l0.6-0.7l0.7-0.6l0.8-0.6l-0.1-0.8l0.4-0.7h0.1l-0.2-0.4l-0.4-0.7
			l-0.4-0.7l-0.4-0.7l-0.4-0.7l-0.4-0.7l-0.5-0.8l-0.4-0.7l-0.5-0.7l-0.5-0.7l-0.4-0.8l-0.5-0.7l-1-1.4l-0.4-0.7l-0.5-0.7l-0.5-0.7
			l-0.4-0.7l-0.5-0.8 M268.3,406.9l-0.6,0.6l-0.8,0.8l-0.8,0.1l-0.6,0.7l0.4,0.8l0.1,0.7l0.2,0.7l-0.3,0.8l-0.3,0.7l-0.6,0.7
			l-0.5,0.5l-0.8,0.3l-0.7,0.4h-1.4L261,415"/>
		<polyline id="polyline215" fill="none" stroke="#FFFFFF" stroke-miterlimit="1" points="259.6,287.3 259.6,287.2 259.8,286.4 
			260.1,285 260.2,284.2 260.3,283.5 260.4,282.7 260.6,281.9 260.6,281.2 260.8,280.4 260.9,279.7 261,279 261.1,278.2 
			261.2,277.5 261.4,276.8 261.5,276 261.6,275.3 261.7,275 261.7,274.2 261.9,273.5 262,272.8 262.1,272 262.2,271.3 262.4,270.5 
			262.4,269.8 262.6,269.1 262.7,268.3 262.8,267.5 262.9,266.8 263.1,266 263.2,265.3 263.3,264.6 263.5,263.9 263.5,263.1 
			263.6,262.9 263.7,262.1 263.7,261.9 264.2,261.1 264.1,260.3 264,259.6 263.7,259 263.6,258.3 262.9,257.6 262.4,256.8 
			262,256.1 262.2,255.4 262.1,254.6 261.9,253.9 261.1,253.5 260.4,253.1 259.7,252.4 258.9,252.1 258.3,251.6 257.8,250.8 
			257.8,244.4 258.3,244.2 259,244.1 259.8,244 260.5,243.7 261.2,243.3 262,243.4 262.7,242.8 263.5,242.9 264.2,243.5 265,243.6 
			265.5,243.6 266.3,243.4 265.8,242.7 266,242 265.8,241.2 265.3,240.5 264.6,239.8 263.9,239.8 263.1,239.8 262.4,239.8 
			261.6,239.8 260.9,239.9 260.1,239.7 259.6,240 259.6,237.7 259.6,236.9 259.6,234.6 259.5,234.2 260.2,234.1 261,233.9 
			261.7,233.6 262.5,233.5 263.2,233.6 263.8,233.9 264.6,233.8 265.4,233.8 266.2,233.7 267.8,233.7 268.6,233.6 269.4,233.6 
			270.1,233.6 270.9,233.6 271.7,233.5 273.2,233.5 274,233.4 274.8,233.4 274.4,232.7 274.3,231.9 274.7,231.2 275.4,231.3 
			275.8,232.1 276.2,232.8 276.9,233.2 277.7,233 278.4,232.6 279,231.8 279.5,231.1 280.2,230.4 280.9,229.8 281.7,229.5 
			282.4,229.7 282.8,230.4 283.3,231.1 283.8,231.8 284.4,232.6 284.8,233.3 285.1,234.1 285.2,234.9 285.1,235.7 285,236.4 
			284.9,237.2 285,237.9 285.7,237.7 286.4,237.6 286.9,237.5 		"/>
		<path id="path217" fill="none" stroke="#FFFFFF" stroke-miterlimit="1" d="M210.1,253.5l-0.7,0.3l-0.8,0.1l-0.8-0.4h-0.9l0.1,0.6
			l0.8,0.1l0.7,0.6l0.1,0.8l0.5,0.7l0.8,0.4l0.6,0.7l-0.2,0.6l-0.1,0.7l0.3,0.7l0.2,0.8l0.2,0.6l-0.7,0.1l-0.8-0.3l-0.1-0.1
			l-0.1,0.7l-0.2,0.7l-0.1,0.8l-0.2,0.7l-0.1,0.8l-0.3,1.4l-0.2,0.5l-0.1,0.1l-0.3,0.4l-0.6,0.7l-0.6,0.8l-0.6,0.8l-0.6,0.7
			l-0.6,0.8l-0.6,0.8l-0.4,0.5l-0.7,0.6l-0.8,0.6l-1.4,1.3l-0.2,0.1l-0.8,0.6l-0.7,0.6l-0.6,0.4l-0.7,0.4l-0.8,0.3l-0.7,0.4
			l-0.7,0.3l-0.7,0.4l-0.8,0.3l-0.1,0.1l-0.8,0.4l-0.7,0.3l-0.7,0.4l-0.8,0.3l-0.7,0.4l-0.7,0.3l-0.4,0.2l-0.7,0.3l-0.5,0.4
			l-0.6,0.7l-0.7,0.7l-0.6,0.7l-0.4,0.7l-0.6,0.8l0.4,0.7l-0.7,0.6v-0.7l-0.7-0.1l-0.2,0.7v0.8l-0.1,0.8l-0.1,0.7l-0.1,0.4l-0.6,0.7
			l-0.4,0.7l-0.1,0.8l-0.1,0.7l-0.3,0.7l-0.2,0.7l-0.4,0.5l0.1,0.8v0.9l-0.1,0.7l-0.2,0.1l-0.7,0.4l-0.7,0.6l-0.4,0.7l0.3,0.7
			l-0.7,0.4l-0.2,0.8l-0.4,0.4l-0.1,0.1l-0.1-0.1l-0.4-0.2h-0.7l-0.4,0.1l-0.8-0.2l-0.6-0.7l-0.6-0.6l-0.4-0.8l-0.4-0.7l0.1-0.2
			l-0.7-0.6l-0.8-0.5l-0.7,0.4l-0.7,0.1l-0.8-0.6l-0.4,0.1l-0.4-0.1l-0.7-0.6l-0.5-0.1l-0.7,0.7l-0.7,0.8l-0.8,0.5l-0.7-0.3l0.1-0.7
			l0.4-0.8l0.5-0.7l-0.7,0.2l-0.6-0.7l-0.2-0.6l0.6-0.7h0.7l0.7-0.4l0.7-0.6l0.3-0.2l-0.4-0.7l-0.2-0.8v-0.7l-0.3-0.8l-0.2-0.5
			l-0.1-0.6l-0.3-0.1h-0.1l-0.4-0.2 M259.6,287.3l-0.4-0.6l-0.5-0.4l-0.7-0.6l-0.3-0.8l-0.6-0.7l-0.7-0.6l-0.8-0.1l-0.7,0.4
			l-0.7,0.1l-0.6-0.1l-0.5-0.4l-0.2-0.4l0.4-0.7l0.5-0.9l0.5-0.8l0.4-0.8l0.5-0.8l0.5-0.8l0.4-0.7l0.4-0.8l0.5-0.7l0.5-0.9l0.4-0.7
			l0.5-0.8l-0.6-0.1l-0.8-0.6l-0.4-0.7l-0.8,0.2l0.2-0.7l-0.8,0.2l-0.8-0.4l-0.7,0.2l-0.8-0.7l-0.7-0.7l-0.8-0.3l-0.8-0.4l-0.7-0.1
			l-0.4,0.7l-0.8,0.5l-0.8,0.1l-0.7,0.1l-0.7,0.2l-0.4-0.7l-0.8,0.3l-0.6-0.8l-0.8-0.1l-0.8-0.4l-0.1,0.1l-0.7,0.6l-0.3,0.7
			l-0.8,0.6l-0.1-0.1l-0.8,0.1l-0.7,0.7l-0.8,0.6l-0.7-0.1l-0.8-0.5l-0.4,0.1l-0.8,0.1l-0.8-0.3l-0.4,0.8l-0.7-0.1l-0.9,0.1
			l-0.8,0.1l-0.6-0.7l-0.7-0.3l-0.8-0.6l0.3-0.8l0.1-0.8l-0.3-0.8l0.1-0.9l-0.7-0.8l-0.8-0.1l-0.7,0.2l-0.8-0.1l-0.7-0.5l0.1-0.8
			l0.2-0.8l-0.6-0.8l-0.2-0.7l-0.6-0.8l-0.7-0.4l-0.8,0.1l-0.8-0.4l-0.4-0.7l-0.8-0.1l-0.8-0.5l-0.8-0.1l-0.9-0.3l-0.4-0.7l0.1-0.8
			l-0.7-0.8l-0.1-0.7l-0.1-0.8l-0.3-0.4l-0.8-0.1l-0.6-0.7h-0.7l-0.8-0.7l-0.3-0.8l-0.7-0.1l-0.9-0.1l-0.7-0.6l-0.4-0.1l-0.8-0.5
			h-0.7l-0.6,0.8"/>
		<path id="path219" fill="none" stroke="#FFFFFF" stroke-miterlimit="1" d="M400,227.2h0.7l0.4-0.8v-0.1l0.7-0.2l0.6-0.8l0.3-0.7
			l0.5-0.7l0.6-0.7l0.1-0.8l0.2-0.7l-0.1-0.7l-0.1-0.7l0.1-0.7l0.7-0.7h0.1l0.4-0.7l0.5-0.6l-0.1-0.8l0.2-0.7l-0.8-0.5l-0.3-0.8
			l-0.7-0.4l-0.6-0.7l-0.4-0.7l-0.6-0.7l0.2-0.7l-0.6-0.8l0.1-0.7l-0.3-0.6l-0.1-0.4l-0.1-0.8l0.3-0.7l-0.2-0.7l-0.4-0.8l0.1-0.7
			v-0.7l0.1-0.7l0.5-0.8l0.6-0.7l0.1-0.4l0.7-0.6l0.6-0.5l0.6-0.7l0.7-0.7l0.1-0.8l0.1-0.7l0.4-0.6 M400,227.2l-0.3,0.1l-0.7-0.4
			l0.1-0.8h-0.7l-0.7,0.1l-0.7-0.6l-0.6-0.8l-0.1,0.1l-0.2,0.1l-0.7,0.4h-0.7l-0.7,0.1l-0.7,0.6l-0.8,0.1h-1.4l-0.8,0.2l-0.7-0.2
			l-0.7-0.3l-0.8-0.5l-0.7,0.6l-0.2,0.7l-0.7,0.4l-0.1,0.7l0.7,0.2l0.4,0.7l0.6,0.7l0.1,0.7l0.1,0.8l-0.7,0.5l-0.7-0.1l-0.8-0.3
			l-0.7-0.1l-0.8-0.2l-0.7-0.1l-0.8-0.1 M210.1,253.5L210.1,253.5l-0.8-0.4l-0.7-0.2l-0.7-0.4l-0.6-0.4l-0.7,0.1h-0.9l-0.7-0.6
			l-0.1-0.1l-0.7-0.4l-0.6-0.7l-0.8-0.4l-0.8-0.4l-0.7-0.1l-0.7,0.1l-0.8-0.1v0.4l0.1,0.8l-0.1,0.1l-0.8,0.1l-0.8,0.1l-0.8-0.2
			l-0.7,0.3h-0.8l-0.7-0.2l-0.7-0.1l-0.7-0.5l-0.7,0.2h-0.7l-0.7-0.1l-0.8-0.2l-0.3-0.7l-0.2-0.8l-0.5-0.8l-0.7-0.1l-0.6-0.4
			l-0.1-0.7l-0.1-0.1l-0.7,0.1l-0.8,0.2l-0.7-0.6l-0.7-0.1l-0.7,0.1l-0.7-0.4l-0.8-0.5l-0.7-0.1l-0.8-0.6l-0.7-0.6l-0.7,0.1
			l-0.4-0.6l-0.3,0.1l-0.1-0.1l-0.8-0.7l-0.8-0.6"/>
		<path id="path221" fill="none" stroke="#FFFFFF" stroke-miterlimit="1" d="M382.7,230.3l-0.7-0.6l-0.7-0.1h-0.6l-0.5-0.7l-0.6-0.8
			l-0.4-0.7l-0.2-0.5l-0.4-0.8l-1-1.4l-0.3-0.8l-0.4-0.7l-0.8-0.5v-0.8l-0.2-0.7l-0.1-0.8l-0.6-0.7V218l-0.7-0.4l-0.7,0.1l-0.8-0.1
			l-0.7-0.1H372v-0.8l-0.2-0.7l-0.4-0.4l-0.7-0.6l-0.5-0.7l-0.3-0.7l-0.5-0.7l-0.7-0.6l-0.4-0.9l-0.2-0.7l0.4-0.8l0.6-0.7l-0.1-0.7
			l0.4-0.7l0.3-0.8l0.4-0.7l-0.4-0.7l-0.4-0.8l0.6-0.7l0.7-0.2l0.7-0.7l0.8,0.1l0.7-0.1l0.7,0.2l0.8-0.1l0.4-0.1l0.5,0.1l-0.2-0.7
			l0.7-0.4l0.2-0.7l-0.2-0.4l-0.8-0.4l0.4-0.7l0.1-0.7l0.1-0.1 M382.7,230.3l-0.5,0.2l-0.1,0.1l-0.7-0.3l-0.8,0.1l-0.7,0.4l-0.7-0.1
			l-0.7-0.3l-0.8-0.1l-0.4-0.7l-0.7,0.1l-0.7,0.4l-0.7-0.3l-0.8,0.5l-0.4,0.7l-0.5,0.7l-0.7,0.5h-0.8l-0.7-0.2l-0.7,0.4l-0.7,0.2
			l-0.7,0.5l-0.4,0.7h-0.8l-0.7-0.5h-0.7l-0.7,0.1l-0.7,0.7l-0.8,0.1l0.3,0.7l-0.2,0.7l-0.7,0.1l-0.7-0.1l-0.7,0.5l-0.8,0.4
			l-0.7-0.6l-0.7-0.6l-0.3-0.1l-0.7-0.1l-1.4-0.4l-0.4-0.7l-0.8-0.6l-0.6-0.7l-0.6-0.7l-0.7-0.3l-0.8-0.4l0.4-0.7l-0.3-0.1l-0.8-0.1
			l0.1-0.7l0.1-0.8l0.1-0.7l-0.1-0.7l-0.1-0.7l-0.8-0.3l-0.7-0.6v-0.7l-0.2-0.7l-0.4-0.8l-0.2-0.7l0.1-0.7v-0.8l0.2-0.8l0.1-0.7
			l0.4-0.8l0.3-0.7l0.4-0.7l0.2-0.7v-0.8l-0.4-0.7l0.1-0.3l0.7-0.2l0.8-0.6l0.2-0.7l0.7-0.4l0.1-0.7L354,212l-0.4-0.7l-0.1-0.7
			l-0.8-0.5v-0.7l0.5-0.7l-0.4-0.4l-0.3-0.1l-0.8-0.2l-0.7-0.4h-0.7l-0.5,0.1l-0.7-0.1l0.1-0.7l0.6-0.7l0.3-0.8l0.1-0.7l0.1-0.7
			v-0.1l0.1-0.7l-0.1-0.8h-0.1l-0.7-0.5l-0.3-0.6l-0.7-0.4l-0.7,0.4l-0.7,0.3l-0.8,0.1l-0.8-0.1l-0.7-0.1h-0.7l-0.5,0.1"/>
		<path id="path223" fill="none" stroke="#FFFFFF" stroke-miterlimit="1" d="M343.4,201.2l0.7,0.2l0.3,0.7l0.2,0.8l0.1,0.1l-0.1,0.7
			l-0.6,0.8l-0.7,0.6l-0.8,0.4l-0.7,0.4l-0.3,0.7l-0.5,0.7l-0.7,0.1l-0.8,0.1h-0.2l-0.7-0.2L338,208l-0.7,0.1l-0.7,0.1l-0.4,0.7
			l-0.4,0.7l-0.8,0.1l-0.7-0.1l-0.7,0.4l-0.8,0.5h-0.7l-0.8,0.1l-0.8,0.5l-0.7-0.1l-0.7-0.3l-0.8-0.3l-0.7-0.1l-0.7,0.4l-0.1,0.8
			h-0.8l-0.7,0.1l-0.6,0.7l-0.1,0.7l0.3,0.7l0.1,0.8l-0.4,0.7l-0.7,0.4l-0.8,0.1l-0.7-0.4l-0.6-0.8l-0.7-0.6l-0.7-0.8l-0.7-0.6
			l-0.7-0.2l-0.6,0.7l-0.7,0.2l-0.7-0.6h-0.8l-0.7,0.1l-0.7-0.2l-0.7,0.4l-0.8,0.3l-0.6-0.7l-0.2-0.8l-0.7-0.6l-0.8-0.2l-0.7,0
			l-0.7,0.1l-0.8,0.1l-0.7,0.1l-0.5-0.7l-0.1-0.1l-0.7-0.4l-0.7,0.1l0.1,0.7l0.7,0.7l0.4,0.7l0.7,0.7l0.6,0.7l0.8,0.6l0.7,0.3
			l0.7,0.7l0.7,0.6v0.8l-0.4,0.7l0.1,0.8l0.1,0.7l-0.1,0.8l0.4,0.7l0.4,0.7l0.6,0.8l0.4,0.7l0.3,0.7l-0.1,0.8l-0.2,0.7l-0.2,0.8
			l0.7,0.1l0.8,0.2l0.7,0.1l0.7-0.1h0.8l0.7,0.1h1.5l0.4,0.8v0.7l-0.1,0.2l-0.2,0.8l-0.8,0.1l-0.7,0.1l-0.7,0.5l-0.8,0.4l-0.7,0.4
			h-0.8l-0.7,0.1l-0.7,0.6v0.8l-0.1,0.7l-0.1,0.7l-0.6,0.7l-1.4,1.2l-0.5,0.7l-0.1-0.7l-0.8-0.3l-0.7,0.4l-0.4,0.7l-0.8,0.5
			l-0.7,0.5l-0.7-0.3L305,237l-0.7,0.4l-0.1,0.1l-0.7,0.2l-0.6,0.8l-0.1,0.7l-0.7,0.6l-0.8,0.1l-0.6,0.7l-0.1,0.7l-0.7,0.7l-0.7-0.2
			v-0.7l0.5-0.7l-0.1-0.7l-0.8-0.5l-0.7,0.1l-0.7,0.3l-0.7,0.3l-0.8,0.6l-0.7,0.6l-0.7,0.4h-2.2l-0.8-0.6l-0.7-0.6l-0.9-0.6
			l-0.7-0.6l-0.8-0.6l-0.8-0.6l-0.2-0.2l-0.1-0.1 M350.3,172l0.4,0.6l1.3,1.6l-0.6,0.6l-0.8,0.1l-0.1,0.1l-0.3,0.7l-0.2,0.6h-0.7
			l-0.8,0.6l-0.7,0.5l-0.7,0.6l-0.6,0.2l-0.7-0.1l-0.7,0.6l-0.3,0.7l-0.5,0.8l-0.6,0.7l0.6,0.7l0.6,0.8l-0.4,0.7l0.6,0.7l0.7-0.1
			h0.7l0.7,0.2l0.5,0.5l-0.5,0.7l-0.3,0.7l-0.5-0.1l-0.7,0.5l-0.8,0.3l-0.7,0.4l-0.7,0.4l-0.7-0.1l-0.7,0.3l-0.7,0.2h-0.8l-0.7,0.2
			l-0.1,0.1l-0.4,0.7l0.2,0.8l0.4,0.7l-0.2,0.7l0.5,0.7l-0.2,0.7l-0.7,0.6l-0.8,0.5l-0.2,0.4l-0.8,0.7l0.1,0.2l0.8,0.8l1.4,1.6
			l0.7,0.7l0.8,0.8l0.7,0.8l0.7,0.8l0.8,0.8"/>
		<polyline id="polyline225" fill="none" stroke="#FFFFFF" stroke-miterlimit="1" points="286.9,237.5 286.7,236.7 286.6,236 
			286.3,235.3 286.1,234.5 285.9,233.8 285.6,233.1 285.4,232.3 285.1,231.5 284.5,230.8 284.5,230.5 284.6,229.7 284,229 
			283.7,228.2 284,227.5 283.3,226.9 282.5,226.2 281.7,225.6 281.1,224.9 280.4,224.6 280.2,223.9 279.4,223.7 278.7,223.3 
			277.9,223.6 277.9,223.8 277.9,223.1 278.7,222.3 279.5,221.5 280.4,220.7 281.2,220 281.9,219.5 282,219.5 282.6,218.8 
			282.8,218 282.1,217.6 281.7,216.9 281.5,216.1 280.9,215.4 280.2,215.4 279.7,214.6 279.4,213.9 279.1,213.2 279,212.7 
			278.9,212.3 278.3,211.6 278.1,210.9 278.3,210.2 278.2,209.4 277.6,208.7 277.6,207.9 277.7,207.2 277.9,206.4 278,205.7 
			277.9,205 277.9,204.8 278.1,204.3 278.2,203.8 277.9,203 278,202.6 277.7,201.9 277.9,201.2 277.9,201 278.7,200.5 279.4,200 
			279.7,199.3 279.5,198.6 279.5,197.9 279.9,197.1 280.6,196.3 281.3,195.7 281.5,195 280.9,194.2 281.3,193.6 280.9,193.6 
			280.2,193 279.4,192.9 278.7,192.8 277.9,192.7 277.2,193 276.4,193.6 275.7,193.7 275,193.6 274.2,193.8 273.5,194.1 272.7,194 
			271.9,194 271.2,194.3 270.4,194.5 269.7,194.4 269,194.3 268.3,194.3 267.5,194.1 266.8,194 266,194.3 265.3,195 264.5,195.2 
			263.8,194.7 263.1,195 262.4,194.2 262.2,194 261.5,193.2 260.9,192.5 260.2,191.7 259.6,190.9 258.9,190.1 258.3,189.4 
			257.8,188.9 257.1,188.1 256.7,187.7 256,187.7 255.2,188.1 254.5,187.8 253.7,187.5 252.9,187.3 252.1,187 251.4,186.8 
			250.6,186.9 249.8,187.1 249.1,187.6 248.3,188 247.6,187.9 246.9,188.2 246.1,187.8 245.4,187.8 244.6,187.7 243.9,187.7 
			243.1,187.6 242.4,187.8 241.6,188.1 240.8,188.3 240.1,188.1 239.7,188.1 238.9,187.8 238.8,187.8 238.3,187.1 238,186.3 
			237.9,186 238,185.3 237.2,184.9 236.5,185 235.7,184.9 235,184.1 235.2,183.4 235,182.7 235.1,181.9 235.3,181.3 235.3,180.6 
			235.4,179.9 236.2,179.2 236.3,178.5 236,177.7 235.9,177 235.7,176.3 235.4,176.2 234.7,175.5 233.9,174.7 233.4,174.2 
			233.3,174.1 233.1,173.4 232.9,172.7 232.7,171.9 232.5,171.1 232.3,170.4 232.2,170.3 232.3,170.1 231.6,169.8 230.8,170.2 
			230.6,169.5 230.4,168.8 229.7,168.9 228.9,169.3 228.2,169.7 227.5,169.8 226.8,169.8 227.3,169.1 227.7,168.3 228,167.6 
			228.6,166.9 229.3,166.1 229.6,165.4 230.2,164.7 230.5,163.9 230.4,163.1 230.5,162.4 230.7,161.6 230.9,160.8 231.1,160.1 
			231.1,159.3 231.2,158.5 231.7,157.8 232.1,157.1 232.6,156.4 232.9,155.7 233.3,154.9 234,154.1 234.5,153.4 234.9,152.7 
			235.7,152.1 236.5,151.8 237.2,151.9 237.6,151.1 238.1,150.3 238.4,149.8 238.9,149 239.3,148.2 239.8,147.5 240.5,147.2 
			241.3,147 242.1,146.7 242.9,146.4 243.6,146.2 245.2,145.8 245.9,145.4 		"/>
		<path id="path227" fill="none" stroke="#FFFFFF" stroke-miterlimit="1" d="M400,227.2l0.7,0.4l0.5,0.7l0.7,0.1l0.8,0.4l0.7,0.1
			l0.7,0.3l0.8-0.6l0.7-0.1l0.7-0.6l0.8-0.3l0.7-0.5l0.7,0.6l0.8,0.2l0.7,0.2l0.7-0.2l0.7-0.6l0.4,0.3l0.7,0.6l-0.4,0.5l0.7-0.1
			l0.7-0.1l0.8,0.4l0.7,0.1l0.7-0.7l0.7-0.4l0.7-0.4l0.6-0.7l0.7-0.7v-0.1 M139.8,186.5l0.1-0.6l-0.3-0.7l-0.4-0.7l-0.3-0.1l0.1-0.7
			l0.7-0.6l0.6-0.5l0.1-0.1v-1.1l-0.4-0.8l-0.1-0.7l0.6-0.7l0.2-0.2l0.7-0.4h0.1l-0.4-0.7l-0.8-0.4l-0.7-0.1v-3l0.2-0.7l0.7-0.3
			l-0.4-0.4l0.7-0.4l0.7,0.4l0.7,0.4l0.3-0.1l0.4-0.6 M185.4,189.6l0.2-0.7l0.1-0.4l0.2-0.8l0.8-0.4l0.1-0.5l-0.4-0.7l0.4-0.8
			l0.7,0.8l0.6,0.7l0.7-0.7l0.8-0.5l0.6-0.7l-0.2-0.2l0.2-0.7l0.2-0.5l0.7-0.4l0.7-0.1l-0.5-0.7l-0.2-0.8l-0.4-0.7l-0.7-0.6
			l-0.1-0.7l-0.2-0.7l-0.8-0.4l0.4-0.8l0.1-0.2l0.5-0.8"/>
		<polyline id="polyline229" fill="none" stroke="#FFFFFF" stroke-miterlimit="1" points="425.2,214.8 425.4,214.6 426,213.9 
			426.5,213.1 427,213 		"/>
		<path id="path303" fill="#203E6D" d="M295.9,740.1l-0.1-0.6v-0.4l0.1,0.1l0.4,0.7l0.7-0.4l0.7-0.3l0.3,0.7l0.8,0.2l0.7,0.1
			l0.7,0.2l0.7,0.1l0.8-0.1l0.7-0.6l-0.7-0.7l0.7,0.4l0.7,0.4l0.4-0.2l-0.4-0.6l-0.1-0.1l0.7,0.5l0.3-0.1l0.8-0.4l0.2-0.1l0.4,0.1
			l0.7,0.2l0.8,0.1l0.7,0.1h0.7l0.8-0.1l0.7,0.1h1.5l0.7,0.1l0.7,0.1l0.8,0.4l0.7,0.4l0.7,0.1l0.8-0.6l0.7-0.1l0.8-0.3l0.7-0.6
			l0.7,0.1l0.7,0.1l0.8-0.4l0.8,0.1l0.3-0.8l0.1-0.7l-0.4-0.7l-0.8,0.1l-0.7,0.1l-0.7,0.2l-0.8-0.1l-0.7-0.3l-0.8-0.3l-0.7-0.2
			l-0.7-0.4l-0.7-0.4l-0.7-0.4l-0.6-0.8l-0.7-0.4l-0.8-0.4l-0.7-0.5l-0.7-0.3l-0.7-0.4l-0.7-0.5l-0.7-0.5l-0.2-0.7l-0.7-0.3
			l-0.3-0.5l-0.7-0.5l-0.7-0.6l-0.4-0.8l-0.2-0.7l-0.4-0.7l-0.7-0.2l-0.7,0.1l-0.8-0.4L302,725l0.5-0.8l0.5-0.7l0.7,0.6l-0.2-0.8
			l-0.4-0.7l-0.7-0.6l-0.6-0.8l-0.2-0.2l-0.4-0.5l-0.1-0.1l-0.1-0.1l-0.6-0.4l-0.7,0.3l-0.7,0.5l-0.7,0.4l-0.8-0.6l-0.6-0.7
			l-0.7-0.3l-0.1,0.1l-0.4,0.2l-0.1,0.7l-0.1,0.7l-0.3,0.7v0.1l-0.7,0.4l-0.7,0.4l-0.3-0.1l-0.7-0.7l-0.7,0.2l-0.7,0.4h0.7l0.4,0.8
			l0.7,0.6l-0.7,0.6l-0.7-0.4l-0.4,0.7l0.2,0.8l-0.1,0.7l0.2,0.7l0.4,0.6l0.8,0.5l0.7-0.1l0.8-0.6l0.5-0.4l0.8-0.1l0.8-0.2h0.7
			l0.7,0.1l0.2,0.7l-0.4,0.8l-0.7,0.5l-0.7,0.4l-0.8,0.4l-0.7,0.4l-0.2,0.1l-0.7,0.5l0.1,0.8l0.3,0.7l0.4,0.7l0.6,0.8l0.6,0.3
			l0.7,0.2l0.7,0.1l0.8,0.4l0.7,0.2l0.7,0.3l0.8,0.4l0.7,0.6l-0.2,0.1l-0.7,0.2l0.1,0.8l-0.7,0.1l-0.4,0.8l0.1-0.8l0.4-0.7l-0.5-0.8
			l-0.7-0.4l-0.8,0.4l-0.7-0.6l-0.7-0.1l0.4,0.7l0.4,0.8v0.7l-0.7-0.7l-0.5-0.8l-0.4-0.7l-0.4-0.2l-0.6,0.7l0.7,0.4l-0.7,0.1
			l-0.7-0.5l-0.8-0.3l-0.7-0.2l-0.8-0.4l-0.7-0.1l0.1,0.8l0.8-0.1l0.7,0.1l0.5,0.8l0.8,0.6l0.7,0.3l0.7,0.4l-0.7,0.3l-0.7-0.6
			l-0.8-0.4l-0.7,0.1l-0.2,0.7l0.5,0.8l-0.8-0.1l0.1-0.7v-0.8l0.1-0.7l-0.7-0.1l-0.8,0.4l0.1,0.7l-0.6,0.7l-0.7-0.6l-0.7,0.3
			l-0.7-0.1l-0.8,0.1l0.3,0.7l-0.7-0.6l-0.8,0.2h0.7l0.7,0.7l-0.7,0.2l-0.7-0.6l-0.7,0.2l0.7,0.4l-0.2,0.8l0.8-0.4l0.7,0.2l0.7-0.4
			l0.7,0.2v-0.8l0.7,0.3v0.7l0.8-0.2l0.7-0.1l0.2,0.7h0.7l0.7-0.2l0.5-0.7l0.7-0.3l-0.6,0.8l-0.7,0.4l-0.1,0.7l0.7-0.6l0.8,0.1
			l0.7-0.4l0.4-0.7l-0.2,0.7l0.2,0.7l0.8-0.6L295.9,740.1 M296.3,742.9h0.1l0.7-0.1l0.2,0.7l0.8-0.4l0.7-0.1l-0.5,0.7l-0.7,0.4
			l0.8,0.1l0.7,0.6l0.7,0.6l0.1-0.8l0.4,0.8l0.8-0.4l-0.8-0.3l-0.5-0.8l-0.8-0.6l0.8-0.1l-0.4-0.7l0.8,0.1l0.7,0.4l0.7,0.4l0.8-0.5
			l-0.3,0.7l-0.1,0.7l0.7,0.1l-0.8,0.4l0.7,0.6l0.8-0.4l0.7-0.1l0.7,0.4h0.8l0.7,0.7l0.8,0.5l-0.2-0.8l-0.1-0.7l-0.6-0.7h-0.8
			l-0.7-0.5l-0.7,0.1l-0.6-0.7l0.8,0.5l0.7-0.1l0.7-0.5l-0.7-0.5l-0.8,0.1l-0.7-0.1h-0.8L302,742l-0.5-0.7l0.7,0.4l0.7,0.4l0.7-0.6
			l0.8,0.1l0.7-0.6l-0.6-0.7l-0.7-0.1l-0.8,0.1l-0.7,0.4h-0.7l-0.8,0.1l-0.7,0.1l-0.7,0.6l-0.7,0.3l-0.1,0.7l-0.1-0.7l-0.7-0.1
			L297,742l-0.8,0.5L296.3,742.9 M296.6,744.7l-0.1-0.6l-0.4-0.1L296.6,744.7 M350.2,707.2v-0.3V707.2"/>
		<path id="path201" fill="none" stroke="#FFFFFF" stroke-miterlimit="1" d="M301.9,718.2V718l-0.5-0.4h-0.3l-0.6-0.1l-0.6-0.1
			l-0.6-0.2l-0.4-0.2l-0.7-0.3l-0.5-0.1l-0.7-0.1l-0.8,0.1l-0.7-0.1l-0.6-0.1l-0.7-0.2l-0.7-0.3l-0.8-0.2h-0.1l-0.7,0.1l-0.7,0.1
			l-0.8,0.1l-0.7,0.1l-0.7,0.1l-0.8,0.1l-0.7,0.1l-0.7,0.1l-0.8,0.1l-0.7,0.1l-0.7,0.1l-0.4,0.1h-0.7l-0.7,0.1h-0.8l-0.4-0.1v-0.7
			l-0.7-0.8l-0.8-0.5l-0.7-0.1L279,714l-0.3-0.7l-0.7-0.5l0.4-0.7v-1.5l0.1-0.2l-0.2-0.4l-0.7-0.6l0.1-0.7l0.4-0.7l-0.1-0.8
			l-0.4-0.7l-0.3-0.8l0.1-0.5l-0.7-0.1l-0.7-0.1l-0.8,0.6l-0.7-0.2l-0.7,0.5l-0.5,0.7l-0.7,0.1l-0.2-0.7l-0.6-0.8l-0.1-0.8l-0.2-0.7
			l-0.2-0.7l-0.6-0.7l-0.7-0.4l-0.4-0.7l0.2-0.8l-0.2-0.1l-0.3-0.7l0.2-0.7l-0.2-0.8l-0.3-0.7l-0.5-0.7l0.1-0.7l0.4-0.7v-0.8
			l0.8-0.1l0.7-0.6l-0.1-0.4l0.4-0.7l0.1-0.8l0.5-0.7l0.7-0.2l0.7-0.6l0.6-0.6l0.1-0.7l-0.1-0.8l-0.2-0.7l-0.3-0.7l0.4-0.5l0.8-0.5
			l0.5-0.7l-0.1-0.7l-0.2-0.6l-0.4-0.8l-0.8-0.6l-0.4-0.7l0.2-0.7l0.1-0.8l0.3-0.7l0.1-0.7l-0.2-0.8l0.5-0.7l0.7-0.4l0.4-0.8
			l0.1-0.2l0.1-0.6l0.7-0.1l-0.3-0.7l-0.7-0.6l0.1-0.8l-0.1-0.7l0.4-0.7l0.8-0.7l0.3-0.7l-0.1-0.8v-0.2l-0.1-0.2l-0.4-0.7l-0.2-0.7
			l-0.1-0.4l-0.2-0.7l-0.7-0.6l0.7-0.4l0.4-0.7l0.1-0.2l0.1-0.5l-0.1-0.4l-0.1-0.1l-0.7-0.3l-0.1-0.6l-0.3-0.7l0.1-0.8l0.4-0.7
			l0.7-0.1l0.4-0.4l-0.1-0.7l0.8-0.6l0.1-0.7l-0.7-0.8l-0.6-0.7l-0.5-0.7l-0.5-0.1l-0.8-0.2l-0.7,0.1l-0.7-0.2l-0.8-0.6l-0.1-0.7
			l0.7,0.1h0.8l0.7-0.4l0.7,0.1l0.7-0.4l0.8,0.4h0.7l0.2-0.8v-0.7l0.6-0.8l-0.1-0.1l-0.5-0.8l-0.7-0.1l-0.8-0.1l-0.8,0.1l-0.7,0.1
			l-0.8,0.1l-0.7-0.2l0.2-0.8v-0.7l-0.5-0.7l0.6-0.7l0.1-0.1l0.4-0.7v-0.3l-0.6-0.6l-0.7-0.7l0.7-0.8l-0.3-0.7l-0.3-0.2l-0.6-0.6
			l-0.7-0.7l0.4-0.7l0.7-0.6l-0.1-0.7l-0.4-0.1l-0.8-0.2h-0.7l-0.7-0.6l-0.3-0.7l0.1-0.8l-0.1-0.8l-0.1-0.7l-0.1-0.7l-0.1-0.7
			l0.4-0.7l-0.1-0.8l-0.6-0.7l0.4-0.7l0.6-0.8h0.7l0.7-0.6l-0.3-0.7l-0.1-0.5l-0.3-0.8l-0.4-0.7l-0.4-0.7v-0.7l-0.1-0.7v-0.7
			l-0.3-0.8l0.1-0.7l-0.2-0.7l0.1-0.7v-0.1l-0.1-0.7v-0.7l-0.5-0.7l-0.3-0.8l-0.1-0.3l0.5-0.7l-0.1-0.8l0.2-0.7l0.7-0.7l0.1-0.7
			l-0.7-0.5l-0.4-0.7l-0.1-0.8h0.7l0.1-0.7l0.1-0.2l0.2-0.7l-0.6-0.8v-0.1l-0.3-0.8l-0.1-0.7l0.4-0.5l0.7,0.1l0.4-0.1l-0.3-0.7
			l0.4-0.8l0.1-0.7l0.1-0.7l-0.1-0.7l-0.1-0.7l-0.3-0.8v-0.7l0.7-0.8l0.1-0.1l0.8-0.5l0.7-0.6h0.7l0.6-0.6l0.1-0.7l-0.1-0.8
			l-0.7-0.4l-0.4-0.8l-0.2-0.7l-0.1-0.7v-0.5l-0.1-0.7l-0.4-0.7l-0.4-0.8l-0.4-0.7l-0.4-0.7l-0.1-0.8l0.3-0.7l0.1-0.8l-0.4-0.7
			l-0.4-0.7l0.3-0.8V585l-0.1-0.7l-0.6-0.7l0.5-0.2l-0.1-0.2l-0.2-0.3l-0.1-0.7l0.1-0.7l0.6-0.7l-0.1-0.8v-0.7l0.1-0.2l0.8-0.1
			l0.1-0.6l0.8,0.2l0.5-0.7l-0.1-0.7l0.6-0.7l0.8-0.4l0.5-0.3l0.3-0.7l-0.1-0.5l0.1-0.7l-0.1-0.8v-0.7l-0.4-0.8v-0.7l-0.1-0.7
			l-0.4-0.8l0.1-0.7l-0.8-0.1l-0.2-0.7l0.3-0.2l0.7-0.3l0.4-0.8l-0.1-0.6l0.1-0.8l0.1-0.7l0.2-0.7l0.1-0.8l0.1-0.7l0.4-0.8l0.3-0.7
			l0.4-0.7l-0.1-0.7l0.1-0.2l0.4-0.1l0.7,0.1l0.5-0.7l-0.4-0.7l0.1-0.8l-0.1-0.7l-0.2-0.7l-0.3-0.8l0.4-0.7l-0.3-0.7l0.1-0.7
			l0.2-0.8l0.4-0.7l-0.3-0.7l-0.7-0.5l-0.8,0.6l-0.5-0.7l-0.4-0.8l-0.1-0.6l0.4-0.8l0.2-0.6l-0.1-0.4l-0.6-0.4l-0.1-0.1l-0.5-0.7
			l-0.2-0.7l0.2-0.7l-0.2-0.8l-0.8-0.6v-0.7l-0.1-0.1l-0.6-0.7v-0.1l-0.3-0.7l-0.3-0.8l0.8,0.1l0.3-0.8l-0.6-0.7l-0.8,0.1l-0.6-0.7
			l-0.2-0.8l-0.6-0.7l-0.3-0.7l0.1-0.7l0.1-0.8l-0.1-0.7l0.1-0.7l0.2-0.7h0.7l0.4-0.7l0.3-0.7l-0.3-0.8v-0.7l0.2-0.7l0.1-0.7
			l0.3-0.8l0.1-0.7l0.5-0.7l0.8-0.4h0.2l0.7-0.6l0.1-0.8l0.4-0.7v-0.1l-0.8-0.5l-0.1-0.8l0.1-0.8l-0.1-0.7l-0.1-0.7v-0.4l-0.4-0.8
			l-0.1-0.7l-0.3-0.7l-0.1-0.1l-0.3-0.7l-0.1-0.8l0.2-0.2l0.4-0.7l0.7-0.5l0.4-0.7l-0.1-0.8l0.2-0.7l0.3-0.7l-0.2-0.7v-0.8l0.5-0.7
			v-0.8l-0.1-0.7l0.1-0.1l0.7-0.6l0.4-0.8l0.7-0.7l0.4-0.8l0.2-0.7l0.7-0.4l0.4-0.7l0.1-0.8l0.1-0.4l0.4-0.8l0.1-0.7l0.3-0.7v-0.8
			l0.7-0.7l0.3-0.7l-0.1-0.8l0.4-0.7l0.7-0.3l0.8,0.4l0.7-0.6l0.7-0.3l0.8-0.3l0.2-0.8l0.1-0.6l-0.6-0.7l-0.6-0.8l-0.6-0.7l-0.6-0.7
			l-0.2-0.7v-0.8l0.1-0.7l0.7-0.7l0.5-0.7l-0.3-0.7l-0.1-0.8l-0.2-0.7l-0.1-0.7l-0.2-0.7l-0.6-0.8l0.1-0.7l-0.5-0.7l0.1-0.8l0.1-0.7
			l0.1-0.3l0.1-0.7l0.3-0.4l0.7-0.3l-0.1-0.7l-0.3-0.5l-0.2-0.7l-0.7-0.4l-0.3-0.8l0.3-0.7l0.2-0.7l0.6-0.8l0.7-0.4l0.1-0.2l0.2-0.3
			l0.6-0.7l0.9-0.4l0.8-0.4l0.9-0.4l0.9-0.4l0.8-0.4l0.3-0.1l0.5-0.2l0.7-0.4l0.8-0.4l0.5-0.8l0.2-0.8l0.1-0.7l0.1-0.5v-0.1l0.2-0.8
			l0.1-0.8l0.1-0.7l0.2-0.7l0.2-0.9l0.2-0.8l0.2-0.7l0.3-0.8l-0.1-0.8l-0.8-0.7l-0.5-0.6 M315.5,741.2l-0.6-0.1l-0.8-0.3l-0.7-0.4
			l-0.8-0.4l-0.7-0.2l-0.7-0.2h-0.3l-0.7-0.1l-0.8,0.1l-0.7-0.1h-2.2l-0.8,0.1l-0.8,0.1l-0.7,0.1h-0.8v-0.8l-0.1-0.1l-0.1-0.6
			l-0.1-0.7l-0.1-0.8v-0.2l-0.1-0.4l-0.1-0.8l-0.1-0.8l-0.1-0.7l-0.1-1.6l-0.1-1.4l-0.1-0.7l-0.1-0.8l-0.1-0.8l-0.1-0.8l-0.1-0.7
			l-0.1-0.8v-0.1l-0.1-0.8l-0.1-0.7l-0.1-0.8l-0.1-0.1v-0.3l-0.1-0.5l-0.1-0.6l-0.1-0.8l-0.1-0.7l-0.1-0.4"/>
		<path id="path22769" fill="#E6E6E6" d="M158.1,191.8c-0.1-0.2-0.2-0.6-0.2-1.1c0-0.7-0.1-1-0.6-1.9c-0.5-0.9-0.5-1.1-0.5-1.7
			c0.1-0.5,0-0.9-0.2-1.2c0,0-0.2,0.1-0.4,0.2c-0.4,0.3-0.4,0.3-0.8,0.1c-0.4-0.2-0.5-0.2-0.2,0.3c0.1,0.2,0.1,0.4,0.1,0.6
			c-0.1,0.1-0.1,0.5-0.1,0.7c0,0.7-0.1,0.8-0.5,0.6c-0.2-0.1-0.7-0.2-1.1-0.3c-0.4,0-0.9-0.2-1.1-0.3c-0.4-0.2-0.8-1.1-0.9-1.7
			c0-0.2-0.2-0.5-0.4-0.6c-0.2-0.1-0.3-0.4-0.4-0.6c0-0.3-0.1-0.4-0.6-0.4c-1.1-0.2-1.7-0.4-1.7-0.6c0-0.1-0.1-0.2-0.2-0.1
			c-0.1,0.1-0.5,0.1-0.8,0.2c-0.3,0-0.7,0.1-0.7,0.2c-0.1,0.1-0.3-0.2-0.6-0.5c-0.5-0.6-0.5-0.6-1.3-0.3c-0.4,0.2-0.4,0.1-0.6-0.1
			c-0.2-0.2-0.2-0.2-0.4,0.1l-0.2,0.4l-1-0.1c-1.2-0.1-2,0.1-2.3,0.5c-0.1,0.2-0.2,0.3-0.3,0.3c-0.1,0-0.5-0.8-0.4-0.8
			c0.1,0,0.4-0.3,0.7-0.6c0.6-0.6,0.6-0.6,0.6-1.3c0-0.5-0.1-0.9-0.3-1.3l-0.3-0.6l0.4-0.4c0.2-0.2,0.5-0.5,0.6-0.5
			c0.1,0,0.3-0.3,0.4-0.5c0.2-0.6-0.1-1.1-1-1.5l-0.7-0.3l0-1.3c0-1.2,0.1-1.4,0.3-1.5c0.2-0.1,0.3-0.3,0.3-0.4c0-0.3,0.2-0.3,0.7,0
			c0.6,0.4,1.1,0.3,1.5-0.1l0.3-0.4l0.5,0.3c0.3,0.2,0.6,0.3,0.7,0.3c0.1,0,0.2,0.1,0.1,0.3c-0.2,0.6-0.1,1.2,0.3,1.5
			c0.2,0.2,0.5,0.3,0.6,0.2c0.2-0.1,0.2,0,0.1,0.5c-0.1,0.6,0.1,0.8,1,1.5c0.5,0.4,0.6,0.4,1,0.2c0.2-0.1,0.5-0.1,0.6-0.1
			c0.1,0,0.3,0,0.4-0.1c0.2-0.1,0.5-0.1,0.7-0.1c0.4,0,0.4,0,0.3-0.3c0-0.2-0.2-0.5-0.3-0.7c-0.1-0.2-0.2-0.4-0.2-0.4
			c0.1-0.2,0.4-0.1,0.4,0.1c0,0.1,0.2,0.3,0.4,0.4c0.2,0.1,0.7,0.5,1,0.8c0.3,0.4,0.8,0.8,1.1,0.9c0.5,0.3,0.7,0.3,2,0.2
			c1.1-0.1,1.7-0.2,2.3-0.4c1.4-0.5,2.3-1,2.9-1.5c0.9-0.8,2.6-1.7,3.3-1.9c1.2-0.3,2.4-0.8,2.9-1.3c0.4-0.4,0.7-0.5,1-0.5
			c0.3,0,0.5,0,0.5-0.1c0-0.1,0.3-0.4,0.8-0.7c0.4-0.3,1-0.9,1.3-1.3c0.6-0.8,1-1,1.5-0.8c0.2,0.1,0.9,0.2,2.6,0.3
			c0.1,0,0.6-0.1,1-0.1c0.5-0.1,0.9-0.1,0.9-0.1c0,0-0.1,0.2-0.2,0.4l-0.3,0.4l0.7,0.1c0.4,0.1,1,0.1,1.4,0c0.4-0.1,1.3-0.1,1.9-0.1
			c1,0,1.4,0.1,2.2,0.4c0.5,0.2,1.5,0.5,2.2,0.7c1.1,0.3,1.3,0.3,1.8,0.9c0.3,0.3,0.8,0.7,0.9,0.7c0.2,0,0.5,0.4,0.8,0.7
			c0.2,0.4,0.6,0.8,0.8,0.9c0.2,0.1,0.7,0.5,1.1,0.9l0.7,0.7l-0.4,0.6c-0.3,0.5-0.3,0.7-0.2,1c0.1,0.2,0.3,0.5,0.4,0.5
			c0.2,0.1,0.3,0.3,0.4,0.6c0.1,0.6,0.2,0.8,0.8,1.4c0.3,0.3,0.6,0.8,0.6,1.1c0.1,0.5,0.1,0.5-0.3,0.7c-0.5,0.2-0.8,0.8-0.9,1.7
			c-0.1,0.4-0.2,0.6-0.8,1l-0.7,0.5l-0.5-0.5c-0.4-0.4-0.6-0.5-0.9-0.5c-0.4,0-0.5,0.1-0.7,0.5c-0.3,0.5-0.3,0.8-0.1,1.3
			c0.1,0.1-0.1,0.3-0.3,0.5c-0.3,0.2-0.5,0.4-0.7,1.2l-0.3,1l-0.2-0.4c-0.1-0.2-0.4-0.5-0.5-0.6c-0.8-0.7-2.3-2.4-2.3-2.7
			c0-0.3-0.3-0.9-0.8-1.5c-0.6-0.7-0.5-1.1,0.2-1.4c0.4-0.2,0.7-0.4,0.8-0.7c0.2-0.4,0.2-0.5-0.1-0.8l-0.3-0.3l0.4-0.1
			c0.2,0,0.4-0.2,0.5-0.4c0.3-0.5,0.8-0.5,1.2,0c0.2,0.2,0.5,0.4,0.8,0.5c0.3,0,0.8,0.3,1.2,0.5c0.4,0.2,0.7,0.4,0.8,0.4
			c0.2,0,0.1-0.2-0.1-0.3c-0.1,0-0.5-0.3-0.7-0.5c-0.3-0.2-0.6-0.4-0.8-0.5c-0.5-0.1-0.9-0.5-1.2-1.4c-0.3-0.9-0.7-1.5-0.6-0.7
			c0.1,0.3,0,0.5-0.2,0.7l-0.3,0.3l-0.1-0.4c-0.1-0.4-0.1-0.4-0.6-0.1c-0.2,0.1-0.5,0.3-0.7,0.3c-0.3,0.1-0.4,0-0.5-0.4
			c-0.2-0.6-0.3-0.4-0.1,0.4c0.1,0.3,0.1,0.6,0,0.7c-0.2,0.2-0.9-1-1-1.6c-0.1-0.3-0.2-0.5-0.4-0.7c-0.2-0.1-0.4-0.4-0.5-0.6
			c-0.1-0.4-0.2-0.4-0.5-0.4c-0.3,0.1-0.5,0-0.9-0.4c-0.4-0.4-0.8-0.6-2.1-1.1c-0.2-0.1-0.5-0.3-0.6-0.5c-0.2-0.3-0.2-0.4,0.2-0.8
			c0.3-0.3,0.4-0.5,0.2-0.5c-0.2,0-0.7,0.4-0.7,0.7c0,0.3-1.1,0.6-2.2,0.7c-1,0.1-1.9,0.4-1.9,0.7c0,0.1-0.1,0.1-0.2,0.1
			c-0.1,0-0.3,0.1-0.4,0.2c-0.1,0.2-0.5,0.3-0.7,0.4s-0.6,0.2-0.6,0.3c-0.2,0.3-0.4,1.6-0.4,2c0.1,0.3,0,0.4-0.4,0.6
			c-0.3,0.1-0.8,0.5-1.2,0.8c-1.4,1.3-3,2.1-3.8,1.9c-0.3-0.1-0.4,0-0.8,0.5c-0.6,0.9-0.5,1.2,0.5,2.3c0.5,0.5,1.1,1.2,1.5,1.5
			c0.7,0.6,2.1,2.2,2.1,2.5c0,0.3-1.4,0.9-2,0.9c-0.7,0-1.1,0.2-1.3,0.7c-0.3,0.6-0.8,0.9-1.7,1.1c-0.5,0.1-1,0.2-1.2,0.3
			s-0.6,0.2-1,0.2C158.3,192.1,158.2,192.1,158.1,191.8z"/>
	</g>
	<g id="BrazilNorthIslands">
		<path id="path2756" fill="#203E6D" d="M430.5,244.9c0.8-0.2,1.5-0.6,2-1.2C431.7,243.6,430.8,244,430.5,244.9"/>
		<path id="path2758" fill="#203E6D" d="M432.4,243.7c0.6-0.7,1.6-0.5,2.3-1.2C434,241.4,431.9,242.5,432.4,243.7"/>
		<path id="path2760" fill="#203E6D" d="M434.8,242.1c2.1-0.5,7.2-5.6,6-8c-1.2-2.5-3.6,0.9-4,2.2c-0.2,1,0.2,2-0.8,2.6
			C435,239.6,434.2,240.8,434.8,242.1"/>
		<path id="path2762" fill="#203E6D" d="M439,233c0.8-0.5,3-2,1.9-3.2C439.8,230.4,439.3,231.8,439,233"/>
		<path id="path2764" fill="#203E6D" d="M439,239.8c1.2-0.4,2.1-2.1,1.3-3.2C440.3,237.8,439,238.5,439,239.8"/>
		<path id="path2766" fill="#203E6D" d="M442.3,236.5c-0.9,0.3-1.5,1.1-1.7,2c1.1-0.3,1.3-1.4,2.2-2
			C442.7,236.5,442.5,236.5,442.3,236.5"/>
		<path id="path2768" fill="#203E6D" d="M441.2,233.5c0.3-0.8,0.5-1.6,1.4-1.9C441.4,230.4,440.9,232.7,441.2,233.5"/>
		<path id="path2770" fill="#203E6D" d="M441,237.4c0.7-0.8,1.2-1.8,2-2.4c0.5-0.4,0.7-1.3-0.2-1C441.8,234.3,441,236.3,441,237.4"
			/>
		<path id="path2772" fill="#203E6D" d="M441.6,233.6c0.6-0.2,1.1-0.7,0.8-1.4C441.9,232.4,441.5,232.9,441.6,233.6"/>
		<path id="path2774" fill="#203E6D" d="M443.3,231.1c0.6-0.6,1.3-1,1.9-1.6c0.7-0.8-0.5-1.1-1-0.8
			C443,229.1,440.9,230.6,443.3,231.1"/>
		<path id="path2776" fill="#203E6D" d="M442.3,233.8c0.7-0.3,2-0.8,1.5-1.9C442.8,232,442.7,233.1,442.3,233.8"/>
		<path id="path2778" fill="#203E6D" d="M442.7,236.3c0.4-0.2,0.7-0.6,0.8-1C442.9,235.3,442.5,235.6,442.7,236.3"/>
		<path id="path2780" fill="#203E6D" d="M442.9,228.4c0,0.2,0,0.3,0.1,0.5c0.6-0.1,1.1-0.3,1.5-0.8
			C443.9,227.7,443.3,227.8,442.9,228.4"/>
		<path id="path2782" fill="#203E6D" d="M444,242.1c0.6,0.9,1,2,1.7,2.8c0.6,0.6,3,0.8,1.7,0.1c1.1,0.1,2.5-0.5,3.5-0.2
			c0.7,0.2,1.8,0.8,1.5-0.5c0.2,0.3,0.3,0.6,0.5,0.8c0.8-0.5,1.5-1.2,1.5-2.2c0.4,1.6,3.2,0.5,4.1,0c1.6-0.8,1.6-2.5,2.5-3.9
			c0.9-1.3,1.2-2.7,1.5-4.2c0.3-1.5,2-3.9-0.6-4.1c-2-0.1-4.5-1.4-6.4-0.5c-0.8,0.4,0.1,0.7-1.2,0.7c-1.2-0.1-2.1-0.2-3.3-0.5
			c-2.1-0.5-4.8-1.5-6.2,0.8c-0.8,1.3-0.8,3.3,0.9,3.8c-0.6-0.1-1.2-0.3-1.9-0.5c-0.3,0.7,0.3,1,0.2,1.7c0,0.8-0.7,1.4-0.3,2.2
			c0.5,0.9,1.7-0.3,2.4-0.1c-1.1,1.8-0.8,0.5-2.7,0.8C444.2,239.9,444,241.1,444,242.1"/>
		<path id="path2784" fill="#203E6D" d="M445.7,228.4c1,0.8,1-0.3,0.7-1C445.6,225.8,444.7,227.5,445.7,228.4"/>
		<path id="path2786" fill="#203E6D" d="M446.7,226.8c0.8-1.2,1.4-2.5,0.3-3.7C446.5,224.1,445.6,226.5,446.7,226.8"/>
		<path id="path2788" fill="#203E6D" d="M444.2,210.3c0.2-0.3,0.4-0.5,0.5-0.8C443.9,209.3,443.7,209.5,444.2,210.3"/>
		<path id="path2790" fill="#203E6D" d="M444.9,212.5c1.2-0.6,0.6-1.6,0-2.4C443.7,210.7,444.4,211.8,444.9,212.5"/>
		<path id="path2792" fill="#203E6D" d="M449.7,228.4c0.7,1.5,2.2-0.9,2.9-1.5c1.6-1.7-1.3-1.4-2.2-1.1c-0.9,0.3-2.9,0.4-3.2,1.5
			C446.9,228.2,449.2,228.3,449.7,228.4"/>
		<path id="path2794" fill="#203E6D" d="M448.2,225.2c0.4-0.4,2.5-1.9,1.7-2.6C448.7,221.5,447.3,224.2,448.2,225.2"/>
		<path id="path2796" fill="#203E6D" d="M448.3,226.3c0.5-0.2,0.9-0.5,1.2-0.9C448.9,225.3,448.5,225.7,448.3,226.3"/>
		<path id="path2798" fill="#203E6D" d="M447.2,222.3c0.8,0,1.7-0.2,1.6-1.2C448,220.8,446.9,221.3,447.2,222.3"/>
		<path id="path2800" fill="#203E6D" d="M450.5,220.8c0.5-0.3,0.6-0.7,0.2-1.1C450.2,219.9,450.2,220.3,450.5,220.8"/>
		<path id="path2802" fill="#203E6D" d="M452.3,228.4c-1.1,1.7,1.6,1.4,2.5,1.1C456.3,229,453.6,227.1,452.3,228.4"/>
		<path id="path2804" fill="#203E6D" d="M458.9,245.2c0.3-0.7,0.4-1.4,0.5-2.1C458.4,243.4,457.9,244.5,458.9,245.2"/>
		<path id="path2806" fill="#203E6D" d="M463,239.2C465.1,241.3,463.5,236.7,463,239.2"/>
	</g>
</g>
<path fill="#FB6816" d="M448.1,149.6c-5.9,0-10.6,4.7-10.6,10.6c0,7.9,10.6,19.7,10.6,19.7s10.6-11.7,10.6-19.7
	C458.7,154.3,454,149.6,448.1,149.6z M448.1,163.9c-2.1,0-3.8-1.7-3.8-3.8c0-2.1,1.7-3.8,3.8-3.8c2.1,0,3.8,1.7,3.8,3.8
	C451.9,162.2,450.2,163.9,448.1,163.9z"/>
<path fill="#FB6816" d="M332,208c-5.9,0-10.6,4.7-10.6,10.6c0,7.9,10.6,19.7,10.6,19.7s10.6-11.7,10.6-19.7
	C342.6,212.8,337.9,208,332,208z M332,222.4c-2.1,0-3.8-1.7-3.8-3.8c0-2.1,1.7-3.8,3.8-3.8c2.1,0,3.8,1.7,3.8,3.8
	C335.8,220.7,334.1,222.4,332,222.4z"/>
<path fill="#FB6816" d="M379.1,272.6c-5.9,0-10.6,4.7-10.6,10.6c0,7.9,10.6,19.7,10.6,19.7s10.6-11.7,10.6-19.7
	C389.7,277.3,385,272.6,379.1,272.6z M379.1,287c-2.1,0-3.8-1.7-3.8-3.8c0-2.1,1.7-3.8,3.8-3.8c2.1,0,3.8,1.7,3.8,3.8
	C382.9,285.3,381.2,287,379.1,287z"/>
</svg>
